Seventy-Outline.ufo
<glyph name="quotedbl" format="2">
  <advance width="360"/>
  <unicode hex="0022"/>
  <outline>
    <contour>
      <point x="19" y="929" type="curve" smooth="yes"/>
      <point x="133" y="930" type="line" smooth="yes"/>
      <point x="143" y="930"/>
      <point x="150" y="923"/>
      <point x="151" y="914" type="curve" smooth="yes"/>
      <point x="176" y="682" type="line" smooth="yes"/>
      <point x="178.126" y="673.497"/>
      <point x="169.514" y="666"/>
      <point x="162" y="666" type="curve" smooth="yes"/>
      <point x="86" y="664" type="line" smooth="yes"/>
      <point x="76" y="663"/>
      <point x="67" y="670"/>
      <point x="65" y="680" type="curve" smooth="yes"/>
      <point x="6" y="912" type="line" smooth="yes"/>
      <point x="4.03906" y="919.845"/>
      <point x="10.5391" y="929"/>
    </contour>
    <contour>
      <point x="199" y="929" type="curve" smooth="yes"/>
      <point x="313" y="930" type="line" smooth="yes"/>
      <point x="323" y="930"/>
      <point x="330" y="923"/>
      <point x="331" y="914" type="curve" smooth="yes"/>
      <point x="356" y="682" type="line" smooth="yes"/>
      <point x="358.126" y="673.497"/>
      <point x="349.514" y="666"/>
      <point x="342" y="666" type="curve" smooth="yes"/>
      <point x="266" y="664" type="line" smooth="yes"/>
      <point x="256" y="663"/>
      <point x="247" y="670"/>
      <point x="245" y="680" type="curve" smooth="yes"/>
      <point x="186" y="912" type="line" smooth="yes"/>
      <point x="184.039" y="919.845"/>
      <point x="190.539" y="929"/>
    </contour>
    <contour>
      <point x="199.09" y="919" type="line" smooth="yes"/>
      <point x="196.772" y="919"/>
      <point x="195.625" y="915.646"/>
      <point x="195.625" y="915.001" type="curve" smooth="yes"/>
      <point x="195.625" y="914.852"/>
      <point x="195.641" y="914.676"/>
      <point x="195.702" y="914.431" type="curve" smooth="yes"/>
      <point x="254.692" y="682.47" type="line" smooth="yes"/>
      <point x="255.993" y="677.354"/>
      <point x="259.337" y="673.905"/>
      <point x="264.101" y="673.905" type="curve" smooth="yes"/>
      <point x="264.636" y="673.905"/>
      <point x="265.197" y="673.982"/>
      <point x="265.732" y="673.996" type="curve" smooth="yes"/>
      <point x="342" y="676.003" type="line" smooth="yes"/>
      <point x="343.506" y="676.003"/>
      <point x="345.879" y="678.083"/>
      <point x="346.255" y="679.748" type="curve" smooth="yes"/>
      <point x="346.167" y="680.13"/>
      <point x="346.101" y="680.521"/>
      <point x="346.058" y="680.918" type="curve" smooth="yes"/>
      <point x="321.058" y="912.918" type="line" smooth="yes"/>
      <point x="320.579" y="917.228"/>
      <point x="317.854" y="920"/>
      <point x="313" y="920" type="curve" smooth="yes"/>
    </contour>
    <contour>
      <point x="19.0889" y="919.002" type="line" smooth="yes"/>
      <point x="16.7715" y="919.002"/>
      <point x="15.625" y="915.648"/>
      <point x="15.625" y="915.003" type="curve" smooth="yes"/>
      <point x="15.625" y="914.854"/>
      <point x="15.6406" y="914.678"/>
      <point x="15.7021" y="914.433" type="curve" smooth="yes"/>
      <point x="74.6924" y="682.472" type="line" smooth="yes"/>
      <point x="75.9932" y="677.355"/>
      <point x="79.3369" y="673.907"/>
      <point x="84.1006" y="673.907" type="curve" smooth="yes"/>
      <point x="84.6357" y="673.907"/>
      <point x="85.1973" y="673.984"/>
      <point x="85.7324" y="673.998" type="curve" smooth="yes"/>
      <point x="162" y="676.005" type="line" smooth="yes"/>
      <point x="163.506" y="676.005"/>
      <point x="165.879" y="678.085"/>
      <point x="166.255" y="679.75" type="curve" smooth="yes"/>
      <point x="166.167" y="680.132"/>
      <point x="166.101" y="680.522"/>
      <point x="166.058" y="680.92" type="curve" smooth="yes"/>
      <point x="141.058" y="912.92" type="line" smooth="yes"/>
      <point x="140.579" y="917.229"/>
      <point x="137.854" y="920.002"/>
      <point x="133" y="920.002" type="curve" smooth="yes"/>
    </contour>
  </outline>
</glyph>
<glyph name="numbersign" format="2">
  <advance width="509"/>
  <unicode hex="0023"/>
  <outline>
    <contour>
      <point x="28" y="326" type="curve" smooth="yes"/>
      <point x="98.001" y="326" type="line"/>
      <point x="102.027" y="350.159"/>
      <point x="104.036" y="374.21"/>
      <point x="108.001" y="398" type="curve"/>
      <point x="10.001" y="398" type="line" smooth="yes"/>
      <point x="4.52734" y="398"/>
      <point x="1.00098" y="403.679"/>
      <point x="1.00098" y="409" type="curve" smooth="yes"/>
      <point x="14.001" y="502" type="line" smooth="yes"/>
      <point x="15.001" y="508"/>
      <point x="20.001" y="512"/>
      <point x="26.001" y="510" type="curve" smooth="yes"/>
      <point x="56.001" y="505"/>
      <point x="86.001" y="500"/>
      <point x="117.001" y="497" type="curve"/>
      <point x="121.001" y="561"/>
      <point x="123.001" y="625"/>
      <point x="123.001" y="689" type="curve" smooth="yes"/>
      <point x="123.001" y="695"/>
      <point x="128.001" y="700"/>
      <point x="133.001" y="700" type="curve" smooth="yes"/>
      <point x="241.001" y="700" type="line" smooth="yes"/>
      <point x="247.001" y="700"/>
      <point x="250.001" y="695"/>
      <point x="249.001" y="690" type="curve" smooth="yes"/>
      <point x="236.001" y="624"/>
      <point x="225.001" y="557"/>
      <point x="214.001" y="491" type="curve"/>
      <point x="250.744" y="489.469"/>
      <point x="288.162" y="490.32"/>
      <point x="323.001" y="493" type="curve"/>
      <point x="350.001" y="690" type="line" smooth="yes"/>
      <point x="350.001" y="696"/>
      <point x="355.001" y="700"/>
      <point x="361.001" y="700" type="curve" smooth="yes"/>
      <point x="469.001" y="700" type="line" smooth="yes"/>
      <point x="475.001" y="700"/>
      <point x="478.001" y="696"/>
      <point x="476.001" y="690" type="curve" smooth="yes"/>
      <point x="452.001" y="629"/>
      <point x="432.001" y="567"/>
      <point x="417.001" y="503" type="curve"/>
      <point x="444.001" y="508"/>
      <point x="472.001" y="513"/>
      <point x="499.001" y="519" type="curve" smooth="yes"/>
      <point x="505.001" y="520"/>
      <point x="509.001" y="517"/>
      <point x="508.001" y="511" type="curve" smooth="yes"/>
      <point x="493.001" y="407" type="line" smooth="yes"/>
      <point x="492.001" y="401"/>
      <point x="487.001" y="396"/>
      <point x="481.001" y="396" type="curve" smooth="yes"/>
      <point x="395.001" y="397" type="line"/>
      <point x="390.874" y="374.304"/>
      <point x="388.846" y="351.073"/>
      <point x="385" y="328" type="curve"/>
      <point x="487" y="328" type="line" smooth="yes"/>
      <point x="492.776" y="328"/>
      <point x="496" y="323.579"/>
      <point x="496" y="318" type="curve" smooth="yes"/>
      <point x="483" y="222" type="line" smooth="yes"/>
      <point x="482" y="217"/>
      <point x="477" y="213"/>
      <point x="471" y="213" type="curve" smooth="yes"/>
      <point x="440" y="217"/>
      <point x="408" y="219"/>
      <point x="377" y="221" type="curve"/>
      <point x="373" y="151"/>
      <point x="375" y="80"/>
      <point x="382" y="10" type="curve" smooth="yes"/>
      <point x="383" y="5"/>
      <point x="378" y="0"/>
      <point x="372" y="0" type="curve" smooth="yes"/>
      <point x="267" y="0" type="line" smooth="yes"/>
      <point x="260.964" y="0"/>
      <point x="257" y="5.04297"/>
      <point x="257" y="10" type="curve" smooth="yes"/>
      <point x="287" y="225" type="line"/>
      <point x="255" y="225" type="line" smooth="yes"/>
      <point x="229" y="225"/>
      <point x="203" y="224"/>
      <point x="177" y="223" type="curve"/>
      <point x="169" y="152"/>
      <point x="162" y="81"/>
      <point x="156" y="10" type="curve" smooth="yes"/>
      <point x="155" y="5"/>
      <point x="150" y="0"/>
      <point x="144" y="0" type="curve" smooth="yes"/>
      <point x="39" y="0" type="line" smooth="yes"/>
      <point x="33" y="0"/>
      <point x="29" y="5"/>
      <point x="31" y="10" type="curve" smooth="yes"/>
      <point x="50" y="78"/>
      <point x="67" y="147"/>
      <point x="80" y="216" type="curve"/>
      <point x="56" y="214"/>
      <point x="33" y="212"/>
      <point x="9" y="209" type="curve" smooth="yes"/>
      <point x="4" y="208"/>
      <point x="0" y="212"/>
      <point x="0" y="218" type="curve" smooth="yes"/>
      <point x="16" y="315" type="line" smooth="yes"/>
      <point x="17" y="321"/>
      <point x="22" y="326"/>
    </contour>
    <contour>
      <point x="194.001" y="358" type="line" smooth="yes"/>
      <point x="193.001" y="347"/>
      <point x="191.001" y="337"/>
      <point x="190.001" y="327" type="curve"/>
      <point x="300.001" y="327" type="line"/>
      <point x="310.001" y="397" type="line"/>
      <point x="200.001" y="397" type="line"/>
    </contour>
    <contour>
      <point x="200.001" y="407" type="curve" smooth="yes"/>
      <point x="309.999" y="407" type="line" smooth="yes"/>
      <point x="315.519" y="407"/>
      <point x="319.999" y="402.52"/>
      <point x="319.999" y="397" type="curve" smooth="yes"/>
      <point x="319.999" y="396.517"/>
      <point x="319.965" y="396.041"/>
      <point x="319.898" y="395.576" type="curve" smooth="yes"/>
      <point x="309.898" y="325.576" type="line" smooth="yes"/>
      <point x="309.206" y="320.73"/>
      <point x="305.035" y="317"/>
      <point x="300" y="317" type="curve" smooth="yes"/>
      <point x="190" y="317" type="line" smooth="yes"/>
      <point x="184.48" y="317"/>
      <point x="180" y="321.48"/>
      <point x="180" y="327" type="curve" smooth="yes"/>
      <point x="180" y="337.861"/>
      <point x="182.487" y="348.938"/>
      <point x="184.117" y="359.53" type="curve" smooth="yes"/>
      <point x="190.117" y="398.53" type="line" smooth="yes"/>
      <point x="190.854" y="403.324"/>
      <point x="195.002" y="407"/>
    </contour>
    <contour>
      <point x="249.499" y="480.25" type="curve" smooth="yes"/>
      <point x="235.2" y="480.25"/>
      <point x="203.999" y="476.018"/>
      <point x="203.999" y="491.003" type="curve" smooth="yes"/>
      <point x="203.999" y="491.566"/>
      <point x="204.046" y="492.119"/>
      <point x="204.136" y="492.657" type="curve" smooth="yes"/>
      <point x="215.093" y="558.4"/>
      <point x="225.919" y="624.361"/>
      <point x="238.807" y="690.004" type="curve"/>
      <point x="133.538" y="690.004" type="line" smooth="yes"/>
      <point x="133.36" y="689.795"/>
      <point x="133" y="689.304"/>
      <point x="133" y="689.003" type="curve" smooth="yes"/>
      <point x="133" y="624.79"/>
      <point x="130.993" y="560.579"/>
      <point x="126.98" y="496.37" type="curve" smooth="yes"/>
      <point x="126.654" y="491.145"/>
      <point x="122.308" y="487.002"/>
      <point x="117.001" y="487.002" type="curve" smooth="yes"/>
      <point x="116.673" y="487.002"/>
      <point x="116.349" y="487.018"/>
      <point x="116.028" y="487.049" type="curve" smooth="yes"/>
      <point x="84.7168" y="490.079"/>
      <point x="53.4404" y="493.744"/>
      <point x="23.8535" y="500.233" type="curve"/>
      <point x="11.0381" y="408.557" type="line" smooth="yes"/>
      <point x="11.0752" y="408.318"/>
      <point x="11.1328" y="408.116"/>
      <point x="11.1729" y="408.002" type="curve" smooth="yes"/>
      <point x="108.003" y="408.002" type="line" smooth="yes"/>
      <point x="113.522" y="408.002"/>
      <point x="118.003" y="403.521"/>
      <point x="118.003" y="398.002" type="curve" smooth="yes"/>
      <point x="118.003" y="397.438"/>
      <point x="117.956" y="396.886"/>
      <point x="117.866" y="396.348" type="curve" smooth="yes"/>
      <point x="113.953" y="372.867"/>
      <point x="111.819" y="348.066"/>
      <point x="107.866" y="324.348" type="curve" smooth="yes"/>
      <point x="107.077" y="319.614"/>
      <point x="102.958" y="316.001"/>
      <point x="98.002" y="316.001" type="curve" smooth="yes"/>
      <point x="28.002" y="316.001" type="line" smooth="yes"/>
      <point x="27.7793" y="316.001"/>
      <point x="26.1943" y="315.319"/>
      <point x="25.8652" y="313.348" type="curve" smooth="yes"/>
      <point x="10.3428" y="219.244" type="line"/>
      <point x="33.5498" y="222.085"/>
      <point x="56.7598" y="226.001"/>
      <point x="80.001" y="226.001" type="curve" smooth="yes"/>
      <point x="85.5205" y="226.001"/>
      <point x="90.001" y="221.521"/>
      <point x="90.001" y="216.001" type="curve" smooth="yes"/>
      <point x="90.001" y="215.365"/>
      <point x="89.9414" y="214.743"/>
      <point x="89.8281" y="214.141" type="curve" smooth="yes"/>
      <point x="76.9316" y="145.689"/>
      <point x="60.1377" y="77.3291"/>
      <point x="41.3848" y="10.001" type="curve"/>
      <point x="144.001" y="10.001" type="line" smooth="yes"/>
      <point x="144.438" y="10.001"/>
      <point x="145.752" y="11.0381"/>
      <point x="146.112" y="11.7461" type="curve" smooth="yes"/>
      <point x="152.104" y="82.542"/>
      <point x="159.088" y="153.337"/>
      <point x="167.064" y="224.132" type="curve" smooth="yes"/>
      <point x="167.612" y="228.993"/>
      <point x="171.651" y="232.804"/>
      <point x="176.611" y="232.994" type="curve" smooth="yes"/>
      <point x="202.611" y="233.994"/>
      <point x="228.74" y="235.002"/>
      <point x="255.002" y="235.002" type="curve" smooth="yes"/>
      <point x="287.002" y="235.002" type="line" smooth="yes"/>
      <point x="292.521" y="235.002"/>
      <point x="297.002" y="230.521"/>
      <point x="297.002" y="225.002" type="curve" smooth="yes"/>
      <point x="297.002" y="224.529"/>
      <point x="296.969" y="224.064"/>
      <point x="296.905" y="223.609" type="curve" smooth="yes"/>
      <point x="296.905" y="223.609"/>
      <point x="267.108" y="10.0645"/>
      <point x="267.142" y="10.002" type="curve" smooth="yes"/>
      <point x="371.951" y="10.002" type="line"/>
      <point x="367.387" y="55.9678"/>
      <point x="364.963" y="102.372"/>
      <point x="364.963" y="148.669" type="curve" smooth="yes"/>
      <point x="364.963" y="173.031"/>
      <point x="365.634" y="197.361"/>
      <point x="367.018" y="221.58" type="curve" smooth="yes"/>
      <point x="367.317" y="226.83"/>
      <point x="371.676" y="231.001"/>
      <point x="377.001" y="231.001" type="curve" smooth="yes"/>
      <point x="407.885" y="231.001"/>
      <point x="440.412" y="226.992"/>
      <point x="471.426" y="223.029" type="curve" smooth="yes"/>
      <point x="472.462" y="223.17"/>
      <point x="473.04" y="223.795"/>
      <point x="473.174" y="223.966" type="curve" smooth="yes"/>
      <point x="485.908" y="318.001" type="line"/>
      <point x="385" y="318.001" type="line" smooth="yes"/>
      <point x="379.48" y="318.001"/>
      <point x="375" y="322.481"/>
      <point x="375" y="328.001" type="curve" smooth="yes"/>
      <point x="375" y="340.219"/>
      <point x="377.958" y="353.681"/>
      <point x="380.161" y="365.798" type="curve" smooth="yes"/>
      <point x="382.312" y="377.624"/>
      <point x="381.093" y="407.163"/>
      <point x="395" y="407.001" type="curve" smooth="yes"/>
      <point x="481.012" y="406.001" type="line" smooth="yes"/>
      <point x="481.271" y="406.022"/>
      <point x="482.772" y="406.696"/>
      <point x="483.122" y="408.578" type="curve" smooth="yes"/>
      <point x="497.524" y="508.434" type="line"/>
      <point x="471.349" y="502.719"/>
      <point x="445.064" y="498.025"/>
      <point x="418.829" y="493.167" type="curve" smooth="yes"/>
      <point x="418.236" y="493.058"/>
      <point x="417.625" y="493"/>
      <point x="417" y="493" type="curve" smooth="yes"/>
      <point x="411.48" y="493"/>
      <point x="407" y="497.48"/>
      <point x="407" y="503" type="curve" smooth="yes"/>
      <point x="407" y="503.787"/>
      <point x="407.091" y="504.553"/>
      <point x="407.263" y="505.287" type="curve" smooth="yes"/>
      <point x="422.085" y="568.529"/>
      <point x="441.741" y="629.792"/>
      <point x="465.257" y="690" type="curve"/>
      <point x="361" y="690" type="line" smooth="yes"/>
      <point x="359.808" y="690"/>
      <point x="360.041" y="689.61"/>
      <point x="359.907" y="688.632" type="curve" smooth="yes"/>
      <point x="332.907" y="491.632" type="line" smooth="yes"/>
      <point x="332.273" y="487.011"/>
      <point x="328.478" y="483.392"/>
      <point x="323.775" y="483.03" type="curve" smooth="yes"/>
      <point x="299.528" y="481.165"/>
      <point x="274.787" y="480.25"/>
    </contour>
  </outline>
</glyph>
<glyph name="percent" format="2">
  <advance width="407"/>
  <unicode hex="0025"/>
  <outline>
    <contour>
      <point x="269" y="638" type="curve" smooth="yes"/>
      <point x="378" y="620" type="line" smooth="yes"/>
      <point x="385" y="619"/>
      <point x="388" y="613"/>
      <point x="384" y="607" type="curve" smooth="yes"/>
      <point x="341" y="533"/>
      <point x="302" y="456"/>
      <point x="268" y="376" type="curve" smooth="yes"/>
      <point x="213" y="245"/>
      <point x="172" y="107"/>
      <point x="147" y="-34" type="curve" smooth="yes"/>
      <point x="146" y="-41"/>
      <point x="140" y="-45"/>
      <point x="133" y="-43" type="curve" smooth="yes"/>
      <point x="33" y="-12" type="line" smooth="yes"/>
      <point x="26" y="-10"/>
      <point x="23" y="-3"/>
      <point x="27" y="3" type="curve" smooth="yes"/>
      <point x="127.75" y="186.365"/>
      <point x="208.432" y="397.178"/>
      <point x="254" y="627" type="curve" smooth="yes"/>
      <point x="255" y="634"/>
      <point x="262" y="639"/>
    </contour>
    <contour>
      <point x="147" y="562" type="curve" smooth="yes"/>
      <point x="181.254" y="535.357"/>
      <point x="195.83" y="480.924"/>
      <point x="164.001" y="440" type="curve" smooth="yes"/>
      <point x="139.088" y="405.505"/>
      <point x="83.127" y="391.79"/>
      <point x="43" y="423" type="curve" smooth="yes"/>
      <point x="8.39941" y="449.911"/>
      <point x="-5.50586" y="503.492"/>
      <point x="26" y="544" type="curve" smooth="yes"/>
      <point x="50.5508" y="579.883"/>
      <point x="106.542" y="591.22"/>
    </contour>
    <contour>
      <point x="297.001" y="211.001" type="curve" smooth="yes"/>
      <point x="369.87" y="224.25"/>
      <point x="425.592" y="134.187"/>
      <point x="378.003" y="73.001" type="curve" smooth="yes"/>
      <point x="353.09" y="38.5059"/>
      <point x="297.129" y="24.791"/>
      <point x="257.002" y="56.001" type="curve" smooth="yes"/>
      <point x="221.665" y="83.4854"/>
      <point x="209.151" y="136.134"/>
      <point x="240.001" y="178.001" type="curve" smooth="yes"/>
      <point x="253.001" y="196.001"/>
      <point x="274.001" y="208.001"/>
    </contour>
    <contour>
      <point x="309.768" y="48.2461" type="curve" smooth="yes"/>
      <point x="352.935" y="48.2461"/>
      <point x="385.757" y="83.5371"/>
      <point x="385.757" y="126.34" type="curve" smooth="yes"/>
      <point x="385.757" y="167.072"/>
      <point x="351.936" y="202.123"/>
      <point x="309.706" y="202.123" type="curve" smooth="yes"/>
      <point x="265.541" y="202.123"/>
      <point x="232.248" y="167.956"/>
      <point x="232.248" y="124.59" type="curve" smooth="yes"/>
      <point x="232.248" y="83.2002"/>
      <point x="266.91" y="48.2461"/>
    </contour>
    <contour>
      <point x="95.7666" y="415.245" type="curve" smooth="yes"/>
      <point x="138.609" y="415.245"/>
      <point x="171.757" y="450.504"/>
      <point x="171.757" y="492.764" type="curve" smooth="yes"/>
      <point x="171.757" y="535.109"/>
      <point x="137.957" y="568.759"/>
      <point x="94.3477" y="568.759" type="curve" smooth="yes"/>
      <point x="51.6816" y="568.759"/>
      <point x="18.2471" y="534.417"/>
      <point x="18.2471" y="491.584" type="curve" smooth="yes"/>
      <point x="18.2471" y="450.198"/>
      <point x="52.9121" y="415.245"/>
    </contour>
    <contour>
      <point x="136.549" y="-33.5146" type="curve" smooth="yes"/>
      <point x="136.754" y="-33.5146"/>
      <point x="136.831" y="-33.4775"/>
      <point x="136.831" y="-33.4775" type="curve" smooth="yes"/>
      <point x="136.913" y="-33.4775"/>
      <point x="137.039" y="-32.8955"/>
      <point x="137.155" y="-32.2432" type="curve" smooth="yes"/>
      <point x="162.287" y="109.499"/>
      <point x="203.495" y="248.195"/>
      <point x="258.777" y="379.866" type="curve" smooth="yes"/>
      <point x="292.71" y="459.708"/>
      <point x="331.606" y="536.597"/>
      <point x="374.442" y="610.453" type="curve"/>
      <point x="267.51" y="628.111" type="line" smooth="yes"/>
      <point x="267.406" y="628.123"/>
      <point x="267.304" y="628.129"/>
      <point x="267.203" y="628.129" type="curve" smooth="yes"/>
      <point x="265.132" y="628.129"/>
      <point x="264.088" y="626.446"/>
      <point x="263.811" y="625.049" type="curve" smooth="yes"/>
      <point x="218.082" y="394.416"/>
      <point x="136.869" y="182.193"/>
      <point x="35.7715" y="-1.80371" type="curve" smooth="yes"/>
      <point x="35.6797" y="-1.9707"/>
      <point x="35.583" y="-2.13574"/>
      <point x="35.4824" y="-2.29688" type="curve"/>
      <point x="135.826" y="-33.4033" type="line" smooth="yes"/>
      <point x="136.17" y="-33.4951"/>
      <point x="136.414" y="-33.5146"/>
    </contour>
  </outline>
</glyph>
<glyph name="parenright" format="2">
  <advance width="258"/>
  <unicode hex="0029"/>
  <outline>
    <contour>
      <point x="98" y="-97" type="curve" smooth="yes"/>
      <point x="88" y="-112"/>
      <point x="70" y="-112"/>
      <point x="58" y="-98" type="curve" smooth="yes"/>
      <point x="19" y="-48" type="line" smooth="yes"/>
      <point x="8" y="-35"/>
      <point x="11" y="-16"/>
      <point x="24" y="-5" type="curve" smooth="yes"/>
      <point x="45" y="11"/>
      <point x="63" y="30"/>
      <point x="80" y="50" type="curve" smooth="yes"/>
      <point x="161" y="145"/>
      <point x="195" y="275"/>
      <point x="186" y="400" type="curve" smooth="yes"/>
      <point x="177.146" y="535.771"/>
      <point x="118.577" y="643.42"/>
      <point x="17" y="692" type="curve" smooth="yes"/>
      <point x="7" y="697"/>
      <point x="4" y="707"/>
      <point x="11" y="716" type="curve" smooth="yes"/>
      <point x="68" y="789" type="line" smooth="yes"/>
      <point x="73" y="795"/>
      <point x="82" y="796"/>
      <point x="88" y="790" type="curve" smooth="yes"/>
      <point x="114" y="762"/>
      <point x="138" y="731"/>
      <point x="159" y="699" type="curve" smooth="yes"/>
      <point x="216" y="609"/>
      <point x="249" y="505"/>
      <point x="255" y="400" type="curve" smooth="yes"/>
      <point x="263" y="261"/>
      <point x="223" y="122"/>
      <point x="157" y="-1" type="curve" smooth="yes"/>
      <point x="139" y="-34"/>
      <point x="120" y="-66"/>
    </contour>
    <contour>
      <point x="246.013" y="364.569" type="curve" smooth="yes"/>
      <point x="246.013" y="376.181"/>
      <point x="245.683" y="387.8"/>
      <point x="245.014" y="399.417" type="curve" smooth="yes"/>
      <point x="239.113" y="502.681"/>
      <point x="206.631" y="605.074"/>
      <point x="150.587" y="693.592" type="curve" smooth="yes"/>
      <point x="129.933" y="725.057"/>
      <point x="106.33" y="755.544"/>
      <point x="80.8281" y="783.028" type="curve" smooth="yes"/>
      <point x="79.9814" y="783.834"/>
      <point x="78.5254" y="784.03"/>
      <point x="78.5254" y="784.03" type="curve" smooth="yes"/>
      <point x="77.6426" y="784.03"/>
      <point x="76.5713" y="783.615"/>
      <point x="75.7578" y="782.689" type="curve" smooth="yes"/>
      <point x="18.8848" y="709.853" type="line" smooth="yes"/>
      <point x="17.4277" y="707.979"/>
      <point x="17.1836" y="706.656"/>
      <point x="17.1836" y="705.887" type="curve" smooth="yes"/>
      <point x="17.1836" y="704.797"/>
      <point x="17.6758" y="702.863"/>
      <point x="21.3926" y="700.984" type="curve" smooth="yes"/>
      <point x="135.48" y="646.372"/>
      <point x="197.407" y="523.166"/>
      <point x="197.407" y="360.827" type="curve" smooth="yes"/>
      <point x="197.407" y="246.279"/>
      <point x="162.015" y="130.78"/>
      <point x="87.6104" y="43.5166" type="curve" smooth="yes"/>
      <point x="70.4404" y="23.3174"/>
      <point x="52.0293" y="3.82422"/>
      <point x="30.2744" y="-12.7881" type="curve" smooth="yes"/>
      <point x="25.0244" y="-17.3174"/>
      <point x="22.25" y="-23.6602"/>
      <point x="22.25" y="-29.585" type="curve" smooth="yes"/>
      <point x="22.25" y="-34.1738"/>
      <point x="23.9277" y="-38.0625"/>
      <point x="26.8877" y="-41.8564" type="curve" smooth="yes"/>
      <point x="65.7334" y="-91.6592" type="line" smooth="yes"/>
      <point x="70.0059" y="-96.5664"/>
      <point x="74.6406" y="-98.3779"/>
      <point x="78.373" y="-98.3779" type="curve" smooth="yes"/>
      <point x="82.4668" y="-98.3779"/>
      <point x="86.1689" y="-96.3916"/>
      <point x="89.8379" y="-91.2217" type="curve" smooth="yes"/>
      <point x="111.529" y="-60.6572"/>
      <point x="130.328" y="-29.0127"/>
      <point x="148.214" y="3.77734" type="curve" smooth="yes"/>
      <point x="207.988" y="115.175"/>
      <point x="246.013" y="239.547"/>
    </contour>
  </outline>
</glyph>
<glyph name="plus" format="2">
  <advance width="527"/>
  <unicode hex="002B"/>
  <outline>
    <contour>
      <point x="317" y="597" type="line" smooth="yes"/>
      <point x="326.498" y="597"/>
      <point x="333" y="591.454"/>
      <point x="333" y="583" type="curve" smooth="yes"/>
      <point x="323" y="347" type="line"/>
      <point x="512" y="348" type="line" smooth="yes"/>
      <point x="520.418" y="348"/>
      <point x="527.971" y="340.854"/>
      <point x="526" y="331" type="curve" smooth="yes"/>
      <point x="515" y="264" type="line" smooth="yes"/>
      <point x="514" y="254"/>
      <point x="505" y="247"/>
      <point x="495" y="247" type="curve" smooth="yes"/>
      <point x="319" y="245" type="line"/>
      <point x="310" y="49" type="line" smooth="yes"/>
      <point x="310" y="39"/>
      <point x="303" y="30"/>
      <point x="293" y="27" type="curve" smooth="yes"/>
      <point x="220" y="5" type="line" smooth="yes"/>
      <point x="211.152" y="2.78809"/>
      <point x="204.001" y="9.06641"/>
      <point x="204.001" y="17" type="curve" smooth="yes"/>
      <point x="211.001" y="244" type="line"/>
      <point x="16.001" y="242" type="line" smooth="yes"/>
      <point x="7.69727" y="242"/>
      <point x="-0.123047" y="250.506"/>
      <point x="2" y="259" type="curve" smooth="yes"/>
      <point x="15" y="329" type="line" smooth="yes"/>
      <point x="17" y="339"/>
      <point x="26" y="346"/>
      <point x="36" y="346" type="curve" smooth="yes"/>
      <point x="214" y="347" type="line"/>
      <point x="221" y="560" type="line" smooth="yes"/>
      <point x="221" y="570"/>
      <point x="228" y="579"/>
      <point x="238" y="581" type="curve" smooth="yes"/>
    </contour>
    <contour>
      <point x="11.625" y="256" type="curve" smooth="yes"/>
      <point x="11.625" y="254.138"/>
      <point x="14.6416" y="252.028"/>
      <point x="15.9717" y="252" type="curve" smooth="yes"/>
      <point x="210.997" y="254" type="line" smooth="yes"/>
      <point x="216.517" y="254"/>
      <point x="221.173" y="249.516"/>
      <point x="221.003" y="243.999" type="curve" smooth="yes"/>
      <point x="213.999" y="16.8691" type="line" smooth="yes"/>
      <point x="214.021" y="15.0947"/>
      <point x="215.385" y="14.6074"/>
      <point x="216.802" y="14.6074" type="curve" smooth="yes"/>
      <point x="217.003" y="14.6074"/>
      <point x="217.207" y="14.626"/>
      <point x="217.415" y="14.667" type="curve" smooth="yes"/>
      <point x="290.112" y="36.5752" type="line" smooth="yes"/>
      <point x="296.154" y="38.3877"/>
      <point x="299.998" y="43.7285"/>
      <point x="299.998" y="48.999" type="curve" smooth="yes"/>
      <point x="299.998" y="49.1553"/>
      <point x="300.002" y="49.3105"/>
      <point x="300.009" y="49.4648" type="curve" smooth="yes"/>
      <point x="309.009" y="245.465" type="line" smooth="yes"/>
      <point x="309.251" y="250.73"/>
      <point x="313.572" y="254.938"/>
      <point x="318.883" y="254.999" type="curve" smooth="yes"/>
      <point x="494.999" y="257" type="line" smooth="yes"/>
      <point x="501.213" y="257"/>
      <point x="504.377" y="261.033"/>
      <point x="505.132" y="265.629" type="curve" smooth="yes"/>
      <point x="516.132" y="332.629" type="line" smooth="yes"/>
      <point x="516.236" y="333.265"/>
      <point x="516.375" y="334.166"/>
      <point x="516.375" y="334.562" type="curve" smooth="yes"/>
      <point x="516.375" y="336.763"/>
      <point x="514.783" y="337.999"/>
      <point x="512" y="337.999" type="curve" smooth="yes"/>
      <point x="323" y="336.999" type="line" smooth="yes"/>
      <point x="317.48" y="336.999"/>
      <point x="313" y="341.479"/>
      <point x="313" y="346.999" type="curve" smooth="yes"/>
      <point x="313" y="347.143"/>
      <point x="313.003" y="347.286"/>
      <point x="313.009" y="347.429" type="curve" smooth="yes"/>
      <point x="322.999" y="583.201" type="line" smooth="yes"/>
      <point x="322.979" y="586.587"/>
      <point x="321.097" y="586.737"/>
      <point x="317.857" y="586.969" type="curve" smooth="yes"/>
      <point x="239.992" y="571.198" type="line" smooth="yes"/>
      <point x="234.849" y="570.17"/>
      <point x="230.999" y="565.407"/>
      <point x="230.999" y="560" type="curve" smooth="yes"/>
      <point x="230.999" y="559.889"/>
      <point x="230.997" y="559.777"/>
      <point x="230.993" y="559.667" type="curve" smooth="yes"/>
      <point x="223.993" y="346.667" type="line" smooth="yes"/>
      <point x="223.817" y="341.321"/>
      <point x="219.438" y="337.031"/>
      <point x="214.057" y="337.001" type="curve" smooth="yes"/>
      <point x="36.0566" y="336.001" type="line" smooth="yes"/>
      <point x="30.6689" y="336.001"/>
      <point x="25.8691" y="332.203"/>
      <point x="24.8174" y="327.088" type="curve" smooth="yes"/>
      <point x="11.832" y="257.166" type="line" smooth="yes"/>
      <point x="11.7705" y="256.834"/>
      <point x="11.625" y="256.335"/>
    </contour>
  </outline>
</glyph>
<glyph name="comma" format="2">
  <advance width="205"/>
  <unicode hex="002C"/>
  <outline>
    <contour>
      <point x="41" y="104" type="curve" smooth="yes"/>
      <point x="170" y="137" type="line" smooth="yes"/>
      <point x="178" y="139"/>
      <point x="186" y="134"/>
      <point x="186" y="126" type="curve" smooth="yes"/>
      <point x="189.113" y="32.5977"/>
      <point x="147.657" y="-57.624"/>
      <point x="96" y="-112" type="curve" smooth="yes"/>
      <point x="91" y="-118"/>
      <point x="80" y="-123"/>
      <point x="72" y="-122" type="curve" smooth="yes"/>
      <point x="19" y="-121" type="line" smooth="yes"/>
      <point x="0" y="-121"/>
      <point x="-3" y="-111"/>
      <point x="9" y="-96" type="curve" smooth="yes"/>
      <point x="46.2939" y="-49.8271"/>
      <point x="61.4824" y="18.6904"/>
      <point x="31" y="82" type="curve" smooth="yes"/>
      <point x="27" y="92"/>
      <point x="30" y="101"/>
    </contour>
    <contour>
      <point x="176.177" y="115.357" type="curve" smooth="yes"/>
      <point x="176.177" y="118.903"/>
      <point x="175.998" y="122.45"/>
      <point x="175.998" y="125.998" type="curve" smooth="yes"/>
      <point x="175.998" y="126.351"/>
      <point x="175.823" y="127.439"/>
      <point x="173.553" y="127.439" type="curve" smooth="yes"/>
      <point x="173.216" y="127.439"/>
      <point x="172.833" y="127.397"/>
      <point x="172.428" y="127.296" type="curve" smooth="yes"/>
      <point x="43.5625" y="94.3301" type="line" smooth="yes"/>
      <point x="39.3213" y="93.1611"/>
      <point x="39.3066" y="92.0244"/>
      <point x="39.3066" y="90.0566" type="curve" smooth="yes"/>
      <point x="39.3066" y="89.1016"/>
      <point x="39.5312" y="87.6865"/>
      <point x="40.1797" y="85.9824" type="curve" smooth="yes"/>
      <point x="51.9326" y="61.4307"/>
      <point x="57.4248" y="34.6816"/>
      <point x="57.4248" y="7.71875" type="curve" smooth="yes"/>
      <point x="57.4248" y="-35.791"/>
      <point x="41.2031" y="-72.042"/>
      <point x="16.7822" y="-102.277" type="curve" smooth="yes"/>
      <point x="13.7139" y="-106.113"/>
      <point x="12.4893" y="-109.01"/>
      <point x="12.0625" y="-110.335" type="curve" smooth="yes"/>
      <point x="12.9443" y="-110.639"/>
      <point x="14.8633" y="-110.92"/>
      <point x="18.999" y="-110.998" type="curve" smooth="yes"/>
      <point x="72.1914" y="-112.002" type="line" smooth="yes"/>
      <point x="72.8867" y="-112.015"/>
      <point x="73.3955" y="-112.128"/>
      <point x="74.1367" y="-112.128" type="curve" smooth="yes"/>
      <point x="78.9844" y="-112.128"/>
      <point x="86.0312" y="-107.978"/>
      <point x="88.75" y="-105.115" type="curve" smooth="yes"/>
      <point x="136.846" y="-54.4883"/>
      <point x="176.177" y="28.4277"/>
    </contour>
  </outline>
</glyph>
<glyph name="period" format="2">
  <advance width="158"/>
  <unicode hex="002E"/>
  <outline>
    <contour>
      <point x="49" y="224" type="line" smooth="yes"/>
      <point x="49" y="230.906"/>
      <point x="55.3643" y="237"/>
      <point x="62" y="237" type="curve" smooth="yes"/>
      <point x="146" y="231" type="line" smooth="yes"/>
      <point x="154" y="231"/>
      <point x="160" y="224"/>
      <point x="159" y="217" type="curve" smooth="yes"/>
      <point x="157" y="142" type="line" smooth="yes"/>
      <point x="157" y="135"/>
      <point x="151" y="129"/>
      <point x="143" y="129" type="curve" smooth="yes"/>
      <point x="68" y="128" type="line" smooth="yes"/>
      <point x="61" y="128"/>
      <point x="54" y="133"/>
      <point x="54" y="141" type="curve" smooth="yes"/>
    </contour>
    <contour>
      <point x="61.7832" y="226.989" type="line" smooth="yes"/>
      <point x="60.7451" y="226.9"/>
      <point x="60.6074" y="226.467"/>
      <point x="60.0703" y="225.93" type="curve" smooth="yes"/>
      <point x="60.0703" y="225.93"/>
      <point x="59.2432" y="224.589"/>
      <point x="59.0264" y="223.875" type="curve" smooth="yes"/>
      <point x="63.9824" y="141.609" type="line" smooth="yes"/>
      <point x="63.9941" y="141.408"/>
      <point x="64" y="141.205"/>
      <point x="64" y="141" type="curve" smooth="yes"/>
      <point x="64" y="139.709"/>
      <point x="65.1953" y="138.021"/>
      <point x="67.9473" y="138" type="curve" smooth="yes"/>
      <point x="143" y="139.001" type="line" smooth="yes"/>
      <point x="145.96" y="139.001"/>
      <point x="146.969" y="140.953"/>
      <point x="146.997" y="142" type="curve" smooth="yes"/>
      <point x="149.004" y="217.271" type="line" smooth="yes"/>
      <point x="149.016" y="217.698"/>
      <point x="149.109" y="218.118"/>
      <point x="149.109" y="218.537" type="curve" smooth="yes"/>
      <point x="149.109" y="219.215"/>
      <point x="148.007" y="221"/>
      <point x="146" y="221" type="curve" smooth="yes"/>
      <point x="145.758" y="221"/>
      <point x="145.518" y="221.009"/>
      <point x="145.279" y="221.025" type="curve" smooth="yes"/>
    </contour>
  </outline>
</glyph>
<glyph name="one" format="2">
  <advance width="207"/>
  <unicode hex="0031"/>
  <outline>
    <contour>
      <point x="202" y="702" type="curve"/>
      <point x="211.882" y="566.942"/>
      <point x="168.426" y="462.358"/>
      <point x="155" y="346.001" type="curve" smooth="yes"/>
      <point x="139.899" y="221.842"/>
      <point x="164.387" y="94.9707"/>
      <point x="200" y="0.000976562" type="curve"/>
      <point x="88" y="0.000976562" type="line"/>
      <point x="78" y="44.001"/>
      <point x="73" y="89.001"/>
      <point x="71" y="133.001" type="curve" smooth="yes"/>
      <point x="66" y="243.001"/>
      <point x="84" y="352.001"/>
      <point x="96" y="461.001" type="curve" smooth="yes"/>
      <point x="102" y="508.001"/>
      <point x="106" y="555.001"/>
      <point x="109" y="602.001" type="curve"/>
      <point x="87.3818" y="580.383"/>
      <point x="52.5635" y="564.28"/>
      <point x="18" y="563" type="curve"/>
      <point x="15" y="660" type="line"/>
      <point x="92.5498" y="647.075"/>
      <point x="124.791" y="706.063"/>
    </contour>
    <contour>
      <point x="185.708" y="10.001" type="line"/>
      <point x="159.509" y="83.9229"/>
      <point x="140.238" y="172.789"/>
      <point x="140.238" y="266.745" type="curve" smooth="yes"/>
      <point x="140.238" y="413.891"/>
      <point x="193.407" y="516.008"/>
      <point x="193.407" y="662.329" type="curve" smooth="yes"/>
      <point x="193.407" y="672.318"/>
      <point x="193.149" y="682.276"/>
      <point x="192.606" y="692.173" type="curve"/>
      <point x="129.604" y="691.171"/>
      <point x="101.307" y="648.236"/>
      <point x="36.4326" y="648.236" type="curve" smooth="yes"/>
      <point x="32.752" y="648.236"/>
      <point x="29.0566" y="648.378"/>
      <point x="25.3535" y="648.668" type="curve"/>
      <point x="27.6699" y="573.765" type="line"/>
      <point x="56.1543" y="577.083"/>
      <point x="83.7734" y="590.914"/>
      <point x="101.929" y="609.069" type="curve" smooth="yes"/>
      <point x="103.739" y="610.88"/>
      <point x="106.239" y="612"/>
      <point x="108.999" y="612" type="curve" smooth="yes"/>
      <point x="114.519" y="612"/>
      <point x="118.999" y="607.52"/>
      <point x="118.999" y="602" type="curve" smooth="yes"/>
      <point x="118.999" y="601.783"/>
      <point x="118.992" y="601.568"/>
      <point x="118.979" y="601.354" type="curve" smooth="yes"/>
      <point x="115.972" y="554.241"/>
      <point x="111.959" y="507.058"/>
      <point x="105.93" y="459.81" type="curve" smooth="yes"/>
      <point x="95.7236" y="367.127"/>
      <point x="80.1426" y="267.549"/>
      <point x="80.1426" y="171.697" type="curve" smooth="yes"/>
      <point x="80.1426" y="112.979"/>
      <point x="84.6494" y="63.4014"/>
      <point x="96.0391" y="10.001" type="curve"/>
    </contour>
  </outline>
</glyph>
<glyph name="two" format="2">
	<unicode hex="0032"/>
	<advance width="479"/>
	<outline>
		<contour>
			<point x="380" y="0" type="curve" smooth="yes"/>
			<point x="297" y="-5"/>
			<point x="215" y="30"/>
			<point x="132" y="23" type="curve" smooth="yes"/>
			<point x="108" y="21"/>
			<point x="84" y="15"/>
			<point x="62" y="6" type="curve" smooth="yes"/>
			<point x="53" y="3"/>
			<point x="42" y="5"/>
			<point x="36" y="12" type="curve" smooth="yes"/>
			<point x="11" y="42" type="line" smooth="yes"/>
			<point x="6" y="49"/>
			<point x="5" y="60"/>
			<point x="9" y="68" type="curve" smooth="yes"/>
			<point x="56" y="144"/>
			<point x="114" y="213"/>
			<point x="180" y="272" type="curve" smooth="yes"/>
			<point x="217" y="305"/>
			<point x="256" y="335"/>
			<point x="289" y="371" type="curve" smooth="yes"/>
			<point x="323" y="406"/>
			<point x="352" y="449"/>
			<point x="361" y="497" type="curve" smooth="yes"/>
			<point x="372.643" y="562.975"/>
			<point x="344.534" y="616.293"/>
			<point x="291" y="627" type="curve" smooth="yes"/>
			<point x="238.348" y="638.967"/>
			<point x="197.374" y="602.596"/>
			<point x="176" y="573" type="curve" smooth="yes"/>
			<point x="156" y="543"/>
			<point x="145" y="507"/>
			<point x="147" y="471" type="curve" smooth="yes"/>
			<point x="147" y="462"/>
			<point x="141" y="455"/>
			<point x="132" y="454" type="curve" smooth="yes"/>
			<point x="30" y="448" type="line" smooth="yes"/>
			<point x="21" y="448"/>
			<point x="14" y="455"/>
			<point x="15" y="464" type="curve" smooth="yes"/>
			<point x="19.7793" y="554.806"/>
			<point x="72.9434" y="627.507"/>
			<point x="136" y="665" type="curve" smooth="yes"/>
			<point x="179" y="691"/>
			<point x="228" y="704"/>
			<point x="277" y="705" type="curve" smooth="yes"/>
			<point x="398.515" y="708.797"/>
			<point x="497.416" y="630.87"/>
			<point x="469" y="503" type="curve" smooth="yes"/>
			<point x="457" y="444"/>
			<point x="419" y="394"/>
			<point x="378" y="350" type="curve" smooth="yes"/>
			<point x="337" y="307"/>
			<point x="292" y="268"/>
			<point x="249" y="226" type="curve" smooth="yes"/>
			<point x="206" y="184"/>
			<point x="165" y="139"/>
			<point x="127" y="91" type="curve"/>
			<point x="130" y="91" type="line"/>
			<point x="200" y="85"/>
			<point x="272" y="84"/>
			<point x="340" y="102" type="curve" smooth="yes"/>
			<point x="377" y="112"/>
			<point x="411" y="128"/>
			<point x="443" y="149" type="curve" smooth="yes"/>
			<point x="451" y="154"/>
			<point x="458" y="151"/>
			<point x="459" y="142" type="curve" smooth="yes"/>
			<point x="477" y="42" type="line" smooth="yes"/>
			<point x="478" y="34"/>
			<point x="473" y="23"/>
			<point x="465" y="20" type="curve" smooth="yes"/>
			<point x="438" y="9"/>
			<point x="409" y="2"/>
		</contour>
		<contour>
			<point x="271.572" y="639.152" type="curve" smooth="yes"/>
			<point x="334.255" y="639.152"/>
			<point x="373.812" y="590.368"/>
			<point x="373.812" y="527.259" type="curve" smooth="yes"/>
			<point x="373.812" y="516.38"/>
			<point x="372.766" y="505.478"/>
			<point x="370.829" y="495.148" type="curve" smooth="yes"/>
			<point x="361.322" y="444.446"/>
			<point x="331.049" y="399.962"/>
			<point x="296.274" y="364.139" type="curve" smooth="yes"/>
			<point x="262.549" y="327.372"/>
			<point x="223.604" y="297.493"/>
			<point x="186.652" y="264.535" type="curve" smooth="yes"/>
			<point x="121.505" y="206.297"/>
			<point x="64.2285" y="138.194"/>
			<point x="17.7891" y="63.1992" type="curve" smooth="yes"/>
			<point x="17.0166" y="61.5029"/>
			<point x="16.5322" y="59.2598"/>
			<point x="16.5322" y="56.9229" type="curve" smooth="yes"/>
			<point x="16.5322" y="53.5361"/>
			<point x="17.5889" y="50.1348"/>
			<point x="18.9707" y="48.0537" type="curve" smooth="yes"/>
			<point x="43.6309" y="18.4619" type="line" smooth="yes"/>
			<point x="45.4668" y="16.3545"/>
			<point x="49.1885" y="14.6514"/>
			<point x="53.5498" y="14.6514" type="curve" smooth="yes"/>
			<point x="55.2598" y="14.6514"/>
			<point x="57.0029" y="14.9141"/>
			<point x="58.5693" y="15.4033" type="curve" smooth="yes"/>
			<point x="88.4336" y="27.5684"/>
			<point x="117.25" y="33.9307"/>
			<point x="154.763" y="33.9307" type="curve" smooth="yes"/>
			<point x="225.049" y="33.9307"/>
			<point x="294.137" y="9.51074"/>
			<point x="363.302" y="9.51074" type="curve" smooth="yes"/>
			<point x="400.454" y="9.51074"/>
			<point x="430.091" y="16.5791"/>
			<point x="461.233" y="29.2666" type="curve" smooth="yes"/>
			<point x="463.305" y="30.1104"/>
			<point x="467.127" y="35.1104"/>
			<point x="467.127" y="39.8994" type="curve" smooth="yes"/>
			<point x="467.127" y="40.1377"/>
			<point x="467.116" y="40.3564"/>
			<point x="467.099" y="40.5508" type="curve" smooth="yes"/>
			<point x="449.158" y="140.221" type="line" smooth="yes"/>
			<point x="449.119" y="140.44"/>
			<point x="449.087" y="140.662"/>
			<point x="449.054" y="140.955" type="curve"/>
			<point x="448.854" y="140.851"/>
			<point x="448.627" y="140.723"/>
			<point x="448.371" y="140.565" type="curve" smooth="yes"/>
			<point x="415.632" y="119.094"/>
			<point x="380.672" y="102.633"/>
			<point x="342.612" y="92.3467" type="curve" smooth="yes"/>
			<point x="299.957" y="81.0557"/>
			<point x="255.963" y="77.0938"/>
			<point x="212.158" y="77.0938" type="curve" smooth="yes"/>
			<point x="184.461" y="77.0938"/>
			<point x="156.819" y="78.6738"/>
			<point x="129.567" y="81.002" type="curve" smooth="yes"/>
			<point x="127" y="81.002" type="line" smooth="yes"/>
			<point x="121.48" y="81.002"/>
			<point x="117" y="85.4824"/>
			<point x="117" y="91.002" type="curve" smooth="yes"/>
			<point x="117" y="93.3428"/>
			<point x="117.806" y="95.4971"/>
			<point x="119.155" y="97.2021" type="curve" smooth="yes"/>
			<point x="157.441" y="145.564"/>
			<point x="198.73" y="190.879"/>
			<point x="242.014" y="233.155" type="curve" smooth="yes"/>
			<point x="284.617" y="274.769"/>
			<point x="329.948" y="314.096"/>
			<point x="370.762" y="356.9" type="curve" smooth="yes"/>
			<point x="411.365" y="400.476"/>
			<point x="447.803" y="448.969"/>
			<point x="459.199" y="505.003" type="curve" smooth="yes"/>
			<point x="461.819" y="517.886"/>
			<point x="463.544" y="530.865"/>
			<point x="463.544" y="543.953" type="curve" smooth="yes"/>
			<point x="463.544" y="642.136"/>
			<point x="385.607" y="695.15"/>
			<point x="286.412" y="695.15" type="curve" smooth="yes"/>
			<point x="180.468" y="695.15"/>
			<point x="96.332" y="641.597"/>
			<point x="55.7578" y="568.176" type="curve" smooth="yes"/>
			<point x="37.8262" y="536.088"/>
			<point x="24.9033" y="498.634"/>
			<point x="24.9033" y="462.299" type="curve" smooth="yes"/>
			<point x="24.9033" y="460.145"/>
			<point x="26.4014" y="458.1"/>
			<point x="29.7568" y="458.006" type="curve" smooth="yes"/>
			<point x="131.102" y="463.967" type="line" smooth="yes"/>
			<point x="134.845" y="464.458"/>
			<point x="136.919" y="466.731"/>
			<point x="136.996" y="470.766" type="curve" smooth="yes"/>
			<point x="136.842" y="473.647"/>
			<point x="136.766" y="476.528"/>
			<point x="136.766" y="479.406" type="curve" smooth="yes"/>
			<point x="136.766" y="514.033"/>
			<point x="147.642" y="550.814"/>
			<point x="167.887" y="578.846" type="curve" smooth="yes"/>
			<point x="188.724" y="607.696"/>
			<point x="222.46" y="639.152"/>
		</contour>
	</outline>
</glyph>
<glyph name="three" format="2">
  <advance width="430"/>
  <unicode hex="0033"/>
  <outline>
    <contour>
      <point x="59" y="596" type="curve" smooth="yes"/>
      <point x="98.7363" y="644.566"/>
      <point x="169.1" y="693.002"/>
      <point x="248.999" y="693.002" type="curve" smooth="yes"/>
      <point x="357.363" y="693.002"/>
      <point x="454.084" y="603.341"/>
      <point x="410.999" y="478.002" type="curve" smooth="yes"/>
      <point x="394.324" y="433.535"/>
      <point x="361.344" y="392.277"/>
      <point x="325.999" y="364.001" type="curve"/>
      <point x="385.717" y="338.666"/>
      <point x="434.891" y="283.156"/>
      <point x="429.999" y="200" type="curve" smooth="yes"/>
      <point x="427.658" y="118.064"/>
      <point x="378.301" y="57.0352"/>
      <point x="319.999" y="27.001" type="curve" smooth="yes"/>
      <point x="221.971" y="-23.499"/>
      <point x="103.348" y="-1.37598"/>
      <point x="24" y="63.001" type="curve" smooth="yes"/>
      <point x="17" y="68.001"/>
      <point x="13" y="80.001"/>
      <point x="15" y="88.001" type="curve" smooth="yes"/>
      <point x="45" y="227.001" type="line" smooth="yes"/>
      <point x="47" y="235.001"/>
      <point x="51" y="235.001"/>
      <point x="55" y="228.001" type="curve" smooth="yes"/>
      <point x="81.3447" y="173.285"/>
      <point x="127.618" y="126.795"/>
      <point x="187" y="107.001" type="curve" smooth="yes"/>
      <point x="245.65" y="89.4053"/>
      <point x="305.827" y="100.828"/>
      <point x="338.999" y="134" type="curve" smooth="yes"/>
      <point x="354.999" y="149"/>
      <point x="365.999" y="171"/>
      <point x="365.999" y="194" type="curve" smooth="yes"/>
      <point x="365.999" y="240.852"/>
      <point x="326.337" y="274.416"/>
      <point x="287.999" y="284" type="curve" smooth="yes"/>
      <point x="263.999" y="291"/>
      <point x="238.999" y="291"/>
      <point x="215.999" y="284" type="curve" smooth="yes"/>
      <point x="207.999" y="282"/>
      <point x="199.999" y="286"/>
      <point x="197.999" y="295" type="curve" smooth="yes"/>
      <point x="179.999" y="372" type="line" smooth="yes"/>
      <point x="177.999" y="380"/>
      <point x="183.999" y="388"/>
      <point x="191.999" y="390" type="curve" smooth="yes"/>
      <point x="221.999" y="397"/>
      <point x="250.999" y="409"/>
      <point x="277.999" y="425" type="curve" smooth="yes"/>
      <point x="308.246" y="442.873"/>
      <point x="338.429" y="469.359"/>
      <point x="346" y="511" type="curve"/>
      <point x="352.513" y="589.149"/>
      <point x="266.449" y="604.225"/>
      <point x="206" y="574" type="curve" smooth="yes"/>
      <point x="159.34" y="548.549"/>
      <point x="121.485" y="503.143"/>
      <point x="95" y="459" type="curve" smooth="yes"/>
      <point x="91" y="452"/>
      <point x="85" y="452"/>
      <point x="83" y="460" type="curve" smooth="yes"/>
      <point x="53" y="568" type="line" smooth="yes"/>
      <point x="51" y="577"/>
      <point x="53" y="589"/>
    </contour>
    <contour>
      <point x="411.294" y="538.212" type="curve" smooth="yes"/>
      <point x="411.294" y="628.368"/>
      <point x="332.969" y="683.003"/>
      <point x="249" y="683.003" type="curve" smooth="yes"/>
      <point x="172.771" y="683.003"/>
      <point x="104.799" y="636.19"/>
      <point x="66.7432" y="589.678" type="curve" smooth="yes"/>
      <point x="64.376" y="586.784"/>
      <point x="62.25" y="581.072"/>
      <point x="62.25" y="575.191" type="curve" smooth="yes"/>
      <point x="62.25" y="573.464"/>
      <point x="62.4199" y="571.812"/>
      <point x="62.7129" y="570.405" type="curve" smooth="yes"/>
      <point x="90.4209" y="470.655" type="line"/>
      <point x="104.926" y="493.722"/>
      <point x="121.921" y="516.066"/>
      <point x="141.929" y="536.074" type="curve" smooth="yes"/>
      <point x="171.312" y="565.457"/>
      <point x="210.482" y="599.385"/>
      <point x="267.443" y="599.385" type="curve" smooth="yes"/>
      <point x="317.308" y="599.385"/>
      <point x="356.358" y="570.149"/>
      <point x="356.358" y="519.348" type="curve" smooth="yes"/>
      <point x="356.358" y="516.071"/>
      <point x="356.41" y="512.363"/>
      <point x="355.836" y="509.205" type="curve" smooth="yes"/>
      <point x="347.659" y="464.232"/>
      <point x="314.801" y="435.135"/>
      <point x="283.074" y="416.388" type="curve" smooth="yes"/>
      <point x="255.288" y="399.922"/>
      <point x="225.401" y="387.538"/>
      <point x="194.369" y="380.286" type="curve" smooth="yes"/>
      <point x="191.408" y="379.516"/>
      <point x="189.609" y="376.702"/>
      <point x="189.609" y="375.145" type="curve" smooth="yes"/>
      <point x="189.609" y="374.923"/>
      <point x="189.64" y="374.691"/>
      <point x="189.7" y="374.434" type="curve" smooth="yes"/>
      <point x="207.76" y="297.18" type="line" smooth="yes"/>
      <point x="208.418" y="294.217"/>
      <point x="209.811" y="293.499"/>
      <point x="211.969" y="293.499" type="curve" smooth="yes"/>
      <point x="212.386" y="293.499"/>
      <point x="212.863" y="293.547"/>
      <point x="213.378" y="293.661" type="curve" smooth="yes"/>
      <point x="225.746" y="297.394"/>
      <point x="238.619" y="299.254"/>
      <point x="251.621" y="299.254" type="curve" smooth="yes"/>
      <point x="315.685" y="299.254"/>
      <point x="375.996" y="258.604"/>
      <point x="375.996" y="194.004" type="curve" smooth="yes"/>
      <point x="375.996" y="127.854"/>
      <point x="308.745" y="87.5566"/>
      <point x="242.939" y="88.3643" type="curve" smooth="yes"/>
      <point x="223.086" y="88.3643"/>
      <point x="202.306" y="91.3584"/>
      <point x="183.835" y="97.5156" type="curve" smooth="yes"/>
      <point x="125.877" y="116.835"/>
      <point x="80.0264" y="160.453"/>
      <point x="51.9824" y="211.967" type="curve"/>
      <point x="24.7715" y="85.8877" type="line" smooth="yes"/>
      <point x="24.6279" y="85.2227"/>
      <point x="24.4814" y="84.585"/>
      <point x="24.4814" y="83.5156" type="curve" smooth="yes"/>
      <point x="24.4814" y="78.2363"/>
      <point x="27.8936" y="72.7168"/>
      <point x="30.29" y="70.7725" type="curve" smooth="yes"/>
      <point x="78.4268" y="31.7188"/>
      <point x="139.53" y="9.74316"/>
      <point x="201.151" y="9.74316" type="curve" smooth="yes"/>
      <point x="289.663" y="9.74316"/>
      <point x="355.725" y="49.375"/>
      <point x="392.5" y="106.277" type="curve" smooth="yes"/>
      <point x="411.582" y="138.14"/>
      <point x="420.329" y="171.237"/>
      <point x="420.329" y="211.227" type="curve" smooth="yes"/>
      <point x="420.329" y="285.071"/>
      <point x="376.121" y="331.874"/>
      <point x="322.1" y="354.792" type="curve" smooth="yes"/>
      <point x="318.515" y="356.312"/>
      <point x="315.998" y="359.865"/>
      <point x="315.998" y="364.002" type="curve" smooth="yes"/>
      <point x="315.998" y="367.162"/>
      <point x="317.467" y="369.981"/>
      <point x="319.758" y="371.814" type="curve" smooth="yes"/>
      <point x="353.426" y="398.749"/>
      <point x="385.783" y="439.34"/>
      <point x="401.582" y="481.38" type="curve" smooth="yes"/>
      <point x="407.798" y="499.505"/>
      <point x="411.294" y="518.983"/>
    </contour>
  </outline>
</glyph>
<glyph name="five" format="2">
  <advance width="449"/>
  <unicode hex="0035"/>
  <outline>
    <contour>
      <point x="117" y="411" type="curve"/>
      <point x="150.219" y="449.464"/>
      <point x="199.183" y="488.999"/>
      <point x="265" y="488.999" type="curve" smooth="yes"/>
      <point x="331.357" y="488.999"/>
      <point x="378.981" y="448.027"/>
      <point x="407" y="405.999" type="curve" smooth="yes"/>
      <point x="462.79" y="319.614"/>
      <point x="451.027" y="193.438"/>
      <point x="403" y="112" type="curve" smooth="yes"/>
      <point x="380" y="73"/>
      <point x="346" y="40"/>
      <point x="306" y="20" type="curve" smooth="yes"/>
      <point x="248" y="-9"/>
      <point x="178" y="-10"/>
      <point x="116" y="9" type="curve" smooth="yes"/>
      <point x="81" y="20"/>
      <point x="48" y="37"/>
      <point x="18" y="59" type="curve" smooth="yes"/>
      <point x="12" y="63"/>
      <point x="10" y="72"/>
      <point x="12" y="79" type="curve" smooth="yes"/>
      <point x="45" y="179" type="line" smooth="yes"/>
      <point x="48" y="186"/>
      <point x="52" y="186"/>
      <point x="55" y="180" type="curve" smooth="yes"/>
      <point x="81.8428" y="130.789"/>
      <point x="137.394" y="85.1689"/>
      <point x="211" y="88" type="curve" smooth="yes"/>
      <point x="278.103" y="88"/>
      <point x="326.894" y="130.292"/>
      <point x="348" y="179" type="curve" smooth="yes"/>
      <point x="390.297" y="273.355"/>
      <point x="327.221" y="380"/>
      <point x="233" y="380" type="curve" smooth="yes"/>
      <point x="180.262" y="378.047"/>
      <point x="138.77" y="340.387"/>
      <point x="128" y="293.001" type="curve" smooth="yes"/>
      <point x="127" y="286.001"/>
      <point x="122" y="283.001"/>
      <point x="116" y="287.001" type="curve" smooth="yes"/>
      <point x="38" y="337.001" type="line" smooth="yes"/>
      <point x="32" y="341.001"/>
      <point x="29" y="350.001"/>
      <point x="30" y="357.001" type="curve" smooth="yes"/>
      <point x="48.2803" y="452.971"/>
      <point x="58.2383" y="562.759"/>
      <point x="60" y="672" type="curve" smooth="yes"/>
      <point x="60" y="680"/>
      <point x="67" y="685"/>
      <point x="75" y="683" type="curve" smooth="yes"/>
      <point x="194.221" y="653.194"/>
      <point x="311.955" y="662.366"/>
      <point x="418" y="699" type="curve" smooth="yes"/>
      <point x="425" y="702"/>
      <point x="431" y="698"/>
      <point x="431" y="691" type="curve" smooth="yes"/>
      <point x="443" y="593" type="line" smooth="yes"/>
      <point x="444" y="586"/>
      <point x="439" y="579"/>
      <point x="432" y="578" type="curve" smooth="yes"/>
      <point x="343.031" y="562.065"/>
      <point x="241.363" y="568.691"/>
      <point x="167" y="591" type="curve"/>
      <point x="137.43" y="537.492"/>
      <point x="120.576" y="482.521"/>
    </contour>
    <contour>
      <point x="205.372" y="77.8916" type="curve" smooth="yes"/>
      <point x="133.764" y="77.8916"/>
      <point x="80.3428" y="119.723"/>
      <point x="51.3701" y="166.38" type="curve"/>
      <point x="21.5771" y="76.0977" type="line" smooth="yes"/>
      <point x="21.376" y="75.335"/>
      <point x="21.2529" y="74.416"/>
      <point x="21.2529" y="73.4854" type="curve" smooth="yes"/>
      <point x="21.2529" y="69.7129"/>
      <point x="22.9033" y="67.8066"/>
      <point x="23.9072" y="67.0703" type="curve" smooth="yes"/>
      <point x="70.1855" y="33.1328"/>
      <point x="126.241" y="6.21777"/>
      <point x="200.166" y="6.21777" type="curve" smooth="yes"/>
      <point x="293.328" y="6.21777"/>
      <point x="357.9" y="55.21"/>
      <point x="394.382" y="117.07" type="curve" smooth="yes"/>
      <point x="420.776" y="161.826"/>
      <point x="433.299" y="210.641"/>
      <point x="433.299" y="270.307" type="curve" smooth="yes"/>
      <point x="433.299" y="316.609"/>
      <point x="423.002" y="362.762"/>
      <point x="398.635" y="400.524" type="curve" smooth="yes"/>
      <point x="372.021" y="440.42"/>
      <point x="327.377" y="479"/>
      <point x="265.002" y="479" type="curve" smooth="yes"/>
      <point x="202.839" y="479"/>
      <point x="156.164" y="441.05"/>
      <point x="124.571" y="404.469" type="curve" smooth="yes"/>
      <point x="122.737" y="402.345"/>
      <point x="120.025" y="401"/>
      <point x="117.002" y="401" type="curve" smooth="yes"/>
      <point x="111.482" y="401"/>
      <point x="107.002" y="405.48"/>
      <point x="107.002" y="411" type="curve" smooth="yes"/>
      <point x="107.002" y="431.366"/>
      <point x="110.11" y="451.541"/>
      <point x="114.196" y="471.969" type="curve" smooth="yes"/>
      <point x="122.372" y="514.892"/>
      <point x="136.68" y="556.807"/>
      <point x="158.243" y="595.826" type="curve" smooth="yes"/>
      <point x="159.947" y="598.91"/>
      <point x="163.232" y="601"/>
      <point x="167.002" y="601" type="curve" smooth="yes"/>
      <point x="168.001" y="601"/>
      <point x="168.966" y="600.854"/>
      <point x="169.876" y="600.58" type="curve" smooth="yes"/>
      <point x="214.852" y="587.087"/>
      <point x="272.649" y="578.87"/>
      <point x="328.283" y="578.87" type="curve" smooth="yes"/>
      <point x="362.436" y="578.87"/>
      <point x="396.597" y="581.818"/>
      <point x="430.229" y="587.842" type="curve" smooth="yes"/>
      <point x="431.523" y="588.073"/>
      <point x="433.129" y="589.264"/>
      <point x="433.129" y="591.201" type="curve" smooth="yes"/>
      <point x="433.129" y="591.323"/>
      <point x="433.116" y="591.447"/>
      <point x="433.101" y="591.573" type="curve" smooth="yes"/>
      <point x="421.11" y="689.49" type="line"/>
      <point x="365.342" y="670.239"/>
      <point x="306.51" y="658.062"/>
      <point x="247.525" y="655.012" type="curve" smooth="yes"/>
      <point x="240.11" y="655.012"/>
      <point x="232.675" y="654.623"/>
      <point x="225.255" y="654.623" type="curve" smooth="yes"/>
      <point x="173.712" y="654.623"/>
      <point x="122.373" y="660.846"/>
      <point x="72.5713" y="673.296" type="curve" smooth="yes"/>
      <point x="72.1377" y="673.404"/>
      <point x="71.7773" y="673.439"/>
      <point x="71.5059" y="673.439" type="curve" smooth="yes"/>
      <point x="70.166" y="673.439"/>
      <point x="70" y="673.228"/>
      <point x="70" y="671.998" type="curve" smooth="yes"/>
      <point x="70" y="562.226"/>
      <point x="58.1885" y="451.652"/>
      <point x="39.875" y="355.393" type="curve" smooth="yes"/>
      <point x="39.834" y="355.049"/>
      <point x="39.8105" y="354.662"/>
      <point x="39.8105" y="354.249" type="curve" smooth="yes"/>
      <point x="39.8105" y="350.44"/>
      <point x="42.0547" y="346.366"/>
      <point x="43.4932" y="345.355" type="curve" smooth="yes"/>
      <point x="118.701" y="297.146" type="line"/>
      <point x="130.646" y="346.261"/>
      <point x="176.058" y="390"/>
      <point x="233.001" y="390" type="curve" smooth="yes"/>
      <point x="313.318" y="390"/>
      <point x="370.676" y="321.439"/>
      <point x="370.676" y="239.69" type="curve" smooth="yes"/>
      <point x="370.676" y="173.415"/>
      <point x="334.18" y="124.611"/>
      <point x="290.015" y="99.3467" type="curve" smooth="yes"/>
      <point x="264.379" y="84.2158"/>
      <point x="236.898" y="77.9326"/>
    </contour>
  </outline>
</glyph>
<glyph name="eight" format="2">
  <advance width="424"/>
  <unicode hex="0038"/>
  <outline>
    <contour>
      <point x="296" y="350" type="curve" smooth="yes"/>
      <point x="286.998" y="343.999" type="line"/>
      <point x="342.406" y="312.682"/>
      <point x="402.842" y="263.097"/>
      <point x="412.999" y="191.999" type="curve" smooth="yes"/>
      <point x="429.193" y="104.087"/>
      <point x="363.299" y="32.6152"/>
      <point x="299.999" y="7.99902" type="curve" smooth="yes"/>
      <point x="235.999" y="-19.001"/>
      <point x="158.999" y="-12.001"/>
      <point x="99.999" y="24.999" type="curve" smooth="yes"/>
      <point x="54.0947" y="53.9014"/>
      <point x="5.79492" y="110.364"/>
      <point x="14.999" y="183.999" type="curve" smooth="yes"/>
      <point x="21.6338" y="239.291"/>
      <point x="58.8252" y="280.423"/>
      <point x="92.999" y="311" type="curve" smooth="yes"/>
      <point x="104.999" y="321"/>
      <point x="116.999" y="331"/>
      <point x="129.999" y="340" type="curve"/>
      <point x="67.6768" y="371.161"/>
      <point x="25.958" y="428.943"/>
      <point x="32.999" y="524" type="curve" smooth="yes"/>
      <point x="37.999" y="573"/>
      <point x="58.999" y="620"/>
      <point x="94.999" y="655" type="curve" smooth="yes"/>
      <point x="164.513" y="724.514"/>
      <point x="276.977" y="723.425"/>
      <point x="343" y="653" type="curve" smooth="yes"/>
      <point x="395.496" y="596.884"/>
      <point x="409.093" y="506.469"/>
      <point x="369" y="431" type="curve" smooth="yes"/>
      <point x="352" y="398"/>
      <point x="327" y="370"/>
    </contour>
    <contour>
      <point x="213.998" y="613.999" type="curve" smooth="yes"/>
      <point x="157.35" y="616.097"/>
      <point x="101.998" y="572.752"/>
      <point x="101.998" y="515.999" type="curve" smooth="yes"/>
      <point x="99.7168" y="474.941"/>
      <point x="126.433" y="442.198"/>
      <point x="149.998" y="422" type="curve" smooth="yes"/>
      <point x="167.998" y="407"/>
      <point x="188.998" y="395"/>
      <point x="209.998" y="384" type="curve"/>
      <point x="253.816" y="404.224"/>
      <point x="297.23" y="426.422"/>
      <point x="315.998" y="471.999" type="curve" smooth="yes"/>
      <point x="346.551" y="546.198"/>
      <point x="287.428" y="613.999"/>
    </contour>
    <contour>
      <point x="104.998" y="183.999" type="curve" smooth="yes"/>
      <point x="104.998" y="91.0723"/>
      <point x="239.909" y="64.9248"/>
      <point x="302.996" y="118.999" type="curve" smooth="yes"/>
      <point x="320.602" y="134.844"/>
      <point x="338.257" y="159.357"/>
      <point x="335.997" y="191" type="curve" smooth="yes"/>
      <point x="335.997" y="221.76"/>
      <point x="315.7" y="248.698"/>
      <point x="296.997" y="264" type="curve" smooth="yes"/>
      <point x="272.805" y="284.894"/>
      <point x="242.201" y="298.266"/>
      <point x="212.998" y="308" type="curve"/>
      <point x="173.495" y="288.248"/>
      <point x="133.034" y="267.245"/>
      <point x="113.998" y="225.999" type="curve" smooth="yes"/>
      <point x="107.998" y="212.999"/>
      <point x="103.998" y="198.999"/>
    </contour>
    <contour>
      <point x="209.93" y="624.074" type="curve" smooth="yes"/>
      <point x="276.668" y="624.074"/>
      <point x="334.155" y="578.748"/>
      <point x="334.155" y="511.731" type="curve" smooth="yes"/>
      <point x="334.155" y="432.82"/>
      <point x="268.057" y="399.779"/>
      <point x="214.179" y="374.913" type="curve" smooth="yes"/>
      <point x="212.906" y="374.326"/>
      <point x="211.489" y="373.998"/>
      <point x="209.997" y="373.998" type="curve" smooth="yes"/>
      <point x="208.327" y="373.998"/>
      <point x="206.752" y="374.408"/>
      <point x="205.367" y="375.134" type="curve" smooth="yes"/>
      <point x="166.09" y="395.708"/>
      <point x="128.17" y="420.182"/>
      <point x="106.274" y="459.106" type="curve" smooth="yes"/>
      <point x="97.3164" y="475.032"/>
      <point x="91.8701" y="492.957"/>
      <point x="91.8701" y="511.436" type="curve" smooth="yes"/>
      <point x="91.8701" y="575.86"/>
      <point x="146.142" y="624.074"/>
    </contour>
    <contour>
      <point x="218.303" y="697.293" type="curve" smooth="yes"/>
      <point x="117.772" y="697.293"/>
      <point x="42.2617" y="604.265"/>
      <point x="42.2617" y="504.208" type="curve" smooth="yes"/>
      <point x="42.2617" y="423.512"/>
      <point x="79.2324" y="376.56"/>
      <point x="134.46" y="348.946" type="curve" smooth="yes"/>
      <point x="137.742" y="347.306"/>
      <point x="139.998" y="343.912"/>
      <point x="139.998" y="339.996" type="curve" smooth="yes"/>
      <point x="139.998" y="336.587"/>
      <point x="138.288" y="333.574"/>
      <point x="135.68" y="331.769" type="curve" smooth="yes"/>
      <point x="103.668" y="309.606"/>
      <point x="71.2451" y="281.331"/>
      <point x="50.4404" y="248.638" type="curve" smooth="yes"/>
      <point x="34.8867" y="224.196"/>
      <point x="23.9727" y="200.605"/>
      <point x="23.9727" y="167.424" type="curve" smooth="yes"/>
      <point x="23.9727" y="104.475"/>
      <point x="64.665" y="59.0586"/>
      <point x="105.314" y="33.4648" type="curve" smooth="yes"/>
      <point x="138.633" y="12.5703"/>
      <point x="178.183" y="1.65625"/>
      <point x="217.525" y="1.65625" type="curve" smooth="yes"/>
      <point x="291.861" y="1.65625"/>
      <point x="349.29" y="37.7617"/>
      <point x="380.592" y="85.4141" type="curve" smooth="yes"/>
      <point x="396.113" y="109.828"/>
      <point x="405.215" y="138.978"/>
      <point x="405.215" y="167.302" type="curve" smooth="yes"/>
      <point x="405.215" y="251.427"/>
      <point x="340.181" y="302.45"/>
      <point x="282.088" y="335.285" type="curve" smooth="yes"/>
      <point x="279.05" y="337.002"/>
      <point x="276.997" y="340.262"/>
      <point x="276.997" y="343.997" type="curve" smooth="yes"/>
      <point x="276.997" y="347.469"/>
      <point x="278.771" y="350.53"/>
      <point x="281.46" y="352.323" type="curve" smooth="yes"/>
      <point x="290.46" y="358.323" type="line" smooth="yes"/>
      <point x="290.502" y="358.323"/>
      <point x="290.544" y="358.379"/>
      <point x="290.586" y="358.406" type="curve" smooth="yes"/>
      <point x="338.377" y="389.239"/>
      <point x="382.567" y="448.61"/>
      <point x="382.567" y="522.831" type="curve" smooth="yes"/>
      <point x="382.567" y="618.235"/>
      <point x="312.396" y="697.293"/>
    </contour>
    <contour>
      <point x="140.376" y="103.726" type="line"/>
      <point x="115.286" y="120.489"/>
      <point x="94.8398" y="149.571"/>
      <point x="94.8398" y="188.611" type="curve" smooth="yes"/>
      <point x="94.8398" y="203.824"/>
      <point x="99.1475" y="217.699"/>
      <point x="104.908" y="230.181" type="curve" smooth="yes"/>
      <point x="124.319" y="272.238"/>
      <point x="166.431" y="297.436"/>
      <point x="206.67" y="316.018" type="curve" smooth="yes"/>
      <point x="208.475" y="316.92"/>
      <point x="210.491" y="317.998"/>
      <point x="212.994" y="317.998" type="curve" smooth="yes"/>
      <point x="217.795" y="317.998"/>
      <point x="221.692" y="315.915"/>
      <point x="226.366" y="313.067" type="curve" smooth="yes"/>
      <point x="252.508" y="303.945"/>
      <point x="280.188" y="291.649"/>
      <point x="303.32" y="271.74" type="curve" smooth="yes"/>
      <point x="326.232" y="252.994"/>
      <point x="346.185" y="224.507"/>
      <point x="346.185" y="185.709" type="curve" smooth="yes"/>
      <point x="346.185" y="152.979"/>
      <point x="328.176" y="127.412"/>
      <point x="309.498" y="111.402" type="curve" smooth="yes"/>
      <point x="283.979" y="89.5293"/>
      <point x="253.678" y="80.6641"/>
      <point x="217.601" y="80.6641" type="curve" smooth="yes"/>
      <point x="190.594" y="80.6641"/>
      <point x="162.773" y="88.1738"/>
      <point x="140.295" y="103.782" type="curve"/>
    </contour>
    <contour>
      <point x="227.535" y="81.0127" type="curve"/>
      <point x="227.714" y="81.0244" type="line"/>
      <point x="227.654" y="81.0205"/>
      <point x="227.595" y="81.0166"/>
    </contour>
    <contour>
      <point x="345.991" y="191.363" type="curve"/>
      <point x="345.967" y="191.721" type="line"/>
      <point x="345.976" y="191.602"/>
      <point x="345.983" y="191.482"/>
    </contour>
    <contour>
      <point x="226.364" y="313.068" type="curve"/>
      <point x="225.261" y="313.451" type="line"/>
      <point x="225.628" y="313.324"/>
      <point x="225.996" y="313.196"/>
    </contour>
    <contour>
      <point x="206.668" y="316.018" type="line"/>
      <point x="206.529" y="315.948" type="line"/>
    </contour>
    <contour>
      <point x="94.9922" y="183.658" type="curve"/>
      <point x="95.0137" y="183.324" type="line"/>
      <point x="95.0059" y="183.436"/>
      <point x="94.999" y="183.547"/>
    </contour>
    <contour>
      <point x="214.179" y="623.998" type="line"/>
      <point x="213.991" y="623.998" type="line"/>
    </contour>
    <contour>
      <point x="91.9912" y="516.28" type="line"/>
      <point x="91.9912" y="515.999" type="line"/>
    </contour>
  </outline>
</glyph>
<glyph name="nine" format="2">
  <advance width="419"/>
  <unicode hex="0039"/>
  <outline>
    <contour>
      <point x="389" y="296" type="curve" smooth="yes"/>
      <point x="366" y="190"/>
      <point x="325.002" y="89.002"/>
      <point x="266.002" y="-1.99805" type="curve" smooth="yes"/>
      <point x="260.002" y="-10.998"/>
      <point x="248.002" y="-11.998"/>
      <point x="240.002" y="-5.99805" type="curve" smooth="yes"/>
      <point x="163.002" y="53.002" type="line" smooth="yes"/>
      <point x="155.002" y="59.002"/>
      <point x="155.002" y="69.002"/>
      <point x="164.002" y="75.002" type="curve" smooth="yes"/>
      <point x="247.954" y="132.525"/>
      <point x="312.697" y="224.656"/>
      <point x="324.001" y="349.002" type="curve"/>
      <point x="292.931" y="305.503"/>
      <point x="233.591" y="264.495"/>
      <point x="169.001" y="269.001" type="curve" smooth="yes"/>
      <point x="108.146" y="271.255"/>
      <point x="63.4209" y="311.24"/>
      <point x="38.001" y="353.001" type="curve" smooth="yes"/>
      <point x="-7.45801" y="434.178"/>
      <point x="-2.76172" y="544.951"/>
      <point x="54.001" y="625.001" type="curve" smooth="yes"/>
      <point x="83.4893" y="668.366"/>
      <point x="137.71" y="712.235"/>
      <point x="207" y="710" type="curve" smooth="yes"/>
      <point x="310.024" y="707.854"/>
      <point x="374.998" y="610.312"/>
      <point x="394" y="521" type="curve" smooth="yes"/>
      <point x="410" y="447"/>
      <point x="404" y="370"/>
    </contour>
    <contour>
      <point x="270.002" y="578.002" type="curve" smooth="yes"/>
      <point x="207.997" y="617.685"/>
      <point x="134.553" y="588.411"/>
      <point x="105.003" y="538.003" type="curve" smooth="yes"/>
      <point x="73.9824" y="486.911"/>
      <point x="91.3154" y="423.065"/>
      <point x="126.003" y="393.003" type="curve" smooth="yes"/>
      <point x="149.625" y="369.381"/>
      <point x="190.492" y="355.916"/>
      <point x="234.003" y="368.002" type="curve" smooth="yes"/>
      <point x="271.379" y="380.461"/>
      <point x="303.032" y="409.096"/>
      <point x="315.003" y="447.002" type="curve" smooth="yes"/>
      <point x="335.711" y="503.21"/>
      <point x="306.153" y="554.865"/>
    </contour>
    <contour>
      <point x="202.314" y="700.079" type="curve" smooth="yes"/>
      <point x="138.108" y="700.079"/>
      <point x="90.2559" y="658.844"/>
      <point x="62.1641" y="619.227" type="curve" smooth="yes"/>
      <point x="32.293" y="577.101"/>
      <point x="16.9932" y="525.53"/>
      <point x="16.9932" y="474.091" type="curve" smooth="yes"/>
      <point x="16.9932" y="426.975"/>
      <point x="28.0088" y="391.383"/>
      <point x="46.6436" y="358.035" type="curve" smooth="yes"/>
      <point x="72.3223" y="315.938"/>
      <point x="115.247" y="278.66"/>
      <point x="178.859" y="278.66" type="curve" smooth="yes"/>
      <point x="236.051" y="278.66"/>
      <point x="288.196" y="316.08"/>
      <point x="315.857" y="354.806" type="curve" smooth="yes"/>
      <point x="317.672" y="357.346"/>
      <point x="320.645" y="359.003"/>
      <point x="324.001" y="359.003" type="curve" smooth="yes"/>
      <point x="329.521" y="359.003"/>
      <point x="334.001" y="354.522"/>
      <point x="334.001" y="349.003" type="curve" smooth="yes"/>
      <point x="334.001" y="348.694"/>
      <point x="333.987" y="348.389"/>
      <point x="333.96" y="348.087" type="curve" smooth="yes"/>
      <point x="322.369" y="220.59"/>
      <point x="255.822" y="125.795"/>
      <point x="169.645" y="66.7471" type="curve" smooth="yes"/>
      <point x="167.287" y="65.1318"/>
      <point x="167.122" y="63.9805"/>
      <point x="167.122" y="63.6494" type="curve" smooth="yes"/>
      <point x="167.122" y="63.3389"/>
      <point x="167.204" y="62.3496"/>
      <point x="168.994" y="61.0068" type="curve" smooth="yes"/>
      <point x="246.077" y="1.94434" type="line" smooth="yes"/>
      <point x="247.619" y="0.788086"/>
      <point x="249.51" y="0.220703"/>
      <point x="251.35" y="0.220703" type="curve" smooth="yes"/>
      <point x="253.933" y="0.220703"/>
      <point x="256.138" y="1.25977"/>
      <point x="257.648" y="3.49609" type="curve" smooth="yes"/>
      <point x="315.924" y="93.3965"/>
      <point x="356.46" y="193.223"/>
      <point x="379.217" y="298.063" type="curve" smooth="yes"/>
      <point x="387.897" y="340.906"/>
      <point x="392.97" y="423.194"/>
      <point x="393.486" y="427.896" type="curve" smooth="yes"/>
      <point x="393.486" y="519.188"/>
      <point x="371.419" y="589.578"/>
      <point x="324.575" y="642.312" type="curve" smooth="yes"/>
      <point x="293.011" y="676.811"/>
      <point x="250.196" y="700.079"/>
    </contour>
    <contour>
      <point x="206.645" y="606.284" type="curve" smooth="yes"/>
      <point x="277.627" y="606.284"/>
      <point x="331.341" y="552.497"/>
      <point x="331.341" y="482.949" type="curve" smooth="yes"/>
      <point x="331.341" y="418.109"/>
      <point x="286.862" y="375.08"/>
      <point x="237.162" y="358.514" type="curve" smooth="yes"/>
      <point x="226.156" y="354.845"/>
      <point x="213.549" y="353.534"/>
      <point x="201.722" y="353.534" type="curve" smooth="yes"/>
      <point x="141.227" y="353.534"/>
      <point x="99.373" y="392.777"/>
      <point x="84.4814" y="439.933" type="curve" smooth="yes"/>
      <point x="80.5283" y="452.188"/>
      <point x="78.5977" y="465.073"/>
      <point x="78.5977" y="477.999" type="curve" smooth="yes"/>
      <point x="78.5977" y="551.379"/>
      <point x="135.726" y="606.284"/>
    </contour>
    <contour>
      <point x="96.4463" y="543.181" type="curve"/>
      <point x="96.3662" y="543.047" type="line"/>
      <point x="96.4189" y="543.136"/>
      <point x="96.4326" y="543.158"/>
    </contour>
    <contour>
      <point x="119.186" y="385.677" type="curve"/>
      <point x="119.455" y="385.442" type="line"/>
      <point x="119.365" y="385.521"/>
      <point x="119.275" y="385.599"/>
    </contour>
    <contour>
      <point x="324.467" y="443.769" type="curve"/>
      <point x="324.537" y="443.991" type="line"/>
      <point x="324.514" y="443.917"/>
      <point x="324.49" y="443.843"/>
    </contour>
  </outline>
</glyph>
<glyph name="semicolon" format="2">
	<unicode hex="003B"/>
	<advance width="202"/>
	<outline>
		<contour>
			<point x="107" y="530" type="curve" smooth="yes"/>
			<point x="153.474" y="530"/>
			<point x="194" y="489.479"/>
			<point x="194" y="443" type="curve" smooth="yes"/>
			<point x="194" y="396.526"/>
			<point x="153.479" y="356"/>
			<point x="107" y="356" type="curve" smooth="yes"/>
			<point x="60.5264" y="356"/>
			<point x="20" y="396.521"/>
			<point x="20" y="443" type="curve" smooth="yes"/>
			<point x="20" y="489.474"/>
			<point x="60.5215" y="530"/>
		</contour>
		<contour>
			<point x="43" y="251" type="curve" smooth="yes"/>
			<point x="185" y="288" type="line" smooth="yes"/>
			<point x="191" y="289"/>
			<point x="196" y="285"/>
			<point x="196" y="280" type="curve" smooth="yes"/>
			<point x="199" y="219"/>
			<point x="184" y="157"/>
			<point x="155" y="103" type="curve" smooth="yes"/>
			<point x="141" y="78"/>
			<point x="124" y="55"/>
			<point x="104" y="34" type="curve" smooth="yes"/>
			<point x="100" y="30"/>
			<point x="92" y="27"/>
			<point x="86" y="27" type="curve" smooth="yes"/>
			<point x="13" y="29" type="line" smooth="yes"/>
			<point x="3" y="29"/>
			<point x="1" y="34"/>
			<point x="8" y="41" type="curve" smooth="yes"/>
			<point x="56.7275" y="89.7275"/>
			<point x="74.6289" y="168.185"/>
			<point x="38" y="239" type="curve" smooth="yes"/>
			<point x="35" y="244"/>
			<point x="37" y="249"/>
		</contour>
		<contour>
			<point x="67.6816" y="159.065" type="curve" smooth="yes"/>
			<point x="67.6816" y="110.562"/>
			<point x="49.6953" y="71.124"/>
			<point x="19.7734" y="38.8193" type="curve"/>
			<point x="86.1045" y="37.002" type="line" smooth="yes"/>
			<point x="89.2598" y="37.0576"/>
			<point x="95.3398" y="39.5693"/>
			<point x="96.875" y="41.0166" type="curve" smooth="yes"/>
			<point x="116.236" y="61.3662"/>
			<point x="132.67" y="83.6074"/>
			<point x="146.226" y="107.8" type="curve" smooth="yes"/>
			<point x="172.007" y="155.837"/>
			<point x="183.045" y="251.578"/>
			<point x="186.377" y="264.592" type="curve" smooth="yes"/>
			<point x="186.377" y="269.047"/>
			<point x="186.28" y="273.5"/>
			<point x="186.085" y="277.947" type="curve"/>
			<point x="47.748" y="241.901" type="line"/>
			<point x="60.625" y="216.384"/>
			<point x="67.6816" y="188.014"/>
		</contour>
		<contour>
			<point x="106.999" y="366" type="curve" smooth="yes"/>
			<point x="147.852" y="366"/>
			<point x="183.999" y="402.141"/>
			<point x="183.999" y="443" type="curve" smooth="yes"/>
			<point x="183.999" y="483.853"/>
			<point x="147.858" y="520"/>
			<point x="106.999" y="520" type="curve" smooth="yes"/>
			<point x="66.1465" y="520"/>
			<point x="29.999" y="483.859"/>
			<point x="29.999" y="443" type="curve" smooth="yes"/>
			<point x="29.999" y="402.147"/>
			<point x="66.1396" y="366"/>
		</contour>
	</outline>
</glyph>
<glyph name="less" format="2">
  <advance width="409"/>
  <unicode hex="003C"/>
  <outline>
    <contour>
      <point x="370" y="608" type="curve" smooth="yes"/>
      <point x="371" y="503.001" type="line" smooth="yes"/>
      <point x="371" y="496.001"/>
      <point x="367" y="490.001"/>
      <point x="362" y="486.001" type="curve" smooth="yes"/>
      <point x="144" y="334.001" type="line" smooth="yes"/>
      <point x="142" y="332.001"/>
      <point x="140" y="330.001"/>
      <point x="140" y="328.001" type="curve" smooth="yes"/>
      <point x="141" y="325.001"/>
      <point x="142" y="323.001"/>
      <point x="144" y="322.001" type="curve" smooth="yes"/>
      <point x="362" y="190.001" type="line" smooth="yes"/>
      <point x="368" y="186.001"/>
      <point x="372" y="180.001"/>
      <point x="372" y="173.001" type="curve" smooth="yes"/>
      <point x="371" y="76.001" type="line" smooth="yes"/>
      <point x="371" y="72.1787"/>
      <point x="366.627" y="68.6875"/>
      <point x="362" y="71.001" type="curve" smooth="yes"/>
      <point x="18" y="318.001" type="line" smooth="yes"/>
      <point x="15" y="320.001"/>
      <point x="13" y="323.001"/>
      <point x="13" y="327.001" type="curve" smooth="yes"/>
      <point x="13" y="331.001"/>
      <point x="15" y="334.001"/>
      <point x="18" y="337.001" type="curve" smooth="yes"/>
      <point x="361" y="613.001" type="line" smooth="yes"/>
      <point x="365.622" y="615.312"/>
      <point x="370" y="611.825"/>
    </contour>
    <contour>
      <point x="130" y="328.001" type="curve" smooth="yes"/>
      <point x="130" y="334.975"/>
      <point x="134.729" y="339.727"/>
      <point x="138.291" y="342.21" type="curve" smooth="yes"/>
      <point x="355.989" y="494" type="line" smooth="yes"/>
      <point x="359.202" y="496.657"/>
      <point x="361.001" y="500.041"/>
      <point x="361.001" y="503.001" type="curve" smooth="yes"/>
      <point x="360.082" y="599.428" type="line"/>
      <point x="24.7051" y="329.562" type="line" smooth="yes"/>
      <point x="22.8242" y="327.64"/>
      <point x="22.3184" y="326.999"/>
      <point x="22.3691" y="326.799" type="curve" smooth="yes"/>
      <point x="22.5039" y="326.799"/>
      <point x="22.8672" y="327.022"/>
      <point x="23.001" y="327" type="curve" smooth="yes"/>
      <point x="23.001" y="326.621"/>
      <point x="23.2402" y="326.548"/>
      <point x="23.8242" y="326.128" type="curve" smooth="yes"/>
      <point x="361.082" y="83.9688" type="line"/>
      <point x="362" y="173.042" type="line" smooth="yes"/>
      <point x="361.985" y="175.933"/>
      <point x="360.42" y="178.979"/>
      <point x="356.626" y="181.564" type="curve" smooth="yes"/>
      <point x="139.098" y="313.279" type="line" smooth="yes"/>
      <point x="132.854" y="316.643"/>
      <point x="130" y="322.748"/>
    </contour>
  </outline>
</glyph>
<glyph name="equal" format="2">
	<unicode hex="003D"/>
	<advance width="509"/>
	<outline>
		<contour>
			<point x="33" y="513" type="curve" smooth="yes"/>
			<point x="481.001" y="519" type="line" smooth="yes"/>
			<point x="489.657" y="519"/>
			<point x="497.955" y="509.818"/>
			<point x="496" y="502" type="curve" smooth="yes"/>
			<point x="484" y="414" type="line" smooth="yes"/>
			<point x="482" y="404"/>
			<point x="474" y="396"/>
			<point x="464" y="396" type="curve" smooth="yes"/>
			<point x="18" y="398" type="line" smooth="yes"/>
			<point x="7.60449" y="398"/>
			<point x="2" y="406.035"/>
			<point x="2" y="416" type="curve" smooth="yes"/>
			<point x="13" y="495" type="line" smooth="yes"/>
			<point x="14" y="505"/>
			<point x="23" y="513"/>
		</contour>
		<contour>
			<point x="35.001" y="326" type="curve" smooth="yes"/>
			<point x="480" y="328" type="line" smooth="yes"/>
			<point x="488.071" y="328"/>
			<point x="496.966" y="318.861"/>
			<point x="495.001" y="311" type="curve" smooth="yes"/>
			<point x="484.001" y="229" type="line" smooth="yes"/>
			<point x="483.001" y="219"/>
			<point x="474.001" y="212"/>
			<point x="464.001" y="212" type="curve" smooth="yes"/>
			<point x="16.001" y="207" type="line" smooth="yes"/>
			<point x="7.03516" y="207"/>
			<point x="0.112305" y="215.555"/>
			<point x="2.00098" y="225" type="curve" smooth="yes"/>
			<point x="15.001" y="308" type="line" smooth="yes"/>
			<point x="16.001" y="318"/>
			<point x="25.001" y="326"/>
		</contour>
		<contour>
			<point x="485.231" y="313.147" type="curve" smooth="yes"/>
			<point x="484.774" y="314.446"/>
			<point x="482.085" y="317.999"/>
			<point x="480" y="317.999" type="curve" smooth="yes"/>
			<point x="35.0459" y="315.999" type="line" smooth="yes"/>
			<point x="29.6436" y="315.999"/>
			<point x="25.6689" y="311.483"/>
			<point x="24.8789" y="306.442" type="curve" smooth="yes"/>
			<point x="11.8789" y="223.442" type="line" smooth="yes"/>
			<point x="11.7773" y="222.794"/>
			<point x="11.625" y="221.863"/>
			<point x="11.625" y="221.422" type="curve" smooth="yes"/>
			<point x="11.625" y="219.064"/>
			<point x="14.3691" y="217.037"/>
			<point x="15.9727" y="217" type="curve" smooth="yes"/>
			<point x="464" y="222" type="line" smooth="yes"/>
			<point x="469.922" y="222"/>
			<point x="473.495" y="225.916"/>
			<point x="474.089" y="230.34" type="curve" smooth="yes"/>
			<point x="485.089" y="312.34" type="line" smooth="yes"/>
			<point x="485.125" y="312.612"/>
			<point x="485.173" y="312.882"/>
		</contour>
		<contour>
			<point x="486.231" y="504.146" type="curve" smooth="yes"/>
			<point x="485.931" y="505.002"/>
			<point x="484.293" y="508.939"/>
			<point x="481.039" y="508.999" type="curve" smooth="yes"/>
			<point x="32.999" y="502.998" type="line" smooth="yes"/>
			<point x="27.7686" y="502.998"/>
			<point x="23.5928" y="498.563"/>
			<point x="22.9033" y="493.609" type="curve" smooth="yes"/>
			<point x="12.0049" y="415.336" type="line" smooth="yes"/>
			<point x="12.0811" y="410.841"/>
			<point x="13.5908" y="407.998"/>
			<point x="18" y="407.998" type="curve" smooth="yes"/>
			<point x="464.046" y="405.998" type="line" smooth="yes"/>
			<point x="468.267" y="405.998"/>
			<point x="472.801" y="409.546"/>
			<point x="474.139" y="415.701" type="curve" smooth="yes"/>
			<point x="486.092" y="503.359" type="line" smooth="yes"/>
			<point x="486.128" y="503.625"/>
			<point x="486.175" y="503.888"/>
		</contour>
	</outline>
</glyph>
<glyph name="question" format="2">
  <advance width="323"/>
  <unicode hex="003F"/>
  <outline>
    <contour>
      <point x="91" y="486" type="curve" smooth="yes"/>
      <point x="27" y="451" type="line" smooth="yes"/>
      <point x="19" y="447"/>
      <point x="10" y="451"/>
      <point x="8" y="460" type="curve" smooth="yes"/>
      <point x="2" y="493"/>
      <point x="3" y="527"/>
      <point x="12" y="559" type="curve" smooth="yes"/>
      <point x="28.2588" y="625.662"/>
      <point x="76.1465" y="684.183"/>
      <point x="148" y="698.001" type="curve" smooth="yes"/>
      <point x="226.006" y="712.446"/>
      <point x="285.73" y="665.962"/>
      <point x="308" y="614" type="curve" smooth="yes"/>
      <point x="324" y="580"/>
      <point x="325" y="539"/>
      <point x="310" y="503" type="curve" smooth="yes"/>
      <point x="299" y="474"/>
      <point x="278" y="450"/>
      <point x="258" y="426" type="curve" smooth="yes"/>
      <point x="227.262" y="385.555"/>
      <point x="201.557" y="344.552"/>
      <point x="220" y="279.999" type="curve" smooth="yes"/>
      <point x="225" y="263.999"/>
      <point x="233" y="248.999"/>
      <point x="242" y="234.999" type="curve" smooth="yes"/>
      <point x="245" y="230.999"/>
      <point x="243" y="226.999"/>
      <point x="238" y="226.999" type="curve" smooth="yes"/>
      <point x="131" y="213.999" type="line" smooth="yes"/>
      <point x="125" y="213.999"/>
      <point x="117" y="217.999"/>
      <point x="115" y="222.999" type="curve" smooth="yes"/>
      <point x="88.0713" y="289.098"/>
      <point x="118.741" y="341.572"/>
      <point x="151" y="381" type="curve" smooth="yes"/>
      <point x="179.447" y="415.769"/>
      <point x="212.244" y="446.666"/>
      <point x="232" y="489" type="curve" smooth="yes"/>
      <point x="249.101" y="531.751"/>
      <point x="236.087" y="575.094"/>
      <point x="205" y="598" type="curve" smooth="yes"/>
      <point x="157.04" y="629.174"/>
      <point x="100.916" y="601.438"/>
      <point x="88" y="559" type="curve" smooth="yes"/>
      <point x="83" y="540"/>
      <point x="85" y="518"/>
      <point x="95" y="501" type="curve" smooth="yes"/>
      <point x="98" y="495"/>
      <point x="96" y="489"/>
    </contour>
    <contour>
      <point x="253" y="82" type="curve" smooth="yes"/>
      <point x="253" y="38"/>
      <point x="219" y="2"/>
      <point x="177" y="2" type="curve" smooth="yes"/>
      <point x="135" y="2"/>
      <point x="101" y="38"/>
      <point x="101" y="82" type="curve" smooth="yes"/>
      <point x="101" y="127"/>
      <point x="135" y="163"/>
      <point x="177" y="163" type="curve" smooth="yes"/>
      <point x="219" y="163"/>
      <point x="253" y="127"/>
    </contour>
    <contour>
      <point x="243" y="82" type="curve" smooth="yes"/>
      <point x="243" y="122.025"/>
      <point x="212.969" y="153"/>
      <point x="177" y="153" type="curve" smooth="yes"/>
      <point x="141.031" y="153"/>
      <point x="111" y="122.025"/>
      <point x="111" y="82" type="curve" smooth="yes"/>
      <point x="111" y="43.0693"/>
      <point x="140.976" y="12"/>
      <point x="177" y="12" type="curve" smooth="yes"/>
      <point x="213.024" y="12"/>
      <point x="243" y="43.0693"/>
    </contour>
    <contour>
      <point x="159.583" y="621.408" type="curve" smooth="yes"/>
      <point x="213.657" y="621.408"/>
      <point x="249.618" y="578.236"/>
      <point x="249.618" y="527.373" type="curve" smooth="yes"/>
      <point x="249.618" y="489.699"/>
      <point x="231.349" y="462.449"/>
      <point x="213.918" y="439.893" type="curve" smooth="yes"/>
      <point x="196.58" y="417.456"/>
      <point x="176.616" y="396.519"/>
      <point x="158.743" y="374.674" type="curve" smooth="yes"/>
      <point x="135.296" y="346.017"/>
      <point x="114.48" y="319.345"/>
      <point x="114.48" y="275.168" type="curve" smooth="yes"/>
      <point x="114.48" y="258.91"/>
      <point x="117.91" y="242.428"/>
      <point x="124.195" y="226.941" type="curve" smooth="yes"/>
      <point x="124.762" y="226.351"/>
      <point x="128.462" y="224.28"/>
      <point x="130.599" y="224.026" type="curve" smooth="yes"/>
      <point x="229.554" y="236.049" type="line"/>
      <point x="215.494" y="259.232"/>
      <point x="203.178" y="288.396"/>
      <point x="203.178" y="323.994" type="curve" smooth="yes"/>
      <point x="203.178" y="428.236"/>
      <point x="310.651" y="452.679"/>
      <point x="310.651" y="556.493" type="curve" smooth="yes"/>
      <point x="310.651" y="619.206"/>
      <point x="270.226" y="663.409"/>
      <point x="223.497" y="681.631" type="curve" smooth="yes"/>
      <point x="207.674" y="687.312"/>
      <point x="191.079" y="690.408"/>
      <point x="174.317" y="690.408" type="curve" smooth="yes"/>
      <point x="87.3926" y="690.408"/>
      <point x="40.5127" y="623.437"/>
      <point x="21.6279" y="556.29" type="curve" smooth="yes"/>
      <point x="16.6328" y="538.53"/>
      <point x="14.2178" y="520.072"/>
      <point x="14.2178" y="501.507" type="curve" smooth="yes"/>
      <point x="14.2178" y="495.171"/>
      <point x="14.3447" y="459.449"/>
      <point x="20.627" y="459.449" type="curve" smooth="yes"/>
      <point x="21.083" y="459.449"/>
      <point x="21.6943" y="459.552"/>
      <point x="22.4131" y="459.89" type="curve" smooth="yes"/>
      <point x="85.9912" y="494.659" type="line" smooth="yes"/>
      <point x="86.3721" y="494.903"/>
      <point x="86.4521" y="495.008"/>
      <point x="86.4521" y="495.1" type="curve" smooth="yes"/>
      <point x="86.4521" y="495.167"/>
      <point x="86.4092" y="495.227"/>
      <point x="86.4092" y="495.329" type="curve" smooth="yes"/>
      <point x="86.4092" y="495.466"/>
      <point x="86.3828" y="495.797"/>
      <point x="86.1514" y="496.322" type="curve" smooth="yes"/>
      <point x="78.7402" y="509.098"/>
      <point x="75.3652" y="523.836"/>
      <point x="75.3652" y="538.383" type="curve" smooth="yes"/>
      <point x="75.3652" y="586.562"/>
      <point x="111.671" y="621.408"/>
    </contour>
  </outline>
</glyph>
<glyph name="A" format="2">
	<unicode hex="0041"/>
	<advance width="596"/>
	<outline>
		<contour>
			<point x="311" y="784" type="curve" smooth="yes"/>
			<point x="319" y="767"/>
			<point x="326.001" y="750"/>
			<point x="332.001" y="734" type="curve" smooth="yes"/>
			<point x="425.629" y="505.933"/>
			<point x="510.155" y="264.016"/>
			<point x="580.001" y="17" type="curve" smooth="yes"/>
			<point x="582.001" y="8"/>
			<point x="576.001" y="0"/>
			<point x="567.001" y="0" type="curve" smooth="yes"/>
			<point x="462.001" y="0" type="line" smooth="yes"/>
			<point x="452.001" y="0"/>
			<point x="444.001" y="8"/>
			<point x="443.001" y="17" type="curve" smooth="yes"/>
			<point x="438.001" y="110"/>
			<point x="424.001" y="202"/>
			<point x="402.001" y="292" type="curve"/>
			<point x="336.218" y="316.067"/>
			<point x="263.65" y="330.354"/>
			<point x="178" y="325" type="curve"/>
			<point x="151" y="225"/>
			<point x="139" y="121"/>
			<point x="143" y="17" type="curve" smooth="yes"/>
			<point x="143" y="8"/>
			<point x="136" y="0"/>
			<point x="127" y="0" type="curve" smooth="yes"/>
			<point x="39" y="0" type="line" smooth="yes"/>
			<point x="30" y="0"/>
			<point x="24" y="8"/>
			<point x="26" y="17" type="curve" smooth="yes"/>
			<point x="48" y="118"/>
			<point x="73" y="218"/>
			<point x="100" y="317" type="curve"/>
			<point x="84" y="314"/>
			<point x="69" y="311"/>
			<point x="54" y="307" type="curve" smooth="yes"/>
			<point x="44" y="305"/>
			<point x="37" y="311"/>
			<point x="38" y="320" type="curve" smooth="yes"/>
			<point x="45" y="403" type="line" smooth="yes"/>
			<point x="45" y="413"/>
			<point x="54" y="420"/>
			<point x="63" y="420" type="curve" smooth="yes"/>
			<point x="85" y="420"/>
			<point x="106" y="419"/>
			<point x="128" y="419" type="curve"/>
			<point x="156" y="518"/>
			<point x="187" y="617"/>
			<point x="220" y="716" type="curve"/>
			<point x="205" y="739"/>
			<point x="190" y="763"/>
			<point x="175" y="786" type="curve" smooth="yes"/>
			<point x="169" y="794"/>
			<point x="173" y="800"/>
			<point x="182" y="800" type="curve" smooth="yes"/>
			<point x="287" y="800" type="line" smooth="yes"/>
			<point x="297" y="800"/>
			<point x="308" y="793"/>
		</contour>
		<contour>
			<point x="207.001" y="416" type="curve"/>
			<point x="261.474" y="413.524"/>
			<point x="315.838" y="411.078"/>
			<point x="370.001" y="406" type="curve"/>
			<point x="348.504" y="473.178"/>
			<point x="322.864" y="529.898"/>
			<point x="292.001" y="590" type="curve"/>
			<point x="258.001" y="535"/>
			<point x="230.001" y="476"/>
		</contour>
		<contour>
			<point x="197.002" y="416" type="curve" smooth="yes"/>
			<point x="197.002" y="417.259"/>
			<point x="197.235" y="418.465"/>
			<point x="197.661" y="419.575" type="curve" smooth="yes"/>
			<point x="220.846" y="480.058"/>
			<point x="249.099" y="539.615"/>
			<point x="283.489" y="595.248" type="curve" smooth="yes"/>
			<point x="285.252" y="598.1"/>
			<point x="288.406" y="600.001"/>
			<point x="292.001" y="600.001" type="curve" smooth="yes"/>
			<point x="295.879" y="600.001"/>
			<point x="299.244" y="597.789"/>
			<point x="300.902" y="594.56" type="curve" smooth="yes"/>
			<point x="331.808" y="534.375"/>
			<point x="357.962" y="476.439"/>
			<point x="379.527" y="409.049" type="curve" smooth="yes"/>
			<point x="379.835" y="408.088"/>
			<point x="380.001" y="407.064"/>
			<point x="380.001" y="406.002" type="curve" smooth="yes"/>
			<point x="380.001" y="400.482"/>
			<point x="375.521" y="396.002"/>
			<point x="370.001" y="396.002" type="curve" smooth="yes"/>
			<point x="369.683" y="396.002"/>
			<point x="369.368" y="396.017"/>
			<point x="369.058" y="396.046" type="curve" smooth="yes"/>
			<point x="337.224" y="399.03"/>
			<point x="304.956" y="402.043"/>
			<point x="273.086" y="402.043" type="curve" smooth="yes"/>
			<point x="251.393" y="404.015"/>
			<point x="228.664" y="405.007"/>
			<point x="206.541" y="406.011" type="curve" smooth="yes"/>
			<point x="201.235" y="406.252"/>
			<point x="197.002" y="410.636"/>
		</contour>
		<contour>
			<point x="128.002" y="409.001" type="curve" smooth="yes"/>
			<point x="105.931" y="409.001"/>
			<point x="84.9297" y="410"/>
			<point x="62.9971" y="410" type="curve" smooth="yes"/>
			<point x="58.6006" y="410"/>
			<point x="54.9971" y="406.482"/>
			<point x="54.9971" y="403" type="curve" smooth="yes"/>
			<point x="54.9971" y="402.714"/>
			<point x="54.9854" y="402.431"/>
			<point x="54.9619" y="402.15" type="curve" smooth="yes"/>
			<point x="47.9395" y="318.886" type="line" smooth="yes"/>
			<point x="47.915" y="318.668"/>
			<point x="47.9023" y="318.478"/>
			<point x="47.9023" y="318.316" type="curve" smooth="yes"/>
			<point x="47.9023" y="318.132"/>
			<point x="47.8975" y="317.965"/>
			<point x="47.8975" y="317.814" type="curve" smooth="yes"/>
			<point x="47.8975" y="316.921"/>
			<point x="48.0557" y="316.614"/>
			<point x="50.252" y="316.614" type="curve" smooth="yes"/>
			<point x="50.6699" y="316.614"/>
			<point x="51.1797" y="316.653"/>
			<point x="51.7705" y="316.757" type="curve" smooth="yes"/>
			<point x="67.0518" y="320.816"/>
			<point x="82.1992" y="323.838"/>
			<point x="98.1475" y="326.828" type="curve" smooth="yes"/>
			<point x="98.7471" y="326.94"/>
			<point x="99.3662" y="326.999"/>
			<point x="99.999" y="326.999" type="curve" smooth="yes"/>
			<point x="105.519" y="326.999"/>
			<point x="109.999" y="322.519"/>
			<point x="109.999" y="316.999" type="curve" smooth="yes"/>
			<point x="109.999" y="316.088"/>
			<point x="109.877" y="315.205"/>
			<point x="109.648" y="314.366" type="curve" smooth="yes"/>
			<point x="82.6855" y="215.503"/>
			<point x="57.7275" y="115.669"/>
			<point x="35.7705" y="14.8652" type="curve" smooth="yes"/>
			<point x="35.6641" y="14.3857"/>
			<point x="35.6143" y="13.916"/>
			<point x="35.6143" y="13.5479" type="curve" smooth="yes"/>
			<point x="35.6143" y="11.1748"/>
			<point x="36.8408" y="9.99902"/>
			<point x="39" y="9.99902" type="curve" smooth="yes"/>
			<point x="127" y="9.99902" type="line" smooth="yes"/>
			<point x="129.712" y="9.99902"/>
			<point x="132.918" y="12.79"/>
			<point x="132.998" y="16.8447" type="curve" smooth="yes"/>
			<point x="132.497" y="29.9473"/>
			<point x="132.248" y="43.0498"/>
			<point x="132.248" y="56.1455" type="curve" smooth="yes"/>
			<point x="132.248" y="147.946"/>
			<point x="144.507" y="239.322"/>
			<point x="168.345" y="327.609" type="curve" smooth="yes"/>
			<point x="171.237" y="338.322"/>
			<point x="192.071" y="335.805"/>
			<point x="204.786" y="335.805" type="curve" smooth="yes"/>
			<point x="282.65" y="335.805"/>
			<point x="343.809" y="323.939"/>
			<point x="405.433" y="301.395" type="curve" smooth="yes"/>
			<point x="408.535" y="300.26"/>
			<point x="410.921" y="297.63"/>
			<point x="411.716" y="294.379" type="curve" smooth="yes"/>
			<point x="433.828" y="203.919"/>
			<point x="447.917" y="111.425"/>
			<point x="452.968" y="17.8906" type="curve" smooth="yes"/>
			<point x="453.544" y="13.8389"/>
			<point x="457.508" y="9.99902"/>
			<point x="462.001" y="9.99902" type="curve" smooth="yes"/>
			<point x="567.001" y="9.99902" type="line" smooth="yes"/>
			<point x="569.16" y="9.99902"/>
			<point x="570.387" y="11.1748"/>
			<point x="570.387" y="13.5479" type="curve" smooth="yes"/>
			<point x="570.387" y="13.8604"/>
			<point x="570.357" y="14.2158"/>
			<point x="570.283" y="14.6084" type="curve" smooth="yes"/>
			<point x="500.57" y="261.105"/>
			<point x="416.181" y="502.61"/>
			<point x="322.746" y="730.208" type="curve" smooth="yes"/>
			<point x="316.285" y="745.947"/>
			<point x="309.882" y="762.892"/>
			<point x="301.948" y="779.751" type="curve" smooth="yes"/>
			<point x="299.856" y="784.195"/>
			<point x="294.32" y="790"/>
			<point x="287.002" y="790" type="curve" smooth="yes"/>
			<point x="184.33" y="790" type="line"/>
			<point x="199.023" y="767.43"/>
			<point x="213.712" y="743.949"/>
			<point x="228.384" y="721.452" type="curve" smooth="yes"/>
			<point x="229.407" y="719.884"/>
			<point x="230.002" y="718.011"/>
			<point x="230.002" y="716" type="curve" smooth="yes"/>
			<point x="230.002" y="714.896"/>
			<point x="229.822" y="713.833"/>
			<point x="229.491" y="712.84" type="curve" smooth="yes"/>
			<point x="196.529" y="613.954"/>
			<point x="165.575" y="515.099"/>
			<point x="137.626" y="416.277" type="curve" smooth="yes"/>
			<point x="136.438" y="412.08"/>
			<point x="132.577" y="409.001"/>
		</contour>
	</outline>
</glyph>
<glyph name="B" format="2">
	<unicode hex="0042"/>
	<advance width="524"/>
	<outline>
		<contour>
			<point x="441" y="53" type="curve" smooth="yes"/>
			<point x="377.562" y="4.0625"/>
			<point x="295.762" y="-4.00391"/>
			<point x="192" y="-4.00391" type="curve" smooth="yes"/>
			<point x="143" y="-4.00391"/>
			<point x="95" y="-3.00391"/>
			<point x="46" y="-0.00390625" type="curve" smooth="yes"/>
			<point x="34" y="-0.00390625"/>
			<point x="27" y="9.99609"/>
			<point x="29" y="20.9961" type="curve" smooth="yes"/>
			<point x="52.5537" y="142.691"/>
			<point x="74.3184" y="284.464"/>
			<point x="72.999" y="418.996" type="curve" smooth="yes"/>
			<point x="72.999" y="468.996"/>
			<point x="69.999" y="518.996"/>
			<point x="62.999" y="568.996" type="curve" smooth="yes"/>
			<point x="61.999" y="579.996"/>
			<point x="68.999" y="586.996"/>
			<point x="79.999" y="583.996" type="curve" smooth="yes"/>
			<point x="177.999" y="556.996" type="line" smooth="yes"/>
			<point x="188.999" y="553.996"/>
			<point x="193.999" y="542.996"/>
			<point x="189.999" y="531.996" type="curve" smooth="yes"/>
			<point x="176.999" y="494.996"/>
			<point x="165.999" y="456.996"/>
			<point x="157.999" y="418.996" type="curve" smooth="yes"/>
			<point x="134.999" y="312.996"/>
			<point x="130.999" y="202.996"/>
			<point x="146.999" y="95.9961" type="curve"/>
			<point x="237.558" y="78.1816"/>
			<point x="344.891" y="96.1094"/>
			<point x="401" y="140.997" type="curve" smooth="yes"/>
			<point x="431.439" y="168.232"/>
			<point x="449.124" y="209.731"/>
			<point x="428" y="254.998" type="curve" smooth="yes"/>
			<point x="397.699" y="315.6"/>
			<point x="305.047" y="339.412"/>
			<point x="241" y="299.999" type="curve" smooth="yes"/>
			<point x="231" y="293.999"/>
			<point x="221" y="295.999"/>
			<point x="216" y="305.999" type="curve" smooth="yes"/>
			<point x="187" y="372.999" type="line" smooth="yes"/>
			<point x="182" y="382.999"/>
			<point x="187" y="393.999"/>
			<point x="198" y="396.999" type="curve" smooth="yes"/>
			<point x="229" y="404.999"/>
			<point x="259" y="416.999"/>
			<point x="288" y="430.999" type="curve" smooth="yes"/>
			<point x="348.185" y="458.355"/>
			<point x="428.537" y="522.393"/>
			<point x="380" y="611.999" type="curve" smooth="yes"/>
			<point x="354.619" y="657.321"/>
			<point x="300.578" y="686.276"/>
			<point x="231" y="676.999" type="curve" smooth="yes"/>
			<point x="202" y="673.999"/>
			<point x="174" y="663.999"/>
			<point x="147" y="650.999" type="curve" smooth="yes"/>
			<point x="115" y="635.999"/>
			<point x="85" y="616.999"/>
			<point x="58" y="594.999" type="curve" smooth="yes"/>
			<point x="49" y="586.999"/>
			<point x="39" y="589.999"/>
			<point x="35" y="600.999" type="curve" smooth="yes"/>
			<point x="7" y="680.999" type="line" smooth="yes"/>
			<point x="3" y="690.999"/>
			<point x="7" y="705.999"/>
			<point x="16" y="712.999" type="curve" smooth="yes"/>
			<point x="76.6348" y="762.609"/>
			<point x="164.352" y="796.999"/>
			<point x="266.001" y="796.999" type="curve" smooth="yes"/>
			<point x="359.984" y="794.707"/>
			<point x="440.306" y="761.217"/>
			<point x="477.001" y="697" type="curve" smooth="yes"/>
			<point x="523.135" y="622.307"/>
			<point x="497.463" y="531.692"/>
			<point x="457.001" y="471" type="curve" smooth="yes"/>
			<point x="439.001" y="443"/>
			<point x="415.001" y="418"/>
			<point x="389.001" y="397" type="curve"/>
			<point x="462.624" y="373.181"/>
			<point x="523.864" y="296.803"/>
			<point x="520" y="206" type="curve" smooth="yes"/>
			<point x="517" y="147"/>
			<point x="487" y="89"/>
		</contour>
		<contour>
			<point x="510.168" y="213.886" type="curve" smooth="yes"/>
			<point x="510.168" y="296.833"/>
			<point x="453.484" y="365.619"/>
			<point x="385.925" y="387.477" type="curve" smooth="yes"/>
			<point x="381.909" y="388.775"/>
			<point x="379.002" y="392.548"/>
			<point x="379.002" y="396.993" type="curve" smooth="yes"/>
			<point x="379.002" y="400.136"/>
			<point x="380.455" y="402.942"/>
			<point x="382.726" y="404.776" type="curve" smooth="yes"/>
			<point x="433.092" y="445.457"/>
			<point x="480.582" y="507.262"/>
			<point x="490.08" y="583.244" type="curve" smooth="yes"/>
			<point x="491.05" y="590.81"/>
			<point x="491.547" y="598.53"/>
			<point x="491.547" y="606.241" type="curve" smooth="yes"/>
			<point x="491.547" y="687.023"/>
			<point x="440.908" y="739.601"/>
			<point x="381.128" y="764.771" type="curve" smooth="yes"/>
			<point x="345.793" y="780.052"/>
			<point x="306.032" y="786.003"/>
			<point x="265.878" y="786.992" type="curve" smooth="yes"/>
			<point x="166.924" y="786.966"/>
			<point x="81.1543" y="753.38"/>
			<point x="22.3281" y="705.25" type="curve" smooth="yes"/>
			<point x="18.7383" y="702.312"/>
			<point x="15.4521" y="695.862"/>
			<point x="15.4521" y="689.683" type="curve" smooth="yes"/>
			<point x="15.4521" y="687.411"/>
			<point x="15.9365" y="685.744"/>
			<point x="16.4443" y="684.294" type="curve" smooth="yes"/>
			<point x="44.4229" y="604.355" type="line" smooth="yes"/>
			<point x="45.6914" y="600.892"/>
			<point x="46.5391" y="600.247"/>
			<point x="47.0439" y="600.247" type="curve" smooth="yes"/>
			<point x="47.3428" y="600.247"/>
			<point x="47.5215" y="600.473"/>
			<point x="47.5957" y="600.473" type="curve" smooth="yes"/>
			<point x="48.0566" y="600.473"/>
			<point x="49.7002" y="601.125"/>
			<point x="51.6924" y="602.748" type="curve" smooth="yes"/>
			<point x="79.3223" y="625.261"/>
			<point x="110.007" y="644.695"/>
			<point x="142.767" y="660.052" type="curve" smooth="yes"/>
			<point x="192.584" y="684.038"/>
			<point x="262.468" y="702.571"/>
			<point x="321.974" y="676.171" type="curve" smooth="yes"/>
			<point x="364.642" y="658.088"/>
			<point x="404.172" y="616.719"/>
			<point x="404.172" y="556.813" type="curve" smooth="yes"/>
			<point x="404.172" y="483.85"/>
			<point x="342.963" y="445.009"/>
			<point x="292.237" y="421.931" type="curve" smooth="yes"/>
			<point x="262.879" y="407.764"/>
			<point x="232.341" y="395.531"/>
			<point x="200.58" y="387.328" type="curve" smooth="yes"/>
			<point x="196.534" y="386.204"/>
			<point x="195.059" y="383.582"/>
			<point x="195.059" y="380.953" type="curve" smooth="yes"/>
			<point x="195.059" y="379.789"/>
			<point x="195.6" y="378.307"/>
			<point x="196.184" y="376.957" type="curve" smooth="yes"/>
			<point x="225.062" y="310.236" type="line" smooth="yes"/>
			<point x="226.712" y="307.048"/>
			<point x="228.195" y="306.617"/>
			<point x="230.016" y="306.617" type="curve" smooth="yes"/>
			<point x="231.312" y="306.617"/>
			<point x="233.364" y="307.071"/>
			<point x="235.868" y="308.573" type="curve" smooth="yes"/>
			<point x="257.132" y="321.659"/>
			<point x="281.498" y="330.399"/>
			<point x="313.341" y="330.399" type="curve" smooth="yes"/>
			<point x="379.498" y="330.399"/>
			<point x="447.517" y="285.582"/>
			<point x="447.517" y="215.433" type="curve" smooth="yes"/>
			<point x="447.517" y="147.855"/>
			<point x="387.986" y="112.913"/>
			<point x="336.021" y="96.457" type="curve" smooth="yes"/>
			<point x="298.693" y="84.6367"/>
			<point x="259.555" y="78.8555"/>
			<point x="220.568" y="78.8555" type="curve" smooth="yes"/>
			<point x="195.134" y="78.8555"/>
			<point x="169.787" y="81.3174"/>
			<point x="145.064" y="86.1807" type="curve" smooth="yes"/>
			<point x="140.95" y="86.9902"/>
			<point x="137.737" y="90.3262"/>
			<point x="137.112" y="94.5039" type="curve" smooth="yes"/>
			<point x="130.572" y="138.237"/>
			<point x="127.337" y="182.459"/>
			<point x="127.337" y="226.711" type="curve" smooth="yes"/>
			<point x="127.337" y="337.397"/>
			<point x="148.916" y="448.272"/>
			<point x="180.601" y="535.406" type="curve" smooth="yes"/>
			<point x="181.147" y="536.91"/>
			<point x="181.37" y="538.311"/>
			<point x="181.37" y="539.521" type="curve" smooth="yes"/>
			<point x="181.37" y="543.46"/>
			<point x="179.459" y="546.229"/>
			<point x="175.368" y="547.345" type="curve" smooth="yes"/>
			<point x="77.3438" y="574.352" type="line" smooth="yes"/>
			<point x="76.3682" y="574.617"/>
			<point x="75.6328" y="574.69"/>
			<point x="75.1201" y="574.69" type="curve" smooth="yes"/>
			<point x="74.9023" y="574.69"/>
			<point x="74.6973" y="574.7"/>
			<point x="74.5068" y="574.7" type="curve" smooth="yes"/>
			<point x="73.5029" y="574.7"/>
			<point x="72.9072" y="574.431"/>
			<point x="72.9072" y="571.04" type="curve" smooth="yes"/>
			<point x="72.9072" y="570.754"/>
			<point x="72.918" y="570.446"/>
			<point x="72.9424" y="570.118" type="curve" smooth="yes"/>
			<point x="80.5801" y="515.449"/>
			<point x="83.0586" y="462.76"/>
			<point x="83.0586" y="407.069" type="curve" smooth="yes"/>
			<point x="83.0586" y="275.422"/>
			<point x="61.7822" y="137.74"/>
			<point x="38.8301" y="19.1504" type="curve" smooth="yes"/>
			<point x="38.7129" y="18.4912"/>
			<point x="38.6611" y="17.8652"/>
			<point x="38.6611" y="17.2852" type="curve" smooth="yes"/>
			<point x="38.6611" y="12.8193"/>
			<point x="41.0283" y="9.99414"/>
			<point x="46" y="9.99414" type="curve" smooth="yes"/>
			<point x="46.208" y="9.99414"/>
			<point x="46.4141" y="9.9873"/>
			<point x="46.6191" y="9.97461" type="curve" smooth="yes"/>
			<point x="95.3545" y="6.99121"/>
			<point x="143.139" y="5.99414"/>
			<point x="192.001" y="5.99414" type="curve" smooth="yes"/>
			<point x="236.017" y="5.99414"/>
			<point x="278.342" y="6.04492"/>
			<point x="320.163" y="13.8262" type="curve" smooth="yes"/>
			<point x="320.225" y="13.8262"/>
			<point x="320.286" y="13.8486"/>
			<point x="320.348" y="13.8594" type="curve" smooth="yes"/>
			<point x="361.167" y="20.6631"/>
			<point x="401.568" y="35.2051"/>
			<point x="434.9" y="60.918" type="curve" smooth="yes"/>
			<point x="479.659" y="95.9463"/>
			<point x="510.168" y="153.089"/>
		</contour>
	</outline>
</glyph>
<glyph name="D" format="2">
	<unicode hex="0044"/>
	<advance width="552"/>
	<outline>
		<contour>
			<point x="194" y="571" type="curve" smooth="yes"/>
			<point x="147.333" y="425.166"/>
			<point x="130.083" y="256.194"/>
			<point x="161" y="80.999" type="curve"/>
			<point x="307.327" y="74.1934"/>
			<point x="402.959" y="179.784"/>
			<point x="437" y="289" type="curve" smooth="yes"/>
			<point x="455" y="348"/>
			<point x="456" y="413"/>
			<point x="444" y="474" type="curve" smooth="yes"/>
			<point x="432" y="535"/>
			<point x="404" y="594"/>
			<point x="358" y="636" type="curve" smooth="yes"/>
			<point x="314" y="677"/>
			<point x="252" y="698"/>
			<point x="192" y="695" type="curve" smooth="yes"/>
			<point x="132" y="691"/>
			<point x="74" y="662"/>
			<point x="34" y="617" type="curve" smooth="yes"/>
			<point x="27" y="609"/>
			<point x="20" y="610"/>
			<point x="17" y="621" type="curve" smooth="yes"/>
			<point x="-5" y="711" type="line" smooth="yes"/>
			<point x="-7" y="722"/>
			<point x="-3" y="735"/>
			<point x="6" y="741" type="curve" smooth="yes"/>
			<point x="69" y="786"/>
			<point x="149" y="809"/>
			<point x="227" y="802" type="curve" smooth="yes"/>
			<point x="327" y="794"/>
			<point x="422" y="737"/>
			<point x="478" y="653" type="curve" smooth="yes"/>
			<point x="523" y="584"/>
			<point x="541" y="499"/>
			<point x="543" y="416" type="curve" smooth="yes"/>
			<point x="547.679" y="242.896"/>
			<point x="477.358" y="96.2959"/>
			<point x="358" y="33" type="curve" smooth="yes"/>
			<point x="283.506" y="-7.85156"/>
			<point x="163.965" y="-23.3369"/>
			<point x="56" y="-4" type="curve" smooth="yes"/>
			<point x="46" y="-2"/>
			<point x="40" y="8"/>
			<point x="42" y="19" type="curve" smooth="yes"/>
			<point x="63.2646" y="138.081"/>
			<point x="74.6396" y="273.899"/>
			<point x="69" y="413" type="curve" smooth="yes"/>
			<point x="66" y="477"/>
			<point x="60" y="541"/>
			<point x="51" y="604" type="curve" smooth="yes"/>
			<point x="50" y="614"/>
			<point x="57" y="621"/>
			<point x="67" y="618" type="curve" smooth="yes"/>
			<point x="182" y="593" type="line" smooth="yes"/>
			<point x="192" y="591"/>
			<point x="198" y="581"/>
		</contour>
		<contour>
			<point x="203.328" y="705.281" type="curve" smooth="yes"/>
			<point x="368.551" y="705.281"/>
			<point x="461.953" y="558.846"/>
			<point x="461.953" y="393.371" type="curve" smooth="yes"/>
			<point x="461.953" y="356.962"/>
			<point x="457.099" y="320.596"/>
			<point x="446.568" y="286.079" type="curve" smooth="yes"/>
			<point x="421.857" y="206.798"/>
			<point x="366.3" y="134.425"/>
			<point x="291.364" y="97.998" type="curve" smooth="yes"/>
			<point x="254.531" y="80.0537"/>
			<point x="213.543" y="70.7236"/>
			<point x="172.798" y="70.7236" type="curve" smooth="yes"/>
			<point x="162.383" y="70.7236"/>
			<point x="152.776" y="70.0586"/>
			<point x="151.154" y="79.251" type="curve" smooth="yes"/>
			<point x="140.483" y="139.719"/>
			<point x="135.328" y="201.162"/>
			<point x="135.328" y="262.54" type="curve" smooth="yes"/>
			<point x="135.328" y="381.276"/>
			<point x="152.698" y="474.74"/>
			<point x="184.476" y="574.044" type="curve" smooth="yes"/>
			<point x="184.808" y="575.08"/>
			<point x="185.256" y="576.394"/>
			<point x="185.256" y="577.329" type="curve" smooth="yes"/>
			<point x="185.256" y="579.993"/>
			<point x="183.47" y="582.442"/>
			<point x="180.033" y="583.189" type="curve" smooth="yes"/>
			<point x="64.8711" y="608.225" type="line" smooth="yes"/>
			<point x="64.2129" y="608.368"/>
			<point x="62.9355" y="608.698"/>
			<point x="62.4844" y="608.698" type="curve" smooth="yes"/>
			<point x="62.3564" y="608.698"/>
			<point x="62.2256" y="608.708"/>
			<point x="62.0967" y="608.708" type="curve" smooth="yes"/>
			<point x="61.4795" y="608.708"/>
			<point x="60.9082" y="608.482"/>
			<point x="60.9082" y="605.872" type="curve" smooth="yes"/>
			<point x="60.9082" y="605.657"/>
			<point x="60.917" y="605.425"/>
			<point x="60.9375" y="605.176" type="curve" smooth="yes"/>
			<point x="73.6455" y="516.141"/>
			<point x="80.6416" y="430.648"/>
			<point x="80.6416" y="333.028" type="curve" smooth="yes"/>
			<point x="80.6416" y="219.373"/>
			<point x="69.4043" y="115.548"/>
			<point x="51.8477" y="17.2314" type="curve" smooth="yes"/>
			<point x="51.6943" y="16.3906"/>
			<point x="51.6201" y="15.5547"/>
			<point x="51.6201" y="14.8008" type="curve" smooth="yes"/>
			<point x="51.6201" y="9.61719"/>
			<point x="54.4268" y="6.55078"/>
			<point x="57.8936" y="5.82031" type="curve" smooth="yes"/>
			<point x="88.1895" y="0.401367"/>
			<point x="119.126" y="-2.30957"/>
			<point x="150.002" y="-2.30957" type="curve" smooth="yes"/>
			<point x="227.774" y="-2.30957"/>
			<point x="298.778" y="12.9111"/>
			<point x="353.328" y="41.8389" type="curve" smooth="yes"/>
			<point x="465.533" y="101.342"/>
			<point x="533.23" y="236.487"/>
			<point x="533.23" y="399.184" type="curve" smooth="yes"/>
			<point x="533.23" y="490.757"/>
			<point x="516.195" y="576.131"/>
			<point x="469.62" y="647.546" type="curve" smooth="yes"/>
			<point x="415.331" y="728.979"/>
			<point x="323.011" y="784.285"/>
			<point x="226.195" y="792.03" type="curve" smooth="yes"/>
			<point x="217.252" y="792.833"/>
			<point x="208.182" y="793.236"/>
			<point x="199.21" y="793.236" type="curve" smooth="yes"/>
			<point x="132.464" y="793.236"/>
			<point x="65.6309" y="771.304"/>
			<point x="11.8037" y="732.855" type="curve" smooth="yes"/>
			<point x="7.9209" y="730.082"/>
			<point x="4.49609" y="724.036"/>
			<point x="4.49609" y="716.705" type="curve" smooth="yes"/>
			<point x="4.49609" y="715.456"/>
			<point x="4.59766" y="714.225"/>
			<point x="4.79297" y="713.06" type="curve" smooth="yes"/>
			<point x="26.624" y="623.749" type="line"/>
			<point x="70.1865" y="672.662"/>
			<point x="132.827" y="705.281"/>
		</contour>
	</outline>
</glyph>
<glyph name="F" format="2">
  <advance width="508"/>
  <unicode hex="0046"/>
  <outline>
    <contour>
      <point x="159" y="442" type="curve"/>
      <point x="255.385" y="453.339"/>
      <point x="341.233" y="468.103"/>
      <point x="431" y="487.001" type="curve" smooth="yes"/>
      <point x="439" y="489.001"/>
      <point x="446" y="484.001"/>
      <point x="447" y="475.001" type="curve" smooth="yes"/>
      <point x="448" y="383.001" type="line" smooth="yes"/>
      <point x="448" y="374.001"/>
      <point x="442" y="368.001"/>
      <point x="433" y="369.001" type="curve" smooth="yes"/>
      <point x="340.438" y="381.343"/>
      <point x="246.827" y="377.293"/>
      <point x="155" y="361.001" type="curve"/>
      <point x="148.29" y="246.933"/>
      <point x="144.072" y="126.226"/>
      <point x="159" y="18.001" type="curve" smooth="yes"/>
      <point x="160" y="10.001"/>
      <point x="154" y="2.00098"/>
      <point x="146" y="2.00098" type="curve" smooth="yes"/>
      <point x="16" y="-4.99902" type="line" smooth="yes"/>
      <point x="7" y="-5.99902"/>
      <point x="2" y="1.00098"/>
      <point x="5" y="9.00098" type="curve" smooth="yes"/>
      <point x="44" y="116.001"/>
      <point x="67" y="230.001"/>
      <point x="75" y="344.001" type="curve"/>
      <point x="57" y="339.001"/>
      <point x="39" y="334.001"/>
      <point x="22" y="328.001" type="curve" smooth="yes"/>
      <point x="13" y="325.001"/>
      <point x="7" y="330.001"/>
      <point x="7" y="339.001" type="curve" smooth="yes"/>
      <point x="6" y="413.001" type="line" smooth="yes"/>
      <point x="6" y="422.001"/>
      <point x="13" y="429.001"/>
      <point x="21" y="430.001" type="curve" smooth="yes"/>
      <point x="40" y="431.001"/>
      <point x="59" y="432.001"/>
      <point x="77" y="434.001" type="curve"/>
      <point x="77" y="436.001" type="line" smooth="yes"/>
      <point x="77" y="502.001"/>
      <point x="71" y="568.001"/>
      <point x="59" y="632.001" type="curve"/>
      <point x="51" y="627.001"/>
      <point x="43" y="621.001"/>
      <point x="35" y="614.001" type="curve" smooth="yes"/>
      <point x="28" y="609.001"/>
      <point x="21" y="611.001"/>
      <point x="19" y="619.001" type="curve" smooth="yes"/>
      <point x="0" y="714.001" type="line" smooth="yes"/>
      <point x="-2" y="722.001"/>
      <point x="3" y="732.001"/>
      <point x="11" y="735.001" type="curve" smooth="yes"/>
      <point x="155.592" y="787.862"/>
      <point x="304.789" y="815.705"/>
      <point x="493" y="801.001" type="curve" smooth="yes"/>
      <point x="502" y="801.001"/>
      <point x="508" y="793.001"/>
      <point x="507" y="784.001" type="curve" smooth="yes"/>
      <point x="494" y="682.001" type="line" smooth="yes"/>
      <point x="492" y="674.001"/>
      <point x="485" y="669.001"/>
      <point x="476" y="671.001" type="curve" smooth="yes"/>
      <point x="384.805" y="692.888"/>
      <point x="268.318" y="707.019"/>
      <point x="167" y="680" type="curve"/>
      <point x="166" y="601"/>
      <point x="164" y="521"/>
    </contour>
    <contour>
      <point x="159" y="432.001" type="curve" smooth="yes"/>
      <point x="153.48" y="432.001"/>
      <point x="149" y="436.483"/>
      <point x="149" y="442.003" type="curve" smooth="yes"/>
      <point x="149" y="442.218"/>
      <point x="149.007" y="442.432"/>
      <point x="149.021" y="442.644" type="curve" smooth="yes"/>
      <point x="154.004" y="521.385"/>
      <point x="156.002" y="601.217"/>
      <point x="157.001" y="680.132" type="curve" smooth="yes"/>
      <point x="157.059" y="684.702"/>
      <point x="160.189" y="688.538"/>
      <point x="164.42" y="689.666" type="curve" smooth="yes"/>
      <point x="205.28" y="700.562"/>
      <point x="247.437" y="705.05"/>
      <point x="289.653" y="705.05" type="curve" smooth="yes"/>
      <point x="356.72" y="705.05"/>
      <point x="422.993" y="694.208"/>
      <point x="479.885" y="680.562" type="curve" smooth="yes"/>
      <point x="482.014" y="680.562"/>
      <point x="483.396" y="681.374"/>
      <point x="484.166" y="683.954" type="curve" smooth="yes"/>
      <point x="497.067" y="785.182" type="line" smooth="yes"/>
      <point x="497.095" y="785.449"/>
      <point x="497.107" y="785.707"/>
      <point x="497.107" y="785.953" type="curve" smooth="yes"/>
      <point x="497.107" y="789.526"/>
      <point x="495.132" y="791.002"/>
      <point x="492.999" y="791.002" type="curve" smooth="yes"/>
      <point x="492.733" y="791.002"/>
      <point x="492.471" y="791.013"/>
      <point x="492.211" y="791.033" type="curve" smooth="yes"/>
      <point x="461.92" y="793.399"/>
      <point x="431.412" y="794.636"/>
      <point x="400.798" y="794.636" type="curve" smooth="yes"/>
      <point x="367.261" y="794.636"/>
      <point x="333.59" y="793.152"/>
      <point x="299.928" y="790.045" type="curve" smooth="yes"/>
      <point x="202.81" y="781.126"/>
      <point x="106.636" y="759.317"/>
      <point x="14.4287" y="725.607" type="curve" smooth="yes"/>
      <point x="12.2031" y="724.772"/>
      <point x="9.55762" y="720.979"/>
      <point x="9.55762" y="717.687" type="curve" smooth="yes"/>
      <point x="9.55762" y="716.982"/>
      <point x="9.69531" y="716.515"/>
      <point x="9.80469" y="715.97" type="curve" smooth="yes"/>
      <point x="28.6436" y="621.777" type="line"/>
      <point x="28.7129" y="621.819"/>
      <point x="28.7861" y="621.865"/>
      <point x="28.8623" y="621.915" type="curve" smooth="yes"/>
      <point x="37.0742" y="629.064"/>
      <point x="45.3516" y="635.263"/>
      <point x="53.71" y="640.487" type="curve" smooth="yes"/>
      <point x="55.2451" y="641.446"/>
      <point x="57.0586" y="642.001"/>
      <point x="59" y="642.001" type="curve" smooth="yes"/>
      <point x="63.8867" y="642.001"/>
      <point x="67.959" y="638.488"/>
      <point x="68.8281" y="633.853" type="curve" smooth="yes"/>
      <point x="80.9453" y="569.226"/>
      <point x="86.999" y="502.619"/>
      <point x="86.999" y="436.002" type="curve" smooth="yes"/>
      <point x="86.999" y="434.002" type="line" smooth="yes"/>
      <point x="86.999" y="428.859"/>
      <point x="83.1094" y="424.618"/>
      <point x="78.1143" y="424.063" type="curve" smooth="yes"/>
      <point x="59.8564" y="422.035"/>
      <point x="40.835" y="421.032"/>
      <point x="21.9795" y="420.04" type="curve" smooth="yes"/>
      <point x="18.8447" y="419.506"/>
      <point x="16.0293" y="416.569"/>
      <point x="16.001" y="413.056" type="curve" smooth="yes"/>
      <point x="17.002" y="339.003" type="line" smooth="yes"/>
      <point x="17.002" y="338.115"/>
      <point x="17.127" y="337.496"/>
      <point x="17.2344" y="337.139" type="curve" smooth="yes"/>
      <point x="17.5449" y="337.161"/>
      <point x="18.0664" y="337.241"/>
      <point x="18.7725" y="337.471" type="curve" smooth="yes"/>
      <point x="36.1826" y="343.61"/>
      <point x="54.3545" y="348.649"/>
      <point x="72.3223" y="353.641" type="curve" smooth="yes"/>
      <point x="73.1748" y="353.878"/>
      <point x="74.0732" y="354.005"/>
      <point x="75.001" y="354.005" type="curve" smooth="yes"/>
      <point x="80.5205" y="354.005"/>
      <point x="85.001" y="349.524"/>
      <point x="85.001" y="344.005" type="curve" smooth="yes"/>
      <point x="85.001" y="343.767"/>
      <point x="84.9922" y="343.53"/>
      <point x="84.9756" y="343.296" type="curve" smooth="yes"/>
      <point x="76.9141" y="228.422"/>
      <point x="53.7451" y="113.534"/>
      <point x="14.3984" y="5.58398" type="curve" smooth="yes"/>
      <point x="14.3037" y="5.33105"/>
      <point x="14.2393" y="5.09961"/>
      <point x="14.1973" y="4.91016" type="curve"/>
      <point x="14.2344" y="4.91016"/>
      <point x="14.2734" y="4.90918"/>
      <point x="14.3145" y="4.90918" type="curve" smooth="yes"/>
      <point x="14.6406" y="4.90918"/>
      <point x="15.1104" y="4.97168"/>
      <point x="15.4551" y="4.99023" type="curve" smooth="yes"/>
      <point x="145.455" y="11.9902" type="line" smooth="yes"/>
      <point x="145.636" y="12"/>
      <point x="145.817" y="12.0049"/>
      <point x="146" y="12.0049" type="curve" smooth="yes"/>
      <point x="146.862" y="12.0049"/>
      <point x="149.109" y="13.4932"/>
      <point x="149.109" y="16.2471" type="curve" smooth="yes"/>
      <point x="149.109" y="16.4004"/>
      <point x="149.101" y="16.5547"/>
      <point x="149.083" y="16.709" type="curve" smooth="yes"/>
      <point x="141.578" y="71.1416"/>
      <point x="138.258" y="128.381"/>
      <point x="138.258" y="188.025" type="curve" smooth="yes"/>
      <point x="138.258" y="246.33"/>
      <point x="141.646" y="304.288"/>
      <point x="145.018" y="361.599" type="curve" smooth="yes"/>
      <point x="145.291" y="366.251"/>
      <point x="148.751" y="370.053"/>
      <point x="153.244" y="370.85" type="curve" smooth="yes"/>
      <point x="210.656" y="381.035"/>
      <point x="268.906" y="386.128"/>
      <point x="326.48" y="386.128" type="curve" smooth="yes"/>
      <point x="364.34" y="386.128"/>
      <point x="398.66" y="383.664"/>
      <point x="434.202" y="378.932" type="curve" smooth="yes"/>
      <point x="434.47" y="378.904"/>
      <point x="434.71" y="378.894"/>
      <point x="434.921" y="378.894" type="curve" smooth="yes"/>
      <point x="436.944" y="378.894"/>
      <point x="437.991" y="379.14"/>
      <point x="438" y="382.952" type="curve" smooth="yes"/>
      <point x="437.007" y="474.318" type="line" smooth="yes"/>
      <point x="436.565" y="477.382"/>
      <point x="435.361" y="477.44"/>
      <point x="434.459" y="477.44" type="curve" smooth="yes"/>
      <point x="434.139" y="477.44"/>
      <point x="433.476" y="477.303"/>
      <point x="433.067" y="477.217" type="curve" smooth="yes"/>
      <point x="343.186" y="458.294"/>
      <point x="256.729" y="443.43"/>
      <point x="160.179" y="432.07" type="curve" smooth="yes"/>
      <point x="159.792" y="432.024"/>
      <point x="159.398" y="432.001"/>
    </contour>
  </outline>
</glyph>
<glyph name="J" format="2">
	<unicode hex="004A"/>
	<advance width="335"/>
	<outline>
		<contour>
			<point x="26" y="763" type="curve" smooth="yes"/>
			<point x="111.313" y="783.312"/>
			<point x="202.688" y="803.897"/>
			<point x="307" y="801" type="curve" smooth="yes"/>
			<point x="316" y="800"/>
			<point x="323" y="793"/>
			<point x="322" y="784" type="curve" smooth="yes"/>
			<point x="322" y="780"/>
			<point x="321" y="776"/>
			<point x="321" y="773" type="curve" smooth="yes"/>
			<point x="306" y="586"/>
			<point x="330" y="396"/>
			<point x="309" y="210" type="curve" smooth="yes"/>
			<point x="305" y="175"/>
			<point x="299" y="141"/>
			<point x="285" y="109" type="curve" smooth="yes"/>
			<point x="262" y="59"/>
			<point x="218" y="20"/>
			<point x="165" y="4" type="curve" smooth="yes"/>
			<point x="117.969" y="-9.16895"/>
			<point x="68.6318" y="-6.54395"/>
			<point x="25" y="8" type="curve" smooth="yes"/>
			<point x="17" y="10"/>
			<point x="10" y="21"/>
			<point x="10" y="30" type="curve" smooth="yes"/>
			<point x="9" y="88" type="line" smooth="yes"/>
			<point x="9" y="97"/>
			<point x="16" y="101"/>
			<point x="24" y="97" type="curve" smooth="yes"/>
			<point x="55.8213" y="82.1504"/>
			<point x="104.73" y="61.1543"/>
			<point x="148" y="75" type="curve" smooth="yes"/>
			<point x="235.473" y="104.157"/>
			<point x="238.653" y="236.943"/>
			<point x="231" y="346" type="curve" smooth="yes"/>
			<point x="225" y="464"/>
			<point x="217" y="582"/>
			<point x="209" y="700" type="curve"/>
			<point x="140.531" y="690.556"/>
			<point x="83.7549" y="669.555"/>
			<point x="32" y="641" type="curve" smooth="yes"/>
			<point x="24" y="637"/>
			<point x="17" y="640"/>
			<point x="16" y="649" type="curve" smooth="yes"/>
			<point x="11" y="743" type="line" smooth="yes"/>
			<point x="10" y="752"/>
			<point x="17" y="761"/>
		</contour>
		<contour>
			<point x="19.126" y="89.2441" type="curve"/>
			<point x="19.0889" y="89.2539"/>
			<point x="19.126" y="89.2441"/>
		</contour>
		<contour>
			<point x="118.318" y="60.6396" type="curve" smooth="yes"/>
			<point x="78.5732" y="60.6396"/>
			<point x="48.9746" y="76.5029"/>
			<point x="19.001" y="88.291" type="curve"/>
			<point x="19.001" y="88.2256"/>
			<point x="18.999" y="88.1562"/>
			<point x="18.999" y="88.082" type="curve" smooth="yes"/>
			<point x="20" y="30.002" type="line" smooth="yes"/>
			<point x="20" y="25.6152"/>
			<point x="24.3906" y="18.748"/>
			<point x="28.1592" y="17.4922" type="curve" smooth="yes"/>
			<point x="52.4336" y="9.40039"/>
			<point x="76.1484" y="6.44824"/>
			<point x="103.916" y="5.39355" type="curve" smooth="yes"/>
			<point x="123.542" y="5.39355"/>
			<point x="143.143" y="8.27734"/>
			<point x="162.204" y="13.6055" type="curve" smooth="yes"/>
			<point x="212.33" y="28.7686"/>
			<point x="254.058" y="65.7324"/>
			<point x="275.87" y="113.087" type="curve" smooth="yes"/>
			<point x="289.221" y="143.639"/>
			<point x="295.111" y="176.554"/>
			<point x="299.064" y="211.147" type="curve" smooth="yes"/>
			<point x="306.214" y="274.468"/>
			<point x="308.116" y="338.413"/>
			<point x="308.116" y="402.743" type="curve" smooth="yes"/>
			<point x="308.116" y="475.007"/>
			<point x="305.726" y="547.531"/>
			<point x="305.726" y="619.909" type="curve" smooth="yes"/>
			<point x="305.726" y="671.106"/>
			<point x="306.917" y="722.336"/>
			<point x="311.004" y="773.451" type="curve" smooth="yes"/>
			<point x="311.062" y="777.188"/>
			<point x="312" y="780.819"/>
			<point x="312" y="784.003" type="curve" smooth="yes"/>
			<point x="312" y="784.568"/>
			<point x="312.096" y="785.157"/>
			<point x="312.096" y="785.706" type="curve" smooth="yes"/>
			<point x="312.096" y="792.978"/>
			<point x="296.271" y="791.258"/>
			<point x="288.471" y="791.258" type="curve" smooth="yes"/>
			<point x="217.536" y="791.258"/>
			<point x="154.385" y="781.843"/>
			<point x="93.1768" y="768.241" type="curve" smooth="yes"/>
			<point x="93.0518" y="768.241"/>
			<point x="92.9258" y="768.188"/>
			<point x="92.7988" y="768.164" type="curve" smooth="yes"/>
			<point x="71.2832" y="764.252"/>
			<point x="49.3701" y="757.95"/>
			<point x="28.1768" y="753.24" type="curve" smooth="yes"/>
			<point x="24.2227" y="752.361"/>
			<point x="20.9062" y="748.031"/>
			<point x="20.9062" y="744.729" type="curve" smooth="yes"/>
			<point x="20.9062" y="744.323"/>
			<point x="20.9668" y="743.933"/>
			<point x="20.9873" y="743.541" type="curve" smooth="yes"/>
			<point x="25.9688" y="649.888" type="line" smooth="yes"/>
			<point x="25.9961" y="649.694"/>
			<point x="26.0273" y="649.525"/>
			<point x="26.0596" y="649.38" type="curve"/>
			<point x="26.4004" y="649.469"/>
			<point x="26.8506" y="649.62"/>
			<point x="27.3896" y="649.878" type="curve" smooth="yes"/>
			<point x="79.8252" y="678.781"/>
			<point x="138.219" y="700.333"/>
			<point x="207.624" y="709.906" type="curve" smooth="yes"/>
			<point x="208.074" y="709.969"/>
			<point x="208.534" y="710.001"/>
			<point x="209.001" y="710.001" type="curve" smooth="yes"/>
			<point x="214.29" y="710.001"/>
			<point x="218.625" y="705.886"/>
			<point x="218.978" y="700.686" type="curve" smooth="yes"/>
			<point x="226.976" y="582.718"/>
			<point x="234.978" y="464.693"/>
			<point x="240.982" y="346.612" type="curve" smooth="yes"/>
			<point x="242.749" y="321.429"/>
			<point x="244.337" y="295.875"/>
			<point x="244.337" y="270.195" type="curve" smooth="yes"/>
			<point x="244.337" y="178.646"/>
			<point x="222.321" y="89.2305"/>
			<point x="151.161" y="65.5107" type="curve" smooth="yes"/>
			<point x="140.547" y="61.9727"/>
			<point x="129.312" y="60.6396"/>
		</contour>
	</outline>
</glyph>
<glyph name="K" format="2">
  <advance width="521"/>
  <unicode hex="004B"/>
  <outline>
    <contour>
      <point x="342" y="70" type="curve" smooth="yes"/>
      <point x="314" y="147"/>
      <point x="259" y="209.997"/>
      <point x="206" y="271.997" type="curve" smooth="yes"/>
      <point x="198" y="280.997"/>
      <point x="190" y="289.997"/>
      <point x="182" y="299.997" type="curve"/>
      <point x="159" y="273.997"/>
      <point x="134" y="248.997"/>
      <point x="109" y="224.997" type="curve"/>
      <point x="116.524" y="152.26"/>
      <point x="134.903" y="93.7676"/>
      <point x="164" y="38.998" type="curve" smooth="yes"/>
      <point x="173" y="23.998"/>
      <point x="167" y="10.998"/>
      <point x="150" y="9.99805" type="curve" smooth="yes"/>
      <point x="23" y="0.998047" type="line" smooth="yes"/>
      <point x="14" y="0.998047"/>
      <point x="6" y="7.99805"/>
      <point x="6" y="16.998" type="curve" smooth="yes"/>
      <point x="6" y="229.775"/>
      <point x="42.3701" y="429.418"/>
      <point x="30" y="635.998" type="curve" smooth="yes"/>
      <point x="27" y="677.998"/>
      <point x="22" y="719.998"/>
      <point x="16" y="761.998" type="curve" smooth="yes"/>
      <point x="14" y="773.998"/>
      <point x="22" y="784.998"/>
      <point x="34" y="785.998" type="curve" smooth="yes"/>
      <point x="123" y="796.998" type="line" smooth="yes"/>
      <point x="136" y="798.998"/>
      <point x="147" y="789.998"/>
      <point x="148" y="777.998" type="curve" smooth="yes"/>
      <point x="151" y="748.998"/>
      <point x="152" y="719.998"/>
      <point x="152" y="690.998" type="curve" smooth="yes"/>
      <point x="149.834" y="590.279"/>
      <point x="127.446" y="491.567"/>
      <point x="115" y="391.998" type="curve"/>
      <point x="155" y="420.998"/>
      <point x="191" y="454.998"/>
      <point x="222" y="491.998" type="curve" smooth="yes"/>
      <point x="280" y="563.998"/>
      <point x="322" y="650.998"/>
      <point x="337" y="741.998" type="curve" smooth="yes"/>
      <point x="341.691" y="762.326"/>
      <point x="335.958" y="801.207"/>
      <point x="362" y="795.999" type="curve" smooth="yes"/>
      <point x="460" y="772.999" type="line" smooth="yes"/>
      <point x="476" y="769.999"/>
      <point x="484" y="753.999"/>
      <point x="477" y="738.999" type="curve" smooth="yes"/>
      <point x="416.014" y="609.852"/>
      <point x="337.618" y="482.608"/>
      <point x="247" y="375" type="curve"/>
      <point x="327" y="288"/>
      <point x="401" y="195"/>
      <point x="467" y="98" type="curve" smooth="yes"/>
      <point x="484" y="73"/>
      <point x="500" y="49"/>
      <point x="515" y="24" type="curve" smooth="yes"/>
      <point x="524" y="11"/>
      <point x="518" y="0"/>
      <point x="502" y="0" type="curve" smooth="yes"/>
      <point x="380" y="0" type="line" smooth="yes"/>
      <point x="369" y="0"/>
      <point x="359" y="9"/>
      <point x="356" y="20" type="curve" smooth="yes"/>
      <point x="353" y="37"/>
      <point x="348" y="54"/>
    </contour>
    <contour>
      <point x="42.5518" y="546.382" type="curve" smooth="yes"/>
      <point x="42.5518" y="367.195"/>
      <point x="16" y="198.431"/>
      <point x="16" y="16.9941" type="curve" smooth="yes"/>
      <point x="16" y="14.3115"/>
      <point x="18.7305" y="11.1445"/>
      <point x="22.7139" y="10.999" type="curve" smooth="yes"/>
      <point x="149.404" y="19.9775" type="line" smooth="yes"/>
      <point x="157.564" y="20.458"/>
      <point x="158.164" y="23.251"/>
      <point x="158.164" y="25.8018" type="curve" smooth="yes"/>
      <point x="158.164" y="27.6934"/>
      <point x="157.051" y="30.7588"/>
      <point x="155.162" y="34.3145" type="curve" smooth="yes"/>
      <point x="125.677" y="89.8164"/>
      <point x="106.683" y="150.207"/>
      <point x="99.0537" y="223.956" type="curve" smooth="yes"/>
      <point x="99.0186" y="224.298"/>
      <point x="99" y="224.645"/>
      <point x="99" y="224.995" type="curve" smooth="yes"/>
      <point x="99" y="227.828"/>
      <point x="100.181" y="230.388"/>
      <point x="102.077" y="232.208" type="curve" smooth="yes"/>
      <point x="126.976" y="256.11"/>
      <point x="151.784" y="280.928"/>
      <point x="174.508" y="306.615" type="curve" smooth="yes"/>
      <point x="176.341" y="308.688"/>
      <point x="179.019" y="309.994"/>
      <point x="181.999" y="309.994" type="curve" smooth="yes"/>
      <point x="185.159" y="309.994"/>
      <point x="187.979" y="308.525"/>
      <point x="189.812" y="306.234" type="curve" smooth="yes"/>
      <point x="199.148" y="294.562"/>
      <point x="208.661" y="284.262"/>
      <point x="218.141" y="273.179" type="curve" smooth="yes"/>
      <point x="269.671" y="212.935"/>
      <point x="323.388" y="150.439"/>
      <point x="351.399" y="73.4072" type="curve" smooth="yes"/>
      <point x="357.516" y="57.0967"/>
      <point x="362.617" y="39.8145"/>
      <point x="365.756" y="22.2451" type="curve" smooth="yes"/>
      <point x="367.891" y="15.0869"/>
      <point x="377.314" y="12.3027"/>
      <point x="379.998" y="9.99414" type="curve" smooth="yes"/>
      <point x="501.998" y="9.99414" type="line" smooth="yes"/>
      <point x="508.41" y="9.99414"/>
      <point x="509.579" y="11.0088"/>
      <point x="509.579" y="11.7549" type="curve" smooth="yes"/>
      <point x="509.579" y="12.1826"/>
      <point x="509.194" y="12.5215"/>
      <point x="509.194" y="12.5303" type="curve" smooth="yes"/>
      <point x="509.194" y="13.4326"/>
      <point x="508.13" y="16.0049"/>
      <point x="506.417" y="18.8604" type="curve" smooth="yes"/>
      <point x="491.579" y="43.5898"/>
      <point x="475.691" y="67.4287"/>
      <point x="458.724" y="92.3818" type="curve" smooth="yes"/>
      <point x="393.008" y="188.964"/>
      <point x="319.312" y="281.584"/>
      <point x="239.638" y="368.229" type="curve" smooth="yes"/>
      <point x="238" y="370.011"/>
      <point x="237" y="372.387"/>
      <point x="237" y="374.995" type="curve" smooth="yes"/>
      <point x="237" y="377.445"/>
      <point x="237.883" y="379.69"/>
      <point x="239.348" y="381.43" type="curve" smooth="yes"/>
      <point x="329.444" y="488.419"/>
      <point x="407.329" y="614.879"/>
      <point x="467.951" y="743.256" type="curve" smooth="yes"/>
      <point x="469.095" y="745.707"/>
      <point x="469.546" y="748.01"/>
      <point x="469.546" y="750.11" type="curve" smooth="yes"/>
      <point x="469.546" y="756.92"/>
      <point x="465.347" y="761.467"/>
      <point x="457.709" y="763.26" type="curve" smooth="yes"/>
      <point x="359.896" y="786.216" type="line" smooth="yes"/>
      <point x="359.284" y="786.33"/>
      <point x="358.712" y="786.379"/>
      <point x="358.189" y="786.379" type="curve" smooth="yes"/>
      <point x="353.832" y="786.379"/>
      <point x="352.182" y="783.974"/>
      <point x="351.863" y="779.828" type="curve" smooth="yes"/>
      <point x="350.903" y="767.316"/>
      <point x="349.884" y="753.491"/>
      <point x="346.815" y="740.052" type="curve" smooth="yes"/>
      <point x="331.634" y="648.319"/>
      <point x="289.516" y="557.01"/>
      <point x="229.668" y="485.579" type="curve" smooth="yes"/>
      <point x="198.154" y="447.967"/>
      <point x="161.562" y="413.403"/>
      <point x="120.859" y="383.895" type="curve" smooth="yes"/>
      <point x="119.212" y="382.7"/>
      <point x="117.187" y="381.996"/>
      <point x="114.998" y="381.996" type="curve" smooth="yes"/>
      <point x="109.479" y="381.996"/>
      <point x="104.998" y="386.477"/>
      <point x="104.998" y="391.996" type="curve" smooth="yes"/>
      <point x="104.998" y="392.42"/>
      <point x="105.024" y="392.837"/>
      <point x="105.075" y="393.247" type="curve" smooth="yes"/>
      <point x="117.139" y="489.755"/>
      <point x="139.823" y="590.678"/>
      <point x="141.998" y="691.106" type="curve" smooth="yes"/>
      <point x="141.998" y="719.836"/>
      <point x="141.001" y="748.447"/>
      <point x="138.052" y="776.957" type="curve" smooth="yes"/>
      <point x="137.457" y="782.705"/>
      <point x="133.147" y="787.275"/>
      <point x="126.61" y="787.275" type="curve" smooth="yes"/>
      <point x="125.951" y="787.275"/>
      <point x="125.26" y="787.199"/>
      <point x="124.53" y="787.109" type="curve" smooth="yes"/>
      <point x="35.2363" y="776.073" type="line" smooth="yes"/>
      <point x="29.666" y="775.385"/>
      <point x="25.6924" y="771.766"/>
      <point x="25.6924" y="765.67" type="curve" smooth="yes"/>
      <point x="25.6924" y="764.955"/>
      <point x="25.792" y="764.164"/>
      <point x="25.8984" y="763.421" type="curve" smooth="yes"/>
      <point x="35.8916" y="693.47"/>
      <point x="42.5518" y="624.761"/>
    </contour>
  </outline>
</glyph>
<glyph name="L" format="2">
	<unicode hex="004C"/>
	<advance width="467"/>
	<outline>
		<contour>
			<point x="33" y="761" type="curve" smooth="yes"/>
			<point x="32" y="766"/>
			<point x="34.998" y="771"/>
			<point x="39.998" y="772" type="curve" smooth="yes"/>
			<point x="143.998" y="798" type="line" smooth="yes"/>
			<point x="148.998" y="799"/>
			<point x="152.998" y="796"/>
			<point x="152.998" y="791" type="curve" smooth="yes"/>
			<point x="152.998" y="684" type="line" smooth="yes"/>
			<point x="151.565" y="480.523"/>
			<point x="138.462" y="266.792"/>
			<point x="112.999" y="79" type="curve"/>
			<point x="142.999" y="93"/>
			<point x="174.999" y="104"/>
			<point x="207.999" y="112" type="curve" smooth="yes"/>
			<point x="287.999" y="131"/>
			<point x="372.999" y="131"/>
			<point x="453.999" y="112" type="curve" smooth="yes"/>
			<point x="458.999" y="111"/>
			<point x="461.999" y="105"/>
			<point x="460.999" y="100" type="curve" smooth="yes"/>
			<point x="439.999" y="9" type="line" smooth="yes"/>
			<point x="437.999" y="4"/>
			<point x="433.999" y="2"/>
			<point x="428.999" y="4" type="curve" smooth="yes"/>
			<point x="329.547" y="46.6221"/>
			<point x="216.777" y="42.3584"/>
			<point x="125" y="0" type="curve"/>
			<point x="9" y="0" type="line" smooth="yes"/>
			<point x="4" y="0"/>
			<point x="1" y="4"/>
			<point x="2" y="9" type="curve" smooth="yes"/>
			<point x="16" y="61"/>
			<point x="27" y="113"/>
			<point x="36" y="165" type="curve" smooth="yes"/>
			<point x="63" y="331"/>
			<point x="67" y="500"/>
			<point x="47" y="667" type="curve" smooth="yes"/>
			<point x="43" y="698"/>
			<point x="38" y="730"/>
		</contour>
		<contour>
			<point x="42.9004" y="762.416" type="line"/>
			<point x="58.0068" y="668.741"/>
			<point x="69.5713" y="560.412"/>
			<point x="69.5713" y="455.717" type="curve" smooth="yes"/>
			<point x="69.5713" y="299.668"/>
			<point x="47.4209" y="140.542"/>
			<point x="12.6201" y="10" type="curve"/>
			<point x="122.813" y="10" type="line"/>
			<point x="172.019" y="32.3604"/>
			<point x="220.307" y="44.6113"/>
			<point x="282.134" y="44.6113" type="curve" smooth="yes"/>
			<point x="333.213" y="44.6113"/>
			<point x="384.34" y="33.7031"/>
			<point x="430.9" y="14.0596" type="curve"/>
			<point x="451.191" y="101.985" type="line" smooth="yes"/>
			<point x="451.186" y="102.069"/>
			<point x="451.146" y="102.246"/>
			<point x="451.096" y="102.407" type="curve" smooth="yes"/>
			<point x="411.541" y="111.636"/>
			<point x="335.203" y="115.725"/>
			<point x="330.623" y="116.251" type="curve" smooth="yes"/>
			<point x="249.705" y="116.251"/>
			<point x="175.502" y="97.1328"/>
			<point x="117.218" y="69.9336" type="curve" smooth="yes"/>
			<point x="115.936" y="69.335"/>
			<point x="114.506" y="69.001"/>
			<point x="112.998" y="69.001" type="curve" smooth="yes"/>
			<point x="107.479" y="69.001"/>
			<point x="102.998" y="73.4814"/>
			<point x="102.998" y="79.001" type="curve" smooth="yes"/>
			<point x="102.998" y="79.46"/>
			<point x="103.029" y="79.9121"/>
			<point x="103.089" y="80.3545" type="curve" smooth="yes"/>
			<point x="128.512" y="267.85"/>
			<point x="141.567" y="480.914"/>
			<point x="142.998" y="684.072" type="curve" smooth="yes"/>
			<point x="142.998" y="718.528"/>
			<point x="142.998" y="752.984"/>
			<point x="142.998" y="787.44" type="curve"/>
		</contour>
	</outline>
</glyph>
<glyph name="M" format="2">
	<unicode hex="004D"/>
	<advance width="605"/>
	<outline>
		<contour>
			<point x="136" y="0" type="curve" smooth="yes"/>
			<point x="38.001" y="-1.99902" type="line" smooth="yes"/>
			<point x="29.001" y="-1.99902"/>
			<point x="21.001" y="5.00098"/>
			<point x="19.001" y="14.001" type="curve" smooth="yes"/>
			<point x="1.58691" y="141.701"/>
			<point x="12.8496" y="271.842"/>
			<point x="22" y="403.001" type="curve" smooth="yes"/>
			<point x="30" y="521.001"/>
			<point x="32" y="640.001"/>
			<point x="29" y="759.001" type="curve" smooth="yes"/>
			<point x="29" y="768.001"/>
			<point x="36" y="777.001"/>
			<point x="44" y="778.001" type="curve" smooth="yes"/>
			<point x="130" y="797.001" type="line" smooth="yes"/>
			<point x="139" y="798.001"/>
			<point x="149" y="793.001"/>
			<point x="153" y="785.001" type="curve" smooth="yes"/>
			<point x="214.622" y="652.027"/>
			<point x="266.021" y="515.553"/>
			<point x="308" y="366.001" type="curve"/>
			<point x="352.101" y="494.91"/>
			<point x="394.271" y="627.796"/>
			<point x="431" y="762.001" type="curve" smooth="yes"/>
			<point x="434" y="770.001"/>
			<point x="443" y="779.001"/>
			<point x="452" y="781.001" type="curve" smooth="yes"/>
			<point x="538" y="797.001" type="line" smooth="yes"/>
			<point x="547" y="799.001"/>
			<point x="557" y="793.001"/>
			<point x="560" y="785.001" type="curve" smooth="yes"/>
			<point x="572" y="751.001"/>
			<point x="581" y="716.001"/>
			<point x="586" y="681.001" type="curve" smooth="yes"/>
			<point x="599" y="587.001"/>
			<point x="584" y="491.001"/>
			<point x="573" y="397.001" type="curve" smooth="yes"/>
			<point x="561" y="307.001"/>
			<point x="553" y="216.001"/>
			<point x="565" y="127.001" type="curve" smooth="yes"/>
			<point x="568" y="98.001"/>
			<point x="574" y="70.001"/>
			<point x="582" y="42.001" type="curve" smooth="yes"/>
			<point x="584" y="34.001"/>
			<point x="579" y="25.001"/>
			<point x="571" y="24.001" type="curve" smooth="yes"/>
			<point x="463" y="1.00098" type="line" smooth="yes"/>
			<point x="454" y="0.000976562"/>
			<point x="447" y="5.00098"/>
			<point x="447" y="14.001" type="curve" smooth="yes"/>
			<point x="443.714" y="155.292"/>
			<point x="475.188" y="271.019"/>
			<point x="487" y="398.001" type="curve" smooth="yes"/>
			<point x="495" y="478.001"/>
			<point x="493" y="560.001"/>
			<point x="482" y="640.001" type="curve"/>
			<point x="445.669" y="520.835"/>
			<point x="406.962" y="402.888"/>
			<point x="368" y="286.001" type="curve" smooth="yes"/>
			<point x="365" y="278.001"/>
			<point x="357" y="267.001"/>
			<point x="349" y="262.001" type="curve" smooth="yes"/>
			<point x="293" y="223.001" type="line" smooth="yes"/>
			<point x="286" y="218.001"/>
			<point x="276" y="220.001"/>
			<point x="271" y="228.001" type="curve" smooth="yes"/>
			<point x="248" y="269.001"/>
			<point x="227" y="312.001"/>
			<point x="210" y="357.001" type="curve" smooth="yes"/>
			<point x="177" y="445.001"/>
			<point x="157" y="538.001"/>
			<point x="121" y="625.001" type="curve"/>
			<point x="121" y="617.001"/>
			<point x="120" y="608.001"/>
			<point x="119" y="600.001" type="curve" smooth="yes"/>
			<point x="112" y="526.001"/>
			<point x="103" y="451.001"/>
			<point x="102" y="376.001" type="curve" smooth="yes"/>
			<point x="100.391" y="250.483"/>
			<point x="120.348" y="121.582"/>
			<point x="148" y="16" type="curve" smooth="yes"/>
			<point x="150" y="7"/>
			<point x="145" y="0"/>
		</contour>
		<contour>
			<point x="501.867" y="496.729" type="curve" smooth="yes"/>
			<point x="501.867" y="332.168"/>
			<point x="456.651" y="206.561"/>
			<point x="456.651" y="42.9834" type="curve" smooth="yes"/>
			<point x="456.651" y="33.3389"/>
			<point x="457" y="23.6738"/>
			<point x="457" y="14.002" type="curve" smooth="yes"/>
			<point x="457" y="11.6201"/>
			<point x="457.346" y="10.876"/>
			<point x="460.764" y="10.876" type="curve" smooth="yes"/>
			<point x="460.985" y="10.876"/>
			<point x="461.222" y="10.8838"/>
			<point x="461.471" y="10.9023" type="curve" smooth="yes"/>
			<point x="568.91" y="33.7832" type="line" smooth="yes"/>
			<point x="570.281" y="34.0752"/>
			<point x="572.441" y="34.7676"/>
			<point x="572.441" y="38.3848" type="curve" smooth="yes"/>
			<point x="572.441" y="38.751"/>
			<point x="572.401" y="39.1152"/>
			<point x="572.325" y="39.459" type="curve" smooth="yes"/>
			<point x="556.93" y="93.4082"/>
			<point x="549.064" y="154.654"/>
			<point x="549.064" y="220.686" type="curve" smooth="yes"/>
			<point x="549.064" y="349.773"/>
			<point x="581.038" y="474.686"/>
			<point x="581.038" y="602.935" type="curve" smooth="yes"/>
			<point x="581.038" y="672.647"/>
			<point x="569.945" y="726.737"/>
			<point x="550.608" y="781.561" type="curve" smooth="yes"/>
			<point x="549.564" y="784.213"/>
			<point x="545.26" y="787.391"/>
			<point x="541.583" y="787.391" type="curve" smooth="yes"/>
			<point x="540.953" y="787.391"/>
			<point x="540.382" y="787.273"/>
			<point x="539.837" y="787.172" type="curve" smooth="yes"/>
			<point x="454.043" y="771.21" type="line" smooth="yes"/>
			<point x="449.399" y="770.086"/>
			<point x="442.52" y="763.656"/>
			<point x="440.505" y="758.845" type="curve" smooth="yes"/>
			<point x="403.789" y="624.731"/>
			<point x="361.541" y="491.607"/>
			<point x="317.464" y="362.768" type="curve" smooth="yes"/>
			<point x="316.118" y="358.834"/>
			<point x="312.387" y="356.002"/>
			<point x="307.999" y="356.002" type="curve" smooth="yes"/>
			<point x="303.417" y="356.002"/>
			<point x="299.551" y="359.09"/>
			<point x="298.37" y="363.297" type="curve" smooth="yes"/>
			<point x="256.615" y="512.049"/>
			<point x="205.25" y="648.438"/>
			<point x="143.997" y="780.641" type="curve" smooth="yes"/>
			<point x="142.274" y="783.942"/>
			<point x="137.108" y="787.128"/>
			<point x="132.315" y="787.128" type="curve" smooth="yes"/>
			<point x="132.059" y="787.128"/>
			<point x="131.806" y="787.119"/>
			<point x="131.558" y="787.103" type="curve" smooth="yes"/>
			<point x="46.1641" y="768.236" type="line" smooth="yes"/>
			<point x="43.6943" y="767.69"/>
			<point x="39.0762" y="764.541"/>
			<point x="39.001" y="759.102" type="curve" smooth="yes"/>
			<point x="39.875" y="724.382"/>
			<point x="40.3242" y="689.659"/>
			<point x="40.3242" y="654.959" type="curve" smooth="yes"/>
			<point x="40.3242" y="570.494"/>
			<point x="37.6611" y="486.161"/>
			<point x="31.9766" y="402.315" type="curve" smooth="yes"/>
			<point x="26.4717" y="323.407"/>
			<point x="18.915" y="241.079"/>
			<point x="18.915" y="160.848" type="curve" smooth="yes"/>
			<point x="18.915" y="110.732"/>
			<point x="22.2676" y="64.2412"/>
			<point x="28.8438" y="15.8408" type="curve" smooth="yes"/>
			<point x="30.0312" y="11.2305"/>
			<point x="34.2529" y="8.04688"/>
			<point x="37.9209" y="8.00098" type="curve" smooth="yes"/>
			<point x="136" y="10.0029" type="line" smooth="yes"/>
			<point x="138.335" y="10.0029"/>
			<point x="138.439" y="10.2148"/>
			<point x="138.439" y="11.6924" type="curve" smooth="yes"/>
			<point x="138.439" y="11.8369"/>
			<point x="138.438" y="11.9941"/>
			<point x="138.438" y="12.1641" type="curve" smooth="yes"/>
			<point x="138.438" y="12.5635"/>
			<point x="138.395" y="13.0732"/>
			<point x="138.271" y="13.6738" type="curve" smooth="yes"/>
			<point x="111.465" y="116.087"/>
			<point x="91.9072" y="239.425"/>
			<point x="91.9072" y="361.259" type="curve" smooth="yes"/>
			<point x="91.9072" y="443.537"/>
			<point x="101.649" y="522.759"/>
			<point x="109.046" y="600.951" type="curve" smooth="yes"/>
			<point x="109.803" y="608.951"/>
			<point x="111.001" y="617.697"/>
			<point x="111.001" y="624.999" type="curve" smooth="yes"/>
			<point x="111.001" y="630.519"/>
			<point x="115.481" y="634.999"/>
			<point x="121.001" y="634.999" type="curve" smooth="yes"/>
			<point x="125.169" y="634.999"/>
			<point x="128.744" y="632.444"/>
			<point x="130.245" y="628.816" type="curve" smooth="yes"/>
			<point x="166.324" y="541.624"/>
			<point x="186.167" y="449.041"/>
			<point x="219.367" y="360.507" type="curve" smooth="yes"/>
			<point x="236.117" y="316.17"/>
			<point x="256.833" y="273.719"/>
			<point x="279.59" y="233.13" type="curve" smooth="yes"/>
			<point x="280.938" y="231.083"/>
			<point x="283.768" y="230.692"/>
			<point x="284.483" y="230.274" type="curve" smooth="yes"/>
			<point x="285.441" y="230.274"/>
			<point x="286.375" y="230.556"/>
			<point x="287.198" y="231.144" type="curve" smooth="yes"/>
			<point x="343.296" y="270.213" type="line" smooth="yes"/>
			<point x="348.674" y="273.958"/>
			<point x="356.137" y="283.047"/>
			<point x="358.572" y="289.345" type="curve" smooth="yes"/>
			<point x="397.146" y="406.14"/>
			<point x="436.239" y="524.199"/>
			<point x="472.434" y="642.917" type="curve" smooth="yes"/>
			<point x="473.683" y="647.016"/>
			<point x="477.496" y="650.001"/>
			<point x="482.001" y="650.001" type="curve" smooth="yes"/>
			<point x="487.055" y="650.001"/>
			<point x="491.237" y="646.244"/>
			<point x="491.907" y="641.373" type="curve" smooth="yes"/>
			<point x="498.477" y="593.596"/>
			<point x="501.867" y="545.11"/>
		</contour>
	</outline>
</glyph>
<glyph name="N" format="2">
	<unicode hex="004E"/>
	<advance width="525"/>
	<outline>
		<contour>
			<point x="150" y="-5" type="curve" smooth="yes"/>
			<point x="42" y="-21" type="line" smooth="yes"/>
			<point x="32" y="-23"/>
			<point x="24" y="-16"/>
			<point x="23" y="-6" type="curve" smooth="yes"/>
			<point x="-0.0341797" y="253.139"/>
			<point x="50.5752" y="520.134"/>
			<point x="25" y="781" type="curve" smooth="yes"/>
			<point x="24" y="791"/>
			<point x="32" y="800"/>
			<point x="43" y="800" type="curve" smooth="yes"/>
			<point x="128" y="800" type="line" smooth="yes"/>
			<point x="137" y="800"/>
			<point x="149" y="795"/>
			<point x="154" y="788" type="curve" smooth="yes"/>
			<point x="176" y="759"/>
			<point x="196" y="729"/>
			<point x="212" y="697" type="curve" smooth="yes"/>
			<point x="272" y="578"/>
			<point x="287" y="441"/>
			<point x="331" y="315" type="curve" smooth="yes"/>
			<point x="351" y="259"/>
			<point x="376" y="205"/>
			<point x="406" y="155" type="curve"/>
			<point x="408" y="230"/>
			<point x="408" y="306"/>
			<point x="407" y="381" type="curve" smooth="yes"/>
			<point x="406" y="489"/>
			<point x="402" y="596"/>
			<point x="383" y="702" type="curve" smooth="yes"/>
			<point x="378" y="728"/>
			<point x="373" y="753"/>
			<point x="367" y="778" type="curve" smooth="yes"/>
			<point x="364" y="789"/>
			<point x="371" y="799"/>
			<point x="383" y="800" type="curve" smooth="yes"/>
			<point x="497" y="813" type="line" smooth="yes"/>
			<point x="504" y="814"/>
			<point x="511" y="808"/>
			<point x="511" y="801" type="curve" smooth="yes"/>
			<point x="514" y="772"/>
			<point x="515" y="744"/>
			<point x="516" y="716" type="curve" smooth="yes"/>
			<point x="519" y="541"/>
			<point x="494" y="367"/>
			<point x="500" y="193" type="curve" smooth="yes"/>
			<point x="502" y="134"/>
			<point x="508" y="75"/>
			<point x="517" y="16" type="curve" smooth="yes"/>
			<point x="524.365" y="-20.8262"/>
			<point x="445.909" y="10.5459"/>
			<point x="431" y="18" type="curve" smooth="yes"/>
			<point x="380" y="45"/>
			<point x="345" y="94"/>
			<point x="317" y="144" type="curve" smooth="yes"/>
			<point x="253" y="256"/>
			<point x="213" y="380"/>
			<point x="178" y="503" type="curve" smooth="yes"/>
			<point x="165" y="550"/>
			<point x="152" y="598"/>
			<point x="127" y="639" type="curve"/>
			<point x="127" y="631"/>
			<point x="126" y="623"/>
			<point x="126" y="616" type="curve" smooth="yes"/>
			<point x="122" y="536"/>
			<point x="114" y="457"/>
			<point x="112" y="377" type="curve" smooth="yes"/>
			<point x="110" y="297"/>
			<point x="115" y="217"/>
			<point x="132" y="138" type="curve" smooth="yes"/>
			<point x="140" y="98"/>
			<point x="151" y="59"/>
			<point x="165" y="20" type="curve" smooth="yes"/>
			<point x="170" y="8"/>
			<point x="163" y="-3"/>
		</contour>
		<contour>
			<point x="43.0381" y="615.147" type="curve" smooth="yes"/>
			<point x="43.0381" y="456.94"/>
			<point x="25.9619" y="299.445"/>
			<point x="25.9619" y="141.774" type="curve" smooth="yes"/>
			<point x="25.9619" y="91.7129"/>
			<point x="28.6074" y="43.8867"/>
			<point x="32.9551" y="-5.0459" type="curve" smooth="yes"/>
			<point x="33.4316" y="-9.64844"/>
			<point x="36.0127" y="-11.3457"/>
			<point x="38.6211" y="-11.3457" type="curve" smooth="yes"/>
			<point x="39.1514" y="-11.3457"/>
			<point x="39.9395" y="-11.1982"/>
			<point x="40.5244" y="-11.1113" type="curve" smooth="yes"/>
			<point x="148.524" y="4.88867" type="line" smooth="yes"/>
			<point x="154.79" y="5.85254"/>
			<point x="156.621" y="9.15527"/>
			<point x="156.621" y="12.291" type="curve" smooth="yes"/>
			<point x="156.621" y="13.4463"/>
			<point x="156.139" y="15.0771"/>
			<point x="155.584" y="16.6221" type="curve" smooth="yes"/>
			<point x="122.286" y="109.379"/>
			<point x="101.584" y="226.736"/>
			<point x="101.584" y="344.305" type="curve" smooth="yes"/>
			<point x="101.584" y="438.119"/>
			<point x="111.474" y="525.922"/>
			<point x="116" y="616.26" type="curve" smooth="yes"/>
			<point x="116.022" y="623.794"/>
			<point x="117" y="631.625"/>
			<point x="117" y="638.998" type="curve" smooth="yes"/>
			<point x="117" y="644.518"/>
			<point x="121.48" y="648.998"/>
			<point x="127" y="648.998" type="curve" smooth="yes"/>
			<point x="130.617" y="648.998"/>
			<point x="133.788" y="647.073"/>
			<point x="135.544" y="644.193" type="curve" smooth="yes"/>
			<point x="161.563" y="601.521"/>
			<point x="174.572" y="552.907"/>
			<point x="187.639" y="505.666" type="curve" smooth="yes"/>
			<point x="222.577" y="382.881"/>
			<point x="262.374" y="259.748"/>
			<point x="325.688" y="148.948" type="curve" smooth="yes"/>
			<point x="363.646" y="81.1641"/>
			<point x="410.165" y="17.2314"/>
			<point x="503.004" y="7.94727" type="curve" smooth="yes"/>
			<point x="503.188" y="7.92871"/>
			<point x="503.357" y="7.9209"/>
			<point x="503.51" y="7.9209" type="curve" smooth="yes"/>
			<point x="505.474" y="7.9209"/>
			<point x="507.341" y="9.28125"/>
			<point x="507.341" y="12.584" type="curve" smooth="yes"/>
			<point x="507.341" y="13.1533"/>
			<point x="507.203" y="13.8896"/>
			<point x="507.113" y="14.4795" type="curve" smooth="yes"/>
			<point x="495.189" y="92.6436"/>
			<point x="489.064" y="164.784"/>
			<point x="489.064" y="249.292" type="curve" smooth="yes"/>
			<point x="489.064" y="395.085"/>
			<point x="506.249" y="540.481"/>
			<point x="506.249" y="686.086" type="curve" smooth="yes"/>
			<point x="506.249" y="726.172"/>
			<point x="505.021" y="761.58"/>
			<point x="501.051" y="799.96" type="curve" smooth="yes"/>
			<point x="501.016" y="800.302"/>
			<point x="500.997" y="800.648"/>
			<point x="500.997" y="800.999" type="curve" smooth="yes"/>
			<point x="500.997" y="801.449"/>
			<point x="499.631" y="803.109"/>
			<point x="498.543" y="803.109" type="curve" smooth="yes"/>
			<point x="383.838" y="790.029" type="line" smooth="yes"/>
			<point x="378.342" y="789.571"/>
			<point x="376.305" y="786.5"/>
			<point x="376.305" y="783.046" type="curve" smooth="yes"/>
			<point x="376.305" y="782.263"/>
			<point x="376.502" y="781.256"/>
			<point x="376.723" y="780.338" type="curve" smooth="yes"/>
			<point x="382.783" y="755.086"/>
			<point x="388.159" y="729.896"/>
			<point x="392.842" y="703.772" type="curve" smooth="yes"/>
			<point x="417.502" y="566.194"/>
			<point x="417.655" y="435.212"/>
			<point x="417.655" y="287.43" type="curve" smooth="yes"/>
			<point x="417.655" y="243.137"/>
			<point x="417.169" y="198.771"/>
			<point x="415.994" y="154.729" type="curve" smooth="yes"/>
			<point x="415.851" y="149.335"/>
			<point x="411.427" y="145"/>
			<point x="405.998" y="145" type="curve" smooth="yes"/>
			<point x="402.355" y="145"/>
			<point x="399.165" y="146.952"/>
			<point x="397.417" y="149.866" type="curve" smooth="yes"/>
			<point x="367.044" y="200.488"/>
			<point x="341.779" y="255.077"/>
			<point x="321.578" y="311.641" type="curve" smooth="yes"/>
			<point x="276.947" y="439.448"/>
			<point x="261.957" y="575.704"/>
			<point x="203.064" y="692.508" type="curve" smooth="yes"/>
			<point x="187.437" y="723.764"/>
			<point x="167.785" y="753.285"/>
			<point x="146.028" y="781.965" type="curve" smooth="yes"/>
			<point x="143.514" y="785.28"/>
			<point x="134.369" y="790.001"/>
			<point x="128" y="790.001" type="curve" smooth="yes"/>
			<point x="43" y="790.001" type="line" smooth="yes"/>
			<point x="37.9375" y="790.001"/>
			<point x="34.916" y="786.322"/>
			<point x="34.916" y="782.688" type="curve" smooth="yes"/>
			<point x="34.916" y="782.468"/>
			<point x="34.9268" y="782.24"/>
			<point x="34.9502" y="782.006" type="curve" smooth="yes"/>
			<point x="40.4219" y="726.19"/>
			<point x="43.0381" y="671.685"/>
		</contour>
	</outline>
</glyph>
<glyph name="O" format="2">
	<unicode hex="004F"/>
	<advance width="618"/>
	<outline>
		<contour>
			<point x="592" y="399" type="curve" smooth="yes"/>
			<point x="592" y="203.159"/>
			<point x="463.148" y="53.9326"/>
			<point x="312.999" y="-1" type="curve"/>
			<point x="156.362" y="45.6182"/>
			<point x="19.2168" y="198.107"/>
			<point x="17" y="391" type="curve" smooth="yes"/>
			<point x="16" y="481"/>
			<point x="44" y="570"/>
			<point x="97" y="643" type="curve" smooth="yes"/>
			<point x="150" y="715"/>
			<point x="226" y="769"/>
			<point x="312" y="795" type="curve"/>
			<point x="393" y="766"/>
			<point x="465" y="712"/>
			<point x="514" y="641" type="curve" smooth="yes"/>
			<point x="564" y="571"/>
			<point x="592" y="485"/>
		</contour>
		<contour>
			<point x="218.999" y="206" type="curve" smooth="yes"/>
			<point x="259.999" y="159"/>
			<point x="314.999" y="125"/>
			<point x="374.999" y="107" type="curve"/>
			<point x="400.999" y="132"/>
			<point x="422.999" y="160"/>
			<point x="439.999" y="192" type="curve" smooth="yes"/>
			<point x="513.094" y="331.544"/>
			<point x="475.301" y="489.936"/>
			<point x="384.999" y="584" type="curve" smooth="yes"/>
			<point x="345.999" y="624"/>
			<point x="297.999" y="653"/>
			<point x="244.999" y="670" type="curve"/>
			<point x="180.662" y="614.055"/>
			<point x="129.243" y="508.479"/>
			<point x="136.999" y="403" type="curve" smooth="yes"/>
			<point x="141.999" y="331"/>
			<point x="170.999" y="260"/>
		</contour>
		<contour>
			<point x="126.178" y="425.496" type="curve" smooth="yes"/>
			<point x="126.178" y="488.151"/>
			<point x="144.436" y="550.92"/>
			<point x="177.39" y="604.087" type="curve" smooth="yes"/>
			<point x="193.929" y="631.996"/>
			<point x="214.613" y="656.827"/>
			<point x="238.442" y="677.548" type="curve" smooth="yes"/>
			<point x="240.198" y="679.075"/>
			<point x="242.491" y="680"/>
			<point x="244.999" y="680" type="curve" smooth="yes"/>
			<point x="246.063" y="680"/>
			<point x="247.09" y="679.833"/>
			<point x="248.053" y="679.524" type="curve" smooth="yes"/>
			<point x="302.515" y="662.056"/>
			<point x="352.02" y="632.146"/>
			<point x="392.213" y="590.923" type="curve" smooth="yes"/>
			<point x="441.676" y="539.398"/>
			<point x="474.572" y="472.64"/>
			<point x="484.881" y="402.541" type="curve" smooth="yes"/>
			<point x="487.532" y="385.428"/>
			<point x="488.83" y="368.103"/>
			<point x="488.83" y="350.767" type="curve" smooth="yes"/>
			<point x="488.83" y="293.945"/>
			<point x="474.894" y="237.064"/>
			<point x="448.836" y="187.318" type="curve" smooth="yes"/>
			<point x="431.291" y="154.293"/>
			<point x="408.589" y="125.428"/>
			<point x="381.928" y="99.792" type="curve" smooth="yes"/>
			<point x="380.13" y="98.0635"/>
			<point x="377.688" y="97"/>
			<point x="374.999" y="97" type="curve" smooth="yes"/>
			<point x="374" y="97"/>
			<point x="373.035" y="97.1465"/>
			<point x="372.125" y="97.4199" type="curve" smooth="yes"/>
			<point x="310.451" y="115.922"/>
			<point x="253.879" y="150.808"/>
			<point x="211.523" y="199.361" type="curve" smooth="yes"/>
			<point x="157.492" y="260.146"/>
			<point x="126.178" y="336.514"/>
		</contour>
		<contour>
			<point x="312.677" y="9.54492" type="curve"/>
			<point x="457.746" y="63.9541"/>
			<point x="581.999" y="208.823"/>
			<point x="581.999" y="398.999" type="curve" smooth="yes"/>
			<point x="581.999" y="483.832"/>
			<point x="553.773" y="565.762"/>
			<point x="505.763" y="635.328" type="curve" smooth="yes"/>
			<point x="458.647" y="703.598"/>
			<point x="389.567" y="755.877"/>
			<point x="311.735" y="784.455" type="curve"/>
			<point x="229.112" y="758.726"/>
			<point x="156.114" y="706.438"/>
			<point x="105.058" y="637.079" type="curve" smooth="yes"/>
			<point x="54.2412" y="567.087"/>
			<point x="26.9736" y="481.943"/>
			<point x="26.9736" y="395.658" type="curve" smooth="yes"/>
			<point x="26.9736" y="205.634"/>
			<point x="160.719" y="56.2109"/>
		</contour>
	</outline>
</glyph>
<glyph name="Q" format="2">
	<unicode hex="0051"/>
	<advance width="653"/>
	<outline>
		<contour>
			<point x="317" y="800" type="curve" smooth="yes"/>
			<point x="362" y="800"/>
			<point x="406.999" y="787"/>
			<point x="445.999" y="764" type="curve" smooth="yes"/>
			<point x="556.49" y="698.792"/>
			<point x="619.999" y="564.212"/>
			<point x="619.999" y="400" type="curve" smooth="yes"/>
			<point x="618.999" y="303"/>
			<point x="595.999" y="205"/>
			<point x="539.999" y="126" type="curve" smooth="yes"/>
			<point x="535.999" y="122"/>
			<point x="532.999" y="118"/>
			<point x="529.999" y="113" type="curve"/>
			<point x="556.999" y="103"/>
			<point x="585.999" y="99"/>
			<point x="614.999" y="102" type="curve" smooth="yes"/>
			<point x="627.999" y="103"/>
			<point x="638.999" y="95"/>
			<point x="640.999" y="82" type="curve" smooth="yes"/>
			<point x="649.999" y="8" type="line" smooth="yes"/>
			<point x="656.738" y="-35.8027"/>
			<point x="568.346" y="-4.10352"/>
			<point x="546" y="5.00098" type="curve" smooth="yes"/>
			<point x="518" y="18.001"/>
			<point x="493" y="35.001"/>
			<point x="470" y="55.001" type="curve"/>
			<point x="427.044" y="23.7598"/>
			<point x="363.973" y="-2.01855"/>
			<point x="301" y="2.00098" type="curve" smooth="yes"/>
			<point x="258" y="4.00098"/>
			<point x="215" y="19.001"/>
			<point x="178" y="43.001" type="curve" smooth="yes"/>
			<point x="75.1973" y="109.732"/>
			<point x="15" y="238.599"/>
			<point x="15" y="397" type="curve" smooth="yes"/>
			<point x="15" y="492"/>
			<point x="36" y="588"/>
			<point x="89" y="667" type="curve" smooth="yes"/>
			<point x="134.388" y="733.336"/>
			<point x="212.104" y="800"/>
		</contour>
		<contour>
			<point x="393.999" y="129" type="curve"/>
			<point x="368.709" y="152.604"/>
			<point x="335.29" y="176"/>
			<point x="288.999" y="176" type="curve" smooth="yes"/>
			<point x="275.999" y="176"/>
			<point x="265.999" y="184"/>
			<point x="265.999" y="197" type="curve" smooth="yes"/>
			<point x="267.999" y="305" type="line" smooth="yes"/>
			<point x="267.999" y="312"/>
			<point x="273.999" y="317"/>
			<point x="280.999" y="315" type="curve" smooth="yes"/>
			<point x="318.999" y="305"/>
			<point x="354.999" y="285"/>
			<point x="382.999" y="257" type="curve" smooth="yes"/>
			<point x="409.999" y="230"/>
			<point x="429.999" y="197"/>
			<point x="453.999" y="168" type="curve"/>
			<point x="486.429" y="200.43"/>
			<point x="509.033" y="246.194"/>
			<point x="517.999" y="297" type="curve" smooth="yes"/>
			<point x="522.999" y="331"/>
			<point x="522.999" y="366"/>
			<point x="521.999" y="400" type="curve" smooth="yes"/>
			<point x="519.667" y="516.611"/>
			<point x="489.392" y="616.09"/>
			<point x="411.999" y="664" type="curve" smooth="yes"/>
			<point x="353.049" y="701.896"/>
			<point x="280.379" y="695.92"/>
			<point x="224.999" y="659" type="curve" smooth="yes"/>
			<point x="197.999" y="641"/>
			<point x="175.999" y="615"/>
			<point x="158.999" y="587" type="curve" smooth="yes"/>
			<point x="124.999" y="531"/>
			<point x="113.999" y="464"/>
			<point x="112.999" y="398" type="curve" smooth="yes"/>
			<point x="110.621" y="283.854"/>
			<point x="141.955" y="188.479"/>
			<point x="214.999" y="141" type="curve" smooth="yes"/>
			<point x="265.33" y="107.446"/>
			<point x="334.182" y="100.199"/>
		</contour>
		<contour>
			<point x="312.441" y="100.893" type="curve" smooth="yes"/>
			<point x="310.082" y="100.893"/>
			<point x="307.706" y="101.02"/>
			<point x="305.37" y="101.02" type="curve" smooth="yes"/>
			<point x="210.498" y="106.949"/>
			<point x="146.101" y="176.437"/>
			<point x="121.492" y="251.901" type="curve" smooth="yes"/>
			<point x="107.474" y="294.891"/>
			<point x="102.857" y="340.052"/>
			<point x="102.857" y="384.351" type="curve" smooth="yes"/>
			<point x="102.857" y="459.603"/>
			<point x="112.55" y="529.76"/>
			<point x="150.447" y="592.18" type="curve" smooth="yes"/>
			<point x="182.482" y="644.943"/>
			<point x="238.086" y="697.459"/>
			<point x="316.389" y="699.982" type="curve" smooth="yes"/>
			<point x="316.439" y="699.982"/>
			<point x="316.49" y="699.991"/>
			<point x="316.541" y="699.991" type="curve" smooth="yes"/>
			<point x="319.486" y="700.167"/>
			<point x="322.437" y="700.253"/>
			<point x="325.388" y="700.253" type="curve" smooth="yes"/>
			<point x="422.155" y="700.253"/>
			<point x="484.911" y="622.37"/>
			<point x="509.473" y="550.222" type="curve" smooth="yes"/>
			<point x="529.494" y="491.407"/>
			<point x="532.525" y="434.879"/>
			<point x="532.525" y="368.254" type="curve" smooth="yes"/>
			<point x="532.525" y="296.116"/>
			<point x="522.47" y="242.108"/>
			<point x="489.411" y="195.571" type="curve" smooth="yes"/>
			<point x="481.691" y="182.47"/>
			<point x="471.202" y="171.062"/>
			<point x="461.073" y="160.933" type="curve" smooth="yes"/>
			<point x="459.263" y="159.122"/>
			<point x="456.763" y="158.002"/>
			<point x="454.003" y="158.002" type="curve" smooth="yes"/>
			<point x="450.903" y="158.002"/>
			<point x="448.131" y="159.415"/>
			<point x="446.296" y="161.632" type="curve" smooth="yes"/>
			<point x="422.33" y="190.59"/>
			<point x="402.057" y="223.807"/>
			<point x="375.933" y="249.931" type="curve" smooth="yes"/>
			<point x="349.287" y="276.576"/>
			<point x="314.818" y="295.759"/>
			<point x="278.454" y="305.328" type="curve" smooth="yes"/>
			<point x="278.337" y="305.359"/>
			<point x="278.168" y="305.41"/>
			<point x="278.057" y="305.43" type="curve" smooth="yes"/>
			<point x="278.029" y="305.338"/>
			<point x="278.008" y="305.197"/>
			<point x="278.004" y="305.001" type="curve" smooth="yes"/>
			<point x="276.002" y="196.918" type="line" smooth="yes"/>
			<point x="276.036" y="190.242"/>
			<point x="280.217" y="186.001"/>
			<point x="289.002" y="186.001" type="curve" smooth="yes"/>
			<point x="337.92" y="186.001"/>
			<point x="374.273" y="161.09"/>
			<point x="400.821" y="136.312" type="curve" smooth="yes"/>
			<point x="402.777" y="134.485"/>
			<point x="404.001" y="131.885"/>
			<point x="404.001" y="129" type="curve" smooth="yes"/>
			<point x="404.001" y="125.031"/>
			<point x="401.684" y="121.6"/>
			<point x="398.329" y="119.984" type="curve" smooth="yes"/>
			<point x="371.773" y="107.198"/>
			<point x="341.856" y="100.893"/>
		</contour>
		<contour>
			<point x="317.001" y="790" type="curve" smooth="yes"/>
			<point x="216.14" y="790"/>
			<point x="141.149" y="725.505"/>
			<point x="97.2617" y="661.361" type="curve" smooth="yes"/>
			<point x="45.6875" y="584.487"/>
			<point x="25.0029" y="490.556"/>
			<point x="25.0029" y="396.998" type="curve" smooth="yes"/>
			<point x="25.0029" y="242.528"/>
			<point x="83.4971" y="116.266"/>
			<point x="183.438" y="51.3926" type="curve" smooth="yes"/>
			<point x="223.184" y="25.6113"/>
			<point x="265.255" y="11.5439"/>
			<point x="315.311" y="11.5439" type="curve" smooth="yes"/>
			<point x="370.704" y="11.5439"/>
			<point x="426.13" y="35.4551"/>
			<point x="464.13" y="63.0908" type="curve" smooth="yes"/>
			<point x="465.779" y="64.29"/>
			<point x="467.809" y="64.998"/>
			<point x="470.002" y="64.998" type="curve" smooth="yes"/>
			<point x="472.51" y="64.998"/>
			<point x="474.803" y="64.0732"/>
			<point x="476.559" y="62.5459" type="curve" smooth="yes"/>
			<point x="515.458" y="28.7207"/>
			<point x="565.353" y="-0.429688"/>
			<point x="629.724" y="-5.02734" type="curve" smooth="yes"/>
			<point x="630.02" y="-5.0498"/>
			<point x="630.361" y="-5.06445"/>
			<point x="630.639" y="-5.06445" type="curve" smooth="yes"/>
			<point x="636.156" y="-5.06445"/>
			<point x="640.257" y="-0.928711"/>
			<point x="640.257" y="4.69141" type="curve" smooth="yes"/>
			<point x="640.257" y="5.25293"/>
			<point x="640.189" y="5.84277"/>
			<point x="640.113" y="6.46777" type="curve" smooth="yes"/>
			<point x="631.097" y="80.6064" type="line" smooth="yes"/>
			<point x="629.931" y="87.8037"/>
			<point x="624.659" y="92.083"/>
			<point x="617.176" y="92.083" type="curve" smooth="yes"/>
			<point x="610.978" y="92.083"/>
			<point x="596.487" y="91.0244"/>
			<point x="596.085" y="91.0244" type="curve" smooth="yes"/>
			<point x="572.225" y="91.0254"/>
			<point x="548.721" y="95.4004"/>
			<point x="526.533" y="103.618" type="curve" smooth="yes"/>
			<point x="522.722" y="105.03"/>
			<point x="520.002" y="108.7"/>
			<point x="520.002" y="113" type="curve" smooth="yes"/>
			<point x="520.002" y="120.693"/>
			<point x="528.011" y="128.034"/>
			<point x="532.308" y="132.438" type="curve" smooth="yes"/>
			<point x="586.428" y="209.152"/>
			<point x="609.012" y="304.814"/>
			<point x="610.001" y="400.053" type="curve" smooth="yes"/>
			<point x="609.989" y="560.351"/>
			<point x="548.286" y="692.023"/>
			<point x="440.93" y="755.382" type="curve" smooth="yes"/>
			<point x="403.396" y="777.517"/>
			<point x="360.054" y="790"/>
		</contour>
		<contour>
			<point x="276.002" y="196.811" type="curve"/>
			<point x="276.002" y="196.999" type="line"/>
			<point x="276.002" y="196.881"/>
			<point x="276.002" y="196.846"/>
		</contour>
		<contour>
			<point x="278.059" y="305.429" type="curve"/>
			<point x="278.117" y="305.569" type="line"/>
			<point x="278.117" y="305.569"/>
			<point x="278.087" y="305.523"/>
		</contour>
		<contour>
			<point x="489.412" y="195.569" type="curve"/>
			<point x="489.648" y="195.971" type="line"/>
			<point x="489.57" y="195.837"/>
			<point x="489.491" y="195.703"/>
		</contour>
		<contour>
			<point x="417.401" y="672.417" type="curve"/>
			<point x="417.256" y="672.509" type="line"/>
			<point x="417.353" y="672.448"/>
			<point x="417.377" y="672.433"/>
		</contour>
	</outline>
</glyph>
<glyph name="R" format="2">
	<unicode hex="0052"/>
	<advance width="535"/>
	<outline>
		<contour>
			<point x="201" y="19" type="curve" smooth="yes"/>
			<point x="206" y="8"/>
			<point x="200.999" y="-0.00195312"/>
			<point x="188.999" y="-0.00195312" type="curve" smooth="yes"/>
			<point x="88.999" y="-0.00195312" type="line" smooth="yes"/>
			<point x="76.999" y="-0.00195312"/>
			<point x="67.999" y="8.99805"/>
			<point x="66.999" y="19.998" type="curve" smooth="yes"/>
			<point x="64.999" y="53.998"/>
			<point x="63.999" y="87.998"/>
			<point x="62.999" y="122.998" type="curve" smooth="yes"/>
			<point x="60.999" y="283.998"/>
			<point x="76.999" y="444.998"/>
			<point x="61.999" y="604.998" type="curve" smooth="yes"/>
			<point x="61.999" y="608.998"/>
			<point x="60.999" y="611.998"/>
			<point x="60.999" y="615.998" type="curve"/>
			<point x="56.999" y="607.998"/>
			<point x="52.999" y="599.998"/>
			<point x="49.999" y="591.998" type="curve" smooth="yes"/>
			<point x="43.999" y="577.998"/>
			<point x="36.999" y="576.998"/>
			<point x="31.999" y="590.998" type="curve" smooth="yes"/>
			<point x="4.99902" y="657.998" type="line" smooth="yes"/>
			<point x="-8.91797" y="690.471"/>
			<point x="26.9111" y="711.336"/>
			<point x="44.999" y="723.998" type="curve"/>
			<point x="40.999" y="743.998"/>
			<point x="36.999" y="763.998"/>
			<point x="31.999" y="782.998" type="curve" smooth="yes"/>
			<point x="29.999" y="791.998"/>
			<point x="34.999" y="799.998"/>
			<point x="44.999" y="799.998" type="curve" smooth="yes"/>
			<point x="129.999" y="799.998" type="line" smooth="yes"/>
			<point x="144.999" y="799.998"/>
			<point x="159.999" y="786.998"/>
			<point x="160.999" y="772.998" type="curve"/>
			<point x="236.823" y="788.163"/>
			<point x="314.148" y="783.463"/>
			<point x="375" y="739.998" type="curve" smooth="yes"/>
			<point x="425.635" y="703.332"/>
			<point x="462.694" y="636.148"/>
			<point x="458" y="553.999" type="curve" smooth="yes"/>
			<point x="455" y="501.999"/>
			<point x="436" y="451.999"/>
			<point x="404" y="410.999" type="curve" smooth="yes"/>
			<point x="378" y="377.999"/>
			<point x="344" y="351.999"/>
			<point x="308" y="330.999" type="curve"/>
			<point x="329" y="313.999"/>
			<point x="347" y="294.999"/>
			<point x="362" y="272.999" type="curve" smooth="yes"/>
			<point x="406.252" y="208.633"/>
			<point x="418.904" y="127.119"/>
			<point x="467" y="67" type="curve" smooth="yes"/>
			<point x="484" y="46"/>
			<point x="504" y="28"/>
			<point x="527" y="14" type="curve" smooth="yes"/>
			<point x="540" y="6"/>
			<point x="539" y="1"/>
			<point x="524" y="1" type="curve" smooth="yes"/>
			<point x="441" y="1" type="line" smooth="yes"/>
			<point x="425" y="1"/>
			<point x="402" y="8"/>
			<point x="391" y="19" type="curve" smooth="yes"/>
			<point x="368" y="41"/>
			<point x="349" y="67"/>
			<point x="336" y="97" type="curve" smooth="yes"/>
			<point x="324" y="125"/>
			<point x="317" y="156"/>
			<point x="308" y="185" type="curve" smooth="yes"/>
			<point x="293.292" y="229.124"/>
			<point x="270.873" y="270.324"/>
			<point x="232" y="293" type="curve"/>
			<point x="207" y="282"/>
			<point x="181" y="272"/>
			<point x="155" y="264" type="curve"/>
			<point x="154" y="219"/>
			<point x="155" y="174"/>
			<point x="164" y="129" type="curve" smooth="yes"/>
			<point x="171" y="91"/>
			<point x="184" y="54"/>
		</contour>
		<contour>
			<point x="168.999" y="692.998" type="curve"/>
			<point x="176.505" y="592.92"/>
			<point x="174.386" y="487.869"/>
			<point x="164.999" y="393.998" type="curve"/>
			<point x="254.317" y="379.111"/>
			<point x="327.81" y="415.518"/>
			<point x="359.999" y="472.998" type="curve" smooth="yes"/>
			<point x="392.611" y="535.713"/>
			<point x="368.606" y="605.712"/>
			<point x="329.999" y="645.998" type="curve" smooth="yes"/>
			<point x="293.606" y="682.391"/>
			<point x="240.58" y="704.928"/>
		</contour>
		<contour>
			<point x="40.7939" y="595.934" type="line"/>
			<point x="44.0186" y="604.443"/>
			<point x="49.8672" y="625.998"/>
			<point x="60.999" y="625.998" type="curve" smooth="yes"/>
			<point x="66.5186" y="625.998"/>
			<point x="70.999" y="621.518"/>
			<point x="70.999" y="615.998" type="curve" smooth="yes"/>
			<point x="70.999" y="612.618"/>
			<point x="71.9336" y="609.683"/>
			<point x="71.9951" y="605.511" type="curve" smooth="yes"/>
			<point x="76.8906" y="553.1"/>
			<point x="78.4834" y="500.683"/>
			<point x="78.4834" y="448.305" type="curve" smooth="yes"/>
			<point x="78.4834" y="349.599"/>
			<point x="72.8232" y="250.837"/>
			<point x="72.8232" y="152.24" type="curve" smooth="yes"/>
			<point x="72.8232" y="106.936"/>
			<point x="74.4521" y="63.6777"/>
			<point x="76.9717" y="20.7764" type="curve" smooth="yes"/>
			<point x="77.585" y="14.7441"/>
			<point x="82.3496" y="9.99902"/>
			<point x="89" y="9.99902" type="curve" smooth="yes"/>
			<point x="189" y="9.99902" type="line" smooth="yes"/>
			<point x="191.502" y="9.99902"/>
			<point x="192.609" y="10.5537"/>
			<point x="192.898" y="10.7305" type="curve" smooth="yes"/>
			<point x="192.898" y="10.8047"/>
			<point x="192.924" y="10.9248"/>
			<point x="192.924" y="11.1113" type="curve" smooth="yes"/>
			<point x="192.924" y="11.6836"/>
			<point x="192.738" y="12.9707"/>
			<point x="191.936" y="14.7686" type="curve" smooth="yes"/>
			<point x="161.349" y="77.7852"/>
			<point x="144.687" y="149.637"/>
			<point x="144.687" y="237.849" type="curve" smooth="yes"/>
			<point x="144.687" y="250.74"/>
			<point x="141.628" y="270.351"/>
			<point x="152.059" y="273.56" type="curve" smooth="yes"/>
			<point x="177.615" y="281.423"/>
			<point x="203.273" y="291.286"/>
			<point x="227.98" y="302.157" type="curve" smooth="yes"/>
			<point x="229.211" y="302.698"/>
			<point x="230.57" y="302.999"/>
			<point x="232" y="302.999" type="curve" smooth="yes"/>
			<point x="233.832" y="302.999"/>
			<point x="235.55" y="302.505"/>
			<point x="237.027" y="301.643" type="curve" smooth="yes"/>
			<point x="286.604" y="272.724"/>
			<point x="308.989" y="219.037"/>
			<point x="325.497" y="160.78" type="curve" smooth="yes"/>
			<point x="331.357" y="140.099"/>
			<point x="337.198" y="119.593"/>
			<point x="345.196" y="100.931" type="curve" smooth="yes"/>
			<point x="357.621" y="72.2578"/>
			<point x="375.771" y="47.4014"/>
			<point x="397.91" y="26.2246" type="curve" smooth="yes"/>
			<point x="406.266" y="18.2324"/>
			<point x="426.987" y="10.999"/>
			<point x="441" y="10.999" type="curve" smooth="yes"/>
			<point x="513.138" y="10.999" type="line"/>
			<point x="492.694" y="24.7314"/>
			<point x="474.735" y="41.5527"/>
			<point x="459.225" y="60.7129" type="curve" smooth="yes"/>
			<point x="410.421" y="121.718"/>
			<point x="397.586" y="203.588"/>
			<point x="353.755" y="267.343" type="curve" smooth="yes"/>
			<point x="339.348" y="288.473"/>
			<point x="322.052" y="306.759"/>
			<point x="301.715" y="323.222" type="curve" smooth="yes"/>
			<point x="299.449" y="325.056"/>
			<point x="298" y="327.858"/>
			<point x="298" y="330.997" type="curve" smooth="yes"/>
			<point x="298" y="334.684"/>
			<point x="299.999" y="337.907"/>
			<point x="302.972" y="339.642" type="curve" smooth="yes"/>
			<point x="338.253" y="360.223"/>
			<point x="371.194" y="385.517"/>
			<point x="396.141" y="417.18" type="curve" smooth="yes"/>
			<point x="429.121" y="459.437"/>
			<point x="448.374" y="509.246"/>
			<point x="448.374" y="567.163" type="curve" smooth="yes"/>
			<point x="448.374" y="692.553"/>
			<point x="358.283" y="770.631"/>
			<point x="235.88" y="770.631" type="curve" smooth="yes"/>
			<point x="209.132" y="770.631"/>
			<point x="187.291" y="768.057"/>
			<point x="162.968" y="763.192" type="curve" smooth="yes"/>
			<point x="162.331" y="763.065"/>
			<point x="161.673" y="762.999"/>
			<point x="160.999" y="762.999" type="curve" smooth="yes"/>
			<point x="155.723" y="762.999"/>
			<point x="151.396" y="767.095"/>
			<point x="151.025" y="772.277" type="curve" smooth="yes"/>
			<point x="150.462" y="780.16"/>
			<point x="140.024" y="789.999"/>
			<point x="130" y="789.999" type="curve" smooth="yes"/>
			<point x="45" y="789.999" type="line" smooth="yes"/>
			<point x="41.9199" y="789.999"/>
			<point x="41.5654" y="789.225"/>
			<point x="41.5654" y="786.853" type="curve" smooth="yes"/>
			<point x="41.5654" y="786.419"/>
			<point x="41.6123" y="785.902"/>
			<point x="41.7295" y="785.327" type="curve" smooth="yes"/>
			<point x="46.8066" y="765.999"/>
			<point x="50.8213" y="745.894"/>
			<point x="54.8066" y="725.968" type="curve" smooth="yes"/>
			<point x="54.9336" y="725.331"/>
			<point x="55" y="724.673"/>
			<point x="55" y="723.999" type="curve" smooth="yes"/>
			<point x="55" y="720.608"/>
			<point x="53.3086" y="717.609"/>
			<point x="50.7246" y="715.801" type="curve" smooth="yes"/>
			<point x="40.4209" y="708.589"/>
			<point x="31.252" y="700.94"/>
			<point x="21.9912" y="693.995" type="curve" smooth="yes"/>
			<point x="16.833" y="690.126"/>
			<point x="12.457" y="680.575"/>
			<point x="12.457" y="671.373" type="curve" smooth="yes"/>
			<point x="12.457" y="667.795"/>
			<point x="13.1602" y="664.506"/>
			<point x="14.1973" y="661.932" type="curve" smooth="yes"/>
		</contour>
		<contour>
			<point x="160.031" y="453.82" type="curve"/>
			<point x="160.02" y="453.639" type="line"/>
			<point x="160.023" y="453.699"/>
			<point x="160.027" y="453.76"/>
		</contour>
		<contour>
			<point x="199.234" y="381.4" type="curve" smooth="yes"/>
			<point x="186.087" y="381.4"/>
			<point x="155" y="379.483"/>
			<point x="155" y="393.998" type="curve" smooth="yes"/>
			<point x="155" y="394.337"/>
			<point x="155.017" y="394.672"/>
			<point x="155.05" y="395.003" type="curve" smooth="yes"/>
			<point x="160.478" y="449.281"/>
			<point x="163.633" y="508.433"/>
			<point x="163.633" y="567.141" type="curve" smooth="yes"/>
			<point x="163.633" y="608.838"/>
			<point x="162.145" y="650.683"/>
			<point x="159.027" y="692.24" type="curve" smooth="yes"/>
			<point x="159.009" y="692.49"/>
			<point x="158.999" y="692.743"/>
			<point x="158.999" y="692.998" type="curve" smooth="yes"/>
			<point x="158.999" y="707.643"/>
			<point x="191.618" y="705.998"/>
			<point x="204.999" y="705.998" type="curve" smooth="yes"/>
			<point x="301.605" y="705.998"/>
			<point x="371.078" y="643.038"/>
			<point x="383.886" y="558.507" type="curve" smooth="yes"/>
			<point x="384.851" y="552.137"/>
			<point x="384.944" y="545.323"/>
			<point x="384.944" y="538.818" type="curve" smooth="yes"/>
			<point x="384.944" y="473.764"/>
			<point x="348.809" y="428.107"/>
			<point x="304.603" y="405.12" type="curve" smooth="yes"/>
			<point x="272.046" y="388.19"/>
			<point x="240.453" y="381.4"/>
		</contour>
	</outline>
</glyph>
<glyph name="U" format="2">
	<unicode hex="0055"/>
	<advance width="496"/>
	<outline>
		<contour>
			<point x="26" y="784" type="curve" smooth="yes"/>
			<point x="127" y="784.001" type="line" smooth="yes"/>
			<point x="137" y="784.001"/>
			<point x="143" y="776.001"/>
			<point x="141" y="766.001" type="curve" smooth="yes"/>
			<point x="98.3623" y="609.663"/>
			<point x="97.9756" y="429.337"/>
			<point x="138" y="260.001" type="curve" smooth="yes"/>
			<point x="150.227" y="209.568"/>
			<point x="168.922" y="153.977"/>
			<point x="212" y="131.001" type="curve" smooth="yes"/>
			<point x="227" y="122.001"/>
			<point x="244" y="117.001"/>
			<point x="261" y="118.001" type="curve" smooth="yes"/>
			<point x="295.808" y="118.001"/>
			<point x="323.287" y="143.305"/>
			<point x="339" y="166.001" type="curve" smooth="yes"/>
			<point x="357" y="193.001"/>
			<point x="366" y="224.001"/>
			<point x="372" y="255.001" type="curve" smooth="yes"/>
			<point x="401" y="392.001"/>
			<point x="395" y="535.001"/>
			<point x="364" y="671.001" type="curve" smooth="yes"/>
			<point x="356" y="704.001"/>
			<point x="347" y="736.001"/>
			<point x="337" y="769.001" type="curve" smooth="yes"/>
			<point x="334" y="777.001"/>
			<point x="339" y="784.001"/>
			<point x="348" y="784.001" type="curve" smooth="yes"/>
			<point x="453" y="784.001" type="line" smooth="yes"/>
			<point x="462" y="784.001"/>
			<point x="471" y="776.001"/>
			<point x="471" y="767.001" type="curve" smooth="yes"/>
			<point x="478" y="693.001"/>
			<point x="482" y="618.001"/>
			<point x="482" y="544.001" type="curve" smooth="yes"/>
			<point x="484" y="418.001"/>
			<point x="476" y="289.001"/>
			<point x="435" y="170.001" type="curve" smooth="yes"/>
			<point x="409.523" y="95.5312"/>
			<point x="363.888" y="19.0293"/>
			<point x="283" y="2" type="curve" smooth="yes"/>
			<point x="184.13" y="-14.4785"/>
			<point x="114.532" y="63.3896"/>
			<point x="80" y="129" type="curve" smooth="yes"/>
			<point x="21" y="242"/>
			<point x="20" y="375"/>
			<point x="18" y="502" type="curve" smooth="yes"/>
			<point x="16" y="590"/>
			<point x="13" y="678"/>
			<point x="9" y="766" type="curve" smooth="yes"/>
			<point x="9" y="776"/>
			<point x="16" y="784"/>
		</contour>
		<contour>
			<point x="472.28" y="509.702" type="curve" smooth="yes"/>
			<point x="472.28" y="521.148"/>
			<point x="472" y="532.587"/>
			<point x="472" y="544.004" type="curve" smooth="yes"/>
			<point x="472" y="617.637"/>
			<point x="468.019" y="692.328"/>
			<point x="461.045" y="766.052" type="curve" smooth="yes"/>
			<point x="461.016" y="766.365"/>
			<point x="461" y="766.683"/>
			<point x="461" y="767.004" type="curve" smooth="yes"/>
			<point x="461" y="769.571"/>
			<point x="456.875" y="774.004"/>
			<point x="453" y="774.004" type="curve" smooth="yes"/>
			<point x="348" y="774.004" type="line" smooth="yes"/>
			<point x="346.869" y="774.004"/>
			<point x="346.31" y="773.744"/>
			<point x="346.128" y="773.574" type="curve" smooth="yes"/>
			<point x="346.128" y="773.359"/>
			<point x="346.451" y="772.303"/>
			<point x="346.572" y="771.903" type="curve" smooth="yes"/>
			<point x="356.606" y="738.79"/>
			<point x="366.149" y="706.575"/>
			<point x="373.75" y="673.23" type="curve" smooth="yes"/>
			<point x="391.193" y="596.704"/>
			<point x="400.804" y="517.938"/>
			<point x="400.804" y="439.151" type="curve" smooth="yes"/>
			<point x="400.804" y="376.716"/>
			<point x="394.767" y="314.292"/>
			<point x="381.801" y="253.008" type="curve" smooth="yes"/>
			<point x="372.253" y="203.72"/>
			<point x="351.628" y="149.4"/>
			<point x="311.314" y="124.53" type="curve" smooth="yes"/>
			<point x="294.726" y="113.882"/>
			<point x="278.351" y="107.964"/>
			<point x="256.69" y="107.875" type="curve" smooth="yes"/>
			<point x="215.506" y="107.875"/>
			<point x="184.926" y="134.923"/>
			<point x="166.907" y="160.128" type="curve" smooth="yes"/>
			<point x="145.407" y="189.19"/>
			<point x="136.29" y="224.601"/>
			<point x="128.28" y="257.641" type="curve" smooth="yes"/>
			<point x="108.39" y="341.794"/>
			<point x="97.7607" y="428.354"/>
			<point x="97.7607" y="515.048" type="curve" smooth="yes"/>
			<point x="97.7607" y="610.633"/>
			<point x="109.344" y="687.808"/>
			<point x="131.246" y="768.252" type="curve" smooth="yes"/>
			<point x="131.344" y="768.816"/>
			<point x="131.383" y="769.764"/>
			<point x="131.383" y="769.764" type="curve" smooth="yes"/>
			<point x="131.383" y="772.773"/>
			<point x="130.368" y="774.002"/>
			<point x="127" y="774.002" type="curve" smooth="yes"/>
			<point x="26" y="774.002" type="line" smooth="yes"/>
			<point x="22.083" y="774.002"/>
			<point x="19.0771" y="771.354"/>
			<point x="19.002" y="766.201" type="curve" smooth="yes"/>
			<point x="23.1074" y="675.833"/>
			<point x="26.6963" y="585.736"/>
			<point x="28.1084" y="495.142" type="curve" smooth="yes"/>
			<point x="30.0566" y="370.141"/>
			<point x="32.3906" y="241.792"/>
			<point x="88.8701" y="133.62" type="curve" smooth="yes"/>
			<point x="119.962" y="74.5459"/>
			<point x="173.984" y="10.0283"/>
			<point x="258.836" y="10.0283" type="curve" smooth="yes"/>
			<point x="266.328" y="10.0283"/>
			<point x="273.791" y="10.6182"/>
			<point x="281.138" y="11.8301" type="curve" smooth="yes"/>
			<point x="357.919" y="28.126"/>
			<point x="401.07" y="101.723"/>
			<point x="425.535" y="173.234" type="curve" smooth="yes"/>
			<point x="462.285" y="279.899"/>
			<point x="472.28" y="395.29"/>
		</contour>
	</outline>
</glyph>
<glyph name="V" format="2">
  <advance width="508"/>
  <unicode hex="0056"/>
  <outline>
    <contour>
      <point x="11" y="746" type="curve" smooth="yes"/>
      <point x="113" y="794" type="line" smooth="yes"/>
      <point x="119" y="798"/>
      <point x="126" y="794"/>
      <point x="128" y="788" type="curve" smooth="yes"/>
      <point x="143" y="732"/>
      <point x="155" y="676"/>
      <point x="163" y="619" type="curve" smooth="yes"/>
      <point x="174" y="537"/>
      <point x="179" y="454"/>
      <point x="186" y="372" type="curve" smooth="yes"/>
      <point x="191" y="310"/>
      <point x="198" y="249"/>
      <point x="218" y="191" type="curve" smooth="yes"/>
      <point x="230" y="156"/>
      <point x="247" y="123"/>
      <point x="268" y="93" type="curve"/>
      <point x="278" y="139"/>
      <point x="290" y="185"/>
      <point x="305" y="229" type="curve" smooth="yes"/>
      <point x="327" y="295"/>
      <point x="354" y="359"/>
      <point x="371" y="426" type="curve" smooth="yes"/>
      <point x="389" y="499"/>
      <point x="396" y="575"/>
      <point x="386" y="649" type="curve" smooth="yes"/>
      <point x="381" y="681"/>
      <point x="373" y="712"/>
      <point x="363" y="742" type="curve" smooth="yes"/>
      <point x="360" y="749"/>
      <point x="364" y="756"/>
      <point x="371" y="759" type="curve" smooth="yes"/>
      <point x="475" y="796" type="line" smooth="yes"/>
      <point x="482" y="798"/>
      <point x="489" y="794"/>
      <point x="490" y="787" type="curve" smooth="yes"/>
      <point x="538.075" y="594.699"/>
      <point x="459.774" y="441.137"/>
      <point x="408" y="279" type="curve" smooth="yes"/>
      <point x="380" y="188"/>
      <point x="359" y="95"/>
      <point x="347" y="0" type="curve"/>
      <point x="297" y="-13"/>
      <point x="240" y="-2"/>
      <point x="198" y="30" type="curve" smooth="yes"/>
      <point x="155" y="62"/>
      <point x="129" y="113"/>
      <point x="116" y="165" type="curve" smooth="yes"/>
      <point x="102" y="218"/>
      <point x="100" y="272"/>
      <point x="96" y="326" type="curve" smooth="yes"/>
      <point x="88" y="428"/>
      <point x="72" y="529"/>
      <point x="42" y="627" type="curve" smooth="yes"/>
      <point x="31" y="661"/>
      <point x="18" y="695"/>
      <point x="4" y="728" type="curve" smooth="yes"/>
      <point x="1" y="735"/>
      <point x="4" y="743"/>
    </contour>
    <contour>
      <point x="12.8418" y="733.587" type="curve" smooth="yes"/>
      <point x="12.8418" y="733.093"/>
      <point x="12.9424" y="732.527"/>
      <point x="13.1963" y="731.936" type="curve" smooth="yes"/>
      <point x="27.2734" y="698.754"/>
      <point x="41.0068" y="664.42"/>
      <point x="51.5645" y="629.931" type="curve" smooth="yes"/>
      <point x="84.2568" y="523.135"/>
      <point x="99.7695" y="417.495"/>
      <point x="107.602" y="303.673" type="curve" smooth="yes"/>
      <point x="115.35" y="191.064"/>
      <point x="131.517" y="91.9434"/>
      <point x="203.962" y="38.0312" type="curve" smooth="yes"/>
      <point x="232.509" y="16.2812"/>
      <point x="268.859" y="4.66113"/>
      <point x="304.529" y="4.66113" type="curve" smooth="yes"/>
      <point x="315.818" y="4.66113"/>
      <point x="327.055" y="5.81348"/>
      <point x="337.965" y="8.1416" type="curve"/>
      <point x="354.093" y="131.277"/>
      <point x="388.542" y="255.557"/>
      <point x="426.246" y="364.351" type="curve" smooth="yes"/>
      <point x="460.975" y="464.559"/>
      <point x="494.852" y="555.55"/>
      <point x="494.852" y="666.546" type="curve" smooth="yes"/>
      <point x="494.852" y="706.395"/>
      <point x="489.824" y="746.47"/>
      <point x="480.299" y="784.572" type="curve" smooth="yes"/>
      <point x="480.035" y="785.625"/>
      <point x="480.397" y="786.517"/>
      <point x="478.628" y="786.517" type="curve" smooth="yes"/>
      <point x="478.44" y="786.517"/>
      <point x="478.214" y="786.495"/>
      <point x="477.959" y="786.438" type="curve" smooth="yes"/>
      <point x="374.699" y="749.702" type="line" smooth="yes"/>
      <point x="372.363" y="748.619"/>
      <point x="371.992" y="747.152"/>
      <point x="371.992" y="746.769" type="curve" smooth="yes"/>
      <point x="371.992" y="746.406"/>
      <point x="372.357" y="745.557"/>
      <point x="372.489" y="745.161" type="curve" smooth="yes"/>
      <point x="389.081" y="695.386"/>
      <point x="400.577" y="643.589"/>
      <point x="400.577" y="579.481" type="curve" smooth="yes"/>
      <point x="400.577" y="439.987"/>
      <point x="350.244" y="333.104"/>
      <point x="314.489" y="225.84" type="curve" smooth="yes"/>
      <point x="299.649" y="182.309"/>
      <point x="287.714" y="136.601"/>
      <point x="277.772" y="90.8691" type="curve" smooth="yes"/>
      <point x="276.795" y="86.3721"/>
      <point x="272.788" y="83"/>
      <point x="268" y="83" type="curve" smooth="yes"/>
      <point x="264.609" y="83"/>
      <point x="261.61" y="84.6914"/>
      <point x="259.802" y="87.2754" type="curve" smooth="yes"/>
      <point x="238.278" y="118.022"/>
      <point x="220.849" y="151.85"/>
      <point x="208.537" y="187.759" type="curve" smooth="yes"/>
      <point x="188.069" y="247.115"/>
      <point x="181.049" y="308.98"/>
      <point x="176.032" y="371.187" type="curve" smooth="yes"/>
      <point x="168.922" y="454.484"/>
      <point x="164.017" y="536.203"/>
      <point x="153.09" y="617.66" type="curve" smooth="yes"/>
      <point x="145.177" y="674.041"/>
      <point x="133.317" y="729.435"/>
      <point x="118.458" y="784.968" type="curve" smooth="yes"/>
      <point x="118.376" y="785.135"/>
      <point x="118.251" y="785.296"/>
      <point x="118.135" y="785.419" type="curve" smooth="yes"/>
      <point x="117.843" y="785.244"/>
      <point x="117.55" y="785.088"/>
      <point x="117.249" y="784.946" type="curve" smooth="yes"/>
      <point x="15.249" y="736.946" type="line" smooth="yes"/>
      <point x="13.7861" y="736.258"/>
      <point x="12.8418" y="735.312"/>
    </contour>
  </outline>
</glyph>
